<?xml version="1.0" encoding="UTF-8"?>
<!-- Generator: visioncortex VTracer 0.6.12 -->
<svg version="1.1" xmlns="http://www.w3.org/2000/svg" width="1279" height="931">
<path d="M0 0 C0 0.99 0 1.98 0 3 C-0.66 3 -1.32 3 -2 3 C-1.319 3.577 -0.639 4.155 0.062 4.75 C0.382 5.121 0.382 5.121 2 7 C1.75 9.25 1.75 9.25 1 11 C0.01 11 -0.98 11 -2 11 C-2 13.64 -2 16.28 -2 19 C-4.708 20.693 -6.436 21.037 -9.688 21.312 C-15.792 21.976 -20.444 25.381 -25.535 28.605 C-32.628 32.965 -39.813 36.03 -47.57 39.012 C-53.676 41.387 -59.203 44.171 -64.902 47.406 C-69.372 49.706 -74.027 51.238 -78.809 52.762 C-81.614 53.85 -83.653 55.114 -86.091 56.829 C-90.746 59.684 -95.938 61.644 -100.938 63.812 C-103.4 64.891 -105.86 65.973 -108.32 67.055 C-108.906 67.312 -108.906 67.312 -111.868 68.612 C-115.378 70.167 -118.848 71.784 -122.312 73.438 C-129.711 76.936 -137.234 80.141 -144.75 83.375 C-155.591 88.041 -166.326 92.875 -176.952 98.017 C-180.307 99.628 -183.686 101.186 -187.062 102.75 C-192.761 105.4 -198.394 108.16 -204 111 C-206.54 112.273 -209.083 113.543 -211.625 114.812 C-213.005 115.503 -214.385 116.193 -215.766 116.883 C-241 129.5 -241 129.5 -243.2 130.597 C-245.245 131.622 -247.287 132.654 -249.327 133.691 C-258.89 138.537 -268.574 143.063 -278.333 147.497 C-294.248 154.739 -309.848 162.372 -325.291 170.572 C-330.267 173.195 -335.305 175.692 -340.348 178.184 C-343.016 179.502 -345.665 180.855 -348.309 182.223 C-348.669 182.408 -348.669 182.408 -350.495 183.344 C-351.867 184.048 -353.236 184.759 -354.6 185.476 C-358.399 187.415 -361.759 188.537 -366 189 C-366.33 189.99 -366.66 190.98 -367 192 C-368.851 193.163 -368.851 193.163 -371.27 194.27 C-372.153 194.681 -373.037 195.092 -373.947 195.516 C-374.893 195.944 -375.838 196.372 -376.812 196.812 C-378.736 197.701 -380.659 198.59 -382.582 199.48 C-383.048 199.695 -383.048 199.695 -385.409 200.783 C-389.554 202.73 -393.593 204.867 -397.625 207.039 C-400.255 208.103 -402.19 208.191 -405 208 C-405 208.66 -405 209.32 -405 210 C-405.66 210 -406.32 210 -407 210 C-407 210.66 -407 211.32 -407 212 C-407.969 212.485 -408.939 212.969 -409.938 213.469 C-410.577 213.788 -411.216 214.108 -411.875 214.438 C-413.313 215.157 -414.753 215.876 -416.192 216.594 C-419.798 218.394 -423.401 220.201 -426.992 222.031 C-434.884 226.04 -442.845 229.793 -450.974 233.299 C-453.933 234.584 -456.72 235.824 -459.457 237.543 C-461.741 238.851 -463.609 239.554 -466.102 240.316 C-472.93 242.488 -479.028 246.114 -485.297 249.529 C-490.978 252.572 -496.587 255.114 -502.691 257.192 C-505.609 258.213 -508.274 259.546 -511 261 C-513.016 262.014 -515.037 263.019 -517.059 264.023 C-518.738 264.868 -520.402 265.744 -522.062 266.625 C-525 268 -525 268 -528.25 268.812 C-532.512 270.162 -535.821 272.167 -539.57 274.562 C-542 276 -542 276 -544.68 277.062 C-547 278 -547 278 -549 280 C-550.899 280.677 -552.82 281.294 -554.75 281.875 C-559.444 283.382 -562.969 285.133 -567 288 C-569.075 288.996 -571.184 289.891 -573.301 290.797 C-578.965 293.322 -584.466 296.204 -590 299 C-590.993 299.491 -591.985 299.982 -593.008 300.488 C-596.271 302.137 -599.476 303.877 -602.688 305.625 C-608.636 308.838 -614.683 311.774 -620.812 314.625 C-626.651 317.344 -632.241 320.181 -637.703 323.609 C-646.976 329.224 -657.166 333.459 -667 338 C-666.156 337.914 -665.313 337.829 -664.443 337.74 C-649.089 336.198 -633.786 334.728 -618.352 334.291 C-617.448 334.265 -616.544 334.238 -615.613 334.211 C-615.225 334.202 -615.225 334.202 -613.263 334.158 C-610.775 333.984 -608.441 333.506 -606 333 C-604.517 332.822 -603.031 332.667 -601.543 332.535 C-600.69 332.458 -599.837 332.381 -598.958 332.302 C-598.5 332.263 -598.5 332.263 -596.188 332.062 C-595.227 331.978 -594.266 331.894 -593.277 331.807 C-591.233 331.629 -589.189 331.451 -587.145 331.275 C-584.021 331.002 -580.899 330.715 -577.777 330.426 C-567.736 329.516 -557.908 328.897 -547.824 329.062 C-543.629 328.994 -539.592 328.541 -535.438 328 C-527.318 326.95 -519.323 326.847 -511.142 326.986 C-505.709 327.067 -500.485 326.836 -495.094 326.123 C-493 326 -493 326 -490 327 C-489.165 326.692 -488.329 326.384 -487.469 326.066 C-482.753 324.617 -478.398 324.825 -473.5 324.938 C-471.656 324.972 -469.813 325.002 -467.969 325.027 C-467.159 325.045 -466.348 325.063 -465.514 325.082 C-462.609 324.987 -459.865 324.482 -457 324 C-454.995 323.872 -452.988 323.779 -450.98 323.719 C-449.876 323.681 -448.772 323.644 -447.635 323.605 C-445.317 323.535 -442.999 323.464 -440.682 323.395 C-439.584 323.357 -438.486 323.32 -437.355 323.281 C-436.352 323.251 -435.348 323.221 -434.313 323.189 C-432 323 -432 323 -431 322 C-428.39 321.757 -425.804 321.574 -423.188 321.438 C-422.422 321.394 -421.656 321.351 -420.866 321.307 C-415.377 321.017 -409.915 320.938 -404.418 321.062 C-402 321 -402 321 -400.145 320.535 C-396.968 319.743 -393.756 319.625 -390.5 319.438 C-389.793 319.394 -389.086 319.351 -388.358 319.307 C-383.055 319.005 -377.78 318.974 -372.469 319.031 C-369.57 318.995 -366.853 318.496 -364 318 C-362.396 317.978 -360.792 317.98 -359.188 318 C-355.237 318.041 -351.466 317.776 -347.551 317.289 C-340.803 316.524 -333.995 315.972 -327.203 316.035 C-322.367 316.064 -317.617 315.508 -312.812 315 C-304.462 314.173 -296.235 313.811 -287.845 313.986 C-282.029 314.087 -276.283 313.804 -270.479 313.434 C-259.871 312.778 -249.249 312.442 -238.628 312.07 C-234.903 311.938 -231.178 311.8 -227.453 311.662 C-215.259 311.223 -203.09 310.93 -190.887 310.991 C-181.413 311.032 -171.977 310.671 -162.512 310.268 C-161.876 310.243 -161.876 310.243 -158.656 310.121 C-157.541 310.074 -156.425 310.027 -155.275 309.978 C-152 310 -152 310 -148.381 310.52 C-145.395 310.944 -143.206 310.964 -140.254 310.562 C-135.138 310.017 -130.103 309.917 -124.965 309.938 C-124.155 309.941 -123.344 309.944 -122.509 309.947 C-119.985 309.961 -117.461 309.98 -114.938 310 C-95.761 310.154 -95.761 310.154 -88.186 309.223 C-84.131 308.81 -80.07 308.94 -76 309 C-70.1 309.043 -64.297 309.061 -58.437 308.292 C-55.83 307.98 -53.227 307.774 -50.609 307.578 C-43.623 307.004 -36.693 306.139 -29.75 305.188 C-28.536 305.035 -27.321 304.882 -26.07 304.725 C-19.213 303.78 -13.993 302.468 -8 299 C-7.01 298.67 -6.02 298.34 -5 298 C-4.974 291.081 -4.957 284.161 -4.945 277.242 C-4.94 274.892 -4.933 272.542 -4.925 270.192 C-4.912 266.799 -4.907 263.405 -4.902 260.012 C-4.897 258.975 -4.892 257.938 -4.887 256.87 C-4.886 251.062 -5.187 245.381 -5.767 239.603 C-6.122 235.637 -6.181 231.684 -6.203 227.703 C-6.209 226.866 -6.215 226.03 -6.22 225.168 C-6.23 223.413 -6.236 221.659 -6.24 219.904 C-6.25 217.269 -6.281 214.635 -6.312 212 C-6.455 188.909 -6.455 188.909 -2 180 C-5.064 180.955 -8.126 181.915 -11.188 182.875 C-12.052 183.144 -12.916 183.414 -13.807 183.691 C-20.483 185.789 -20.483 185.789 -23.66 187.086 C-26.793 188.31 -29.974 188.994 -33.25 189.75 C-39.452 191.249 -45.442 193.104 -51.435 195.292 C-59.509 198.225 -67.661 200.919 -75.812 203.625 C-77.233 204.097 -78.653 204.569 -80.074 205.041 C-82.795 205.945 -85.516 206.849 -88.237 207.751 C-95.523 210.169 -102.806 212.589 -110.07 215.07 C-112.089 215.755 -114.107 216.44 -116.125 217.125 C-117.132 217.472 -118.139 217.819 -119.176 218.176 C-124.729 220.051 -130.155 221.572 -135.937 222.552 C-138 223 -138 223 -141 224.5 C-144.441 226.22 -147.563 226.785 -151.34 227.375 C-154.103 228.024 -156.516 229.09 -159.11 230.22 C-161.969 231.4 -164.896 232.275 -167.859 233.156 C-168.489 233.345 -169.119 233.533 -169.768 233.727 C-171.092 234.122 -172.416 234.515 -173.741 234.907 C-175.732 235.495 -177.722 236.089 -179.711 236.684 C-186.262 238.637 -192.824 240.539 -199.428 242.307 C-201.113 242.761 -202.795 243.228 -204.472 243.709 C-213.364 246.236 -222.398 248.086 -231.438 250 C-234.666 250.685 -237.894 251.372 -241.121 252.062 C-241.894 252.228 -242.667 252.393 -243.464 252.563 C-248.841 253.722 -254.174 255.007 -259.49 256.423 C-262.922 257.212 -266.337 257.544 -269.844 257.789 C-271.992 257.999 -273.916 258.448 -276 259 C-278.551 259.516 -281.105 260.008 -283.66 260.5 C-286 261 -286 261 -289 262 C-293.183 262.262 -297.372 262.232 -301.562 262.25 C-302.134 262.26 -302.134 262.26 -305.025 262.312 C-312.205 262.345 -318.27 261.541 -325 259 C-325 258.34 -325 257.68 -325 257 C-326.32 257 -327.64 257 -329 257 C-330.086 253.741 -329.922 253.134 -329 250 C-328.938 249.257 -328.876 248.515 -328.812 247.75 C-326.936 241.397 -322.665 237.157 -317 234 C-316.221 233.505 -315.443 233.01 -314.641 232.5 C-304.674 226.247 -294.433 223.516 -282.75 222.5 C-278.879 222.158 -275.682 221.277 -272 220 C-269.236 219.434 -266.465 218.942 -263.684 218.465 C-258.911 217.638 -254.428 216.552 -249.812 215.062 C-235.962 210.764 -235.962 210.764 -229 211.125 C-224.769 211.251 -221.673 209.757 -217.848 208.078 C-213.479 206.424 -208.978 205.652 -204.395 204.809 C-200.691 203.926 -197.489 202.513 -194 201 C-191.533 200.289 -189.053 199.622 -186.562 199 C-181.226 197.63 -176.107 196.061 -171 194 C-164.75 191.559 -158.744 189.619 -152.137 188.426 C-149.587 187.918 -147.381 187.038 -145 186 C-142.807 185.239 -140.604 184.515 -138.398 183.793 C-136.815 183.269 -135.237 182.731 -133.664 182.176 C-129.088 180.575 -124.815 179.688 -120 179 C-119.34 178.34 -118.68 177.68 -118 177 C-115.706 176.272 -113.389 175.615 -111.062 175 C-104.324 173.216 -104.324 173.216 -101 171 C-99.077 170.484 -99.077 170.484 -96.914 170.082 C-91.893 169.04 -87.189 167.435 -82.375 165.688 C-80.61 165.058 -78.844 164.429 -77.078 163.801 C-76.216 163.494 -75.355 163.186 -74.467 162.87 C-71.034 161.659 -67.582 160.514 -64.125 159.375 C-59.348 157.798 -54.605 156.151 -49.875 154.438 C-44.347 152.445 -38.784 150.66 -33.156 148.973 C-30.034 148.011 -26.959 146.952 -23.875 145.875 C-19.168 144.289 -14.555 143.229 -9.656 142.434 C-7.043 142.007 -4.465 141.485 -1.875 140.938 C2.738 140.012 7.308 139.356 12 139 C12.73 138.934 13.459 138.869 14.211 138.801 C20.503 138.481 25.347 140.356 31 143 C31 143.66 31 144.32 31 145 C31.99 145.33 32.98 145.66 34 146 C38.975 153.463 36.827 163.358 35.25 171.688 C35.08 172.648 34.91 173.609 34.734 174.6 C34.647 175.09 34.647 175.09 34.203 177.574 C34.018 178.614 33.833 179.653 33.642 180.724 C33.211 182.924 32.715 185.112 32.159 187.284 C28.988 200.717 30.127 214.176 30.779 227.86 C34.552 307.372 34.552 307.372 16 328 C7.958 334.984 -1.674 338.074 -12.051 339.562 C-14.801 339.971 -17.475 340.519 -20.188 341.125 C-24.882 342.09 -29.214 342.228 -34 342 C-34.33 341.67 -34.66 341.34 -35 341 C-35.558 341.322 -36.116 341.644 -36.69 341.976 C-39.277 343.123 -41.138 343.296 -43.957 343.379 C-44.905 343.413 -45.853 343.447 -46.83 343.482 C-47.814 343.509 -48.798 343.535 -49.812 343.562 C-60.247 343.887 -60.247 343.887 -64.949 344.59 C-67.834 344.978 -69.293 344.846 -72 344 C-73.394 343.909 -74.791 343.87 -76.188 343.875 C-76.882 343.872 -77.577 343.87 -78.293 343.867 C-81 344 -81 344 -84.705 344.507 C-90.87 345.198 -97.037 345.095 -103.23 345.045 C-105.494 345.027 -107.758 345.016 -110.021 345.006 C-113.279 344.993 -116.536 344.978 -119.793 344.961 C-157.103 344.78 -194.271 345.628 -231.546 347.292 C-232.614 347.338 -233.683 347.385 -234.784 347.433 C-236.78 347.521 -238.776 347.611 -240.771 347.704 C-247.437 347.996 -254.079 348.017 -260.75 347.938 C-275.643 347.837 -290.461 348.809 -305.318 349.718 C-312.152 350.133 -318.987 350.504 -325.823 350.877 C-340.226 351.666 -354.628 352.489 -369.029 353.32 C-375.654 353.702 -382.279 354.071 -388.908 354.392 C-397.86 354.827 -406.78 355.528 -415.712 356.265 C-438.849 358.152 -438.849 358.152 -449.625 357.938 C-452.643 357.896 -455.201 358.196 -458.125 358.938 C-462.1 359.936 -465.926 360.252 -470.016 360.473 C-471.451 360.554 -472.887 360.637 -474.323 360.721 C-475.083 360.765 -475.842 360.809 -476.625 360.855 C-480.745 361.107 -484.86 361.414 -488.977 361.719 C-490.725 361.847 -492.474 361.975 -494.222 362.104 C-495.105 362.169 -495.988 362.233 -496.898 362.3 C-509.699 363.238 -522.489 364.164 -535.316 364.656 C-542.805 364.956 -550.275 365.465 -557.75 366 C-558.918 366.083 -560.085 366.166 -561.289 366.252 C-567.872 366.734 -574.435 367.316 -581 368 C-583.173 368.217 -585.346 368.433 -587.52 368.648 C-593.324 369.226 -599.128 369.807 -604.932 370.391 C-608.19 370.718 -611.449 371.044 -614.708 371.368 C-629.373 372.823 -644.001 374.457 -658.619 376.325 C-666.778 377.368 -674.935 378.348 -683.125 379.125 C-693.315 380.093 -703.405 381.38 -713.426 383.5 C-717.567 384.304 -721.744 384.861 -725.922 385.438 C-729 386 -729 386 -731.617 387.055 C-736.834 388.512 -741.989 388.207 -747.375 388.125 C-748.493 388.116 -749.61 388.107 -750.762 388.098 C-753.508 388.074 -756.254 388.041 -759 388 C-759 387.34 -759 386.68 -759 386 C-761.31 385.67 -763.62 385.34 -766 385 C-766 384.34 -766 383.68 -766 383 C-766.32 382.887 -766.32 382.887 -767.938 382.312 C-770 381 -770 381 -770.812 378.625 C-770.993 376.104 -770.793 374.38 -770 372 C-770.66 372 -771.32 372 -772 372 C-772.5 365.245 -771.772 359.753 -768 354 C-761.491 346.953 -753.648 341.108 -745 337 C-743.18 336.074 -741.36 335.148 -739.541 334.221 C-725.134 326.928 -710.423 320.257 -695.755 313.513 C-690.629 311.153 -685.512 308.779 -680.426 306.336 C-679.577 305.929 -678.728 305.521 -677.853 305.101 C-676.308 304.357 -674.765 303.608 -673.225 302.854 C-669.608 301.111 -666.056 299.649 -662.223 298.441 C-658.942 297.4 -656.67 296.215 -654 294 C-652.522 293.344 -651.019 292.742 -649.5 292.188 C-642.422 289.465 -635.714 285.991 -629.035 282.41 C-624.97 280.521 -620.882 279.747 -616.512 278.844 C-615.683 278.565 -614.854 278.287 -614 278 C-613.67 277.01 -613.34 276.02 -613 275 C-610.34 273.57 -610.34 273.57 -606.938 272.125 C-602.859 270.339 -599.073 268.544 -595.375 266.062 C-594.261 265.382 -593.148 264.701 -592 264 C-591.01 264.33 -590.02 264.66 -589 265 C-588.66 264.722 -588.66 264.722 -586.938 263.312 C-583.557 260.651 -580.328 259.452 -576.305 258.027 C-574 257 -574 257 -572.574 255.527 C-570.32 253.34 -567.884 252.671 -564.938 251.625 C-559.744 249.716 -554.89 247.545 -550.023 244.918 C-548 244 -548 244 -545 244 C-545 243.34 -545 242.68 -545 242 C-544.432 241.758 -543.863 241.515 -543.277 241.266 C-539.503 239.627 -535.873 237.987 -532.375 235.812 C-528.631 233.802 -526.174 233.341 -522 233 C-521.67 232.01 -521.34 231.02 -521 230 C-519.003 229.476 -517.003 228.96 -514.984 228.527 C-512.481 227.862 -511.004 226.616 -509 225 C-506.68 223.969 -504.346 222.971 -502 222 C-499.998 221.003 -497.999 220.003 -496 219 C-493.152 217.632 -490.295 216.285 -487.438 214.938 C-479.52 211.196 -471.611 207.437 -463.708 203.664 C-459.644 201.726 -455.578 199.798 -451.492 197.906 C-450.078 197.25 -448.664 196.594 -447.25 195.938 C-446.574 195.624 -445.898 195.311 -445.202 194.988 C-439.147 192.145 -433.266 188.994 -427.442 185.705 C-425.667 184.729 -423.836 183.855 -422 183 C-421.01 183.33 -420.02 183.66 -419 184 C-418.67 183.01 -418.34 182.02 -418 181 C-416.02 180.67 -414.04 180.34 -412 180 C-412 179.34 -412 178.68 -412 178 C-411.175 177.773 -410.35 177.546 -409.5 177.312 C-405.972 175.989 -403.22 174.333 -400.078 172.301 C-395.906 169.689 -391.617 167.528 -386.938 166 C-384.118 165.04 -381.773 163.773 -379.223 162.254 C-376.35 160.633 -373.399 159.203 -370.438 157.75 C-364.215 154.69 -358.225 151.321 -352.254 147.797 C-348.89 145.939 -345.541 144.483 -342 143 C-339.65 141.689 -337.324 140.356 -335 139 C-327.92 134.923 -320.718 131.489 -313.164 128.395 C-310.27 127.119 -307.693 125.646 -305 124 C-303 123.333 -301 122.667 -299 122 C-296.953 120.974 -294.936 119.909 -292.93 118.805 C-291 118 -291 118 -287 118 C-286.67 117.01 -286.34 116.02 -286 115 C-283.707 113.684 -283.707 113.684 -280.812 112.438 C-279.817 112.006 -278.822 111.574 -277.797 111.129 C-275.748 110.302 -273.663 109.562 -271.562 108.875 C-268.85 107.949 -267.269 106.719 -265 105 C-263.309 104.252 -261.616 103.508 -259.906 102.807 C-257.981 101.992 -256.127 101.095 -254.262 100.152 C-253.912 99.976 -253.912 99.976 -252.145 99.086 C-251.437 98.727 -250.729 98.369 -250 98 C-226.221 86 -226.221 86 -223 86 C-223 85.34 -223 84.68 -223 84 C-220.963 83.012 -218.92 82.035 -216.875 81.062 C-215.738 80.517 -214.601 79.972 -213.43 79.41 C-210.218 78.09 -207.433 77.412 -204 77 C-204 76.34 -204 75.68 -204 75 C-203.085 74.662 -202.17 74.325 -201.227 73.977 C-200.038 73.531 -198.85 73.085 -197.625 72.625 C-197.033 72.405 -197.033 72.405 -194.039 71.289 C-191 70 -191 70 -189 68 C-187.68 68 -186.36 68 -185 68 C-185 67.34 -185 66.68 -185 66 C-184.227 65.685 -183.453 65.371 -182.656 65.047 C-175.461 62.091 -168.412 59.141 -161.812 55 C-158.579 53.103 -155.281 52.11 -151.688 51.062 C-146.726 49.608 -142.365 47.842 -137.809 45.426 C-133.528 43.253 -129.118 41.391 -124.708 39.499 C-121.651 38.182 -118.684 36.836 -115.727 35.301 C-112.602 33.81 -110.42 33.756 -107 34 C-106.67 33.34 -106.34 32.68 -106 32 C-102.957 29.358 -99.794 27.968 -96.062 26.5 C-93.038 25.307 -90.251 24.153 -87.473 22.461 C-84.813 20.89 -82.326 20.024 -79.375 19.125 C-74.277 17.488 -69.506 15.501 -64.664 13.227 C-61.247 11.654 -57.768 10.276 -54.27 8.898 C-50.43 7.379 -46.64 5.752 -42.887 4.031 C-38.341 1.958 -33.822 0.223 -29.055 -1.27 C-27 -2 -27 -2 -23.938 -3.75 C-16.486 -6.921 -7.267 -2.422 0 0 Z M-8 0 C-7.67 0.99 -7.34 1.98 -7 3 C-6.67 2.01 -6.34 1.02 -6 0 C-6.66 0 -7.32 0 -8 0 Z " fill="#FFFFFF" transform="translate(1050,317)"/>
<path d="M0 0 C1.683 -0.003 3.367 -0.007 5.05 -0.01 C8.541 -0.016 12.033 -0.018 15.524 -0.017 C19.951 -0.017 24.378 -0.031 28.805 -0.048 C32.269 -0.059 35.732 -0.061 39.196 -0.061 C40.827 -0.062 42.458 -0.066 44.088 -0.074 C58.689 -0.138 73.048 0.234 86.645 6.168 C86.645 6.828 86.645 7.488 86.645 8.168 C87.635 8.498 88.625 8.828 89.645 9.168 C90.832 11.73 90.832 11.73 91.645 14.168 C92.305 14.168 92.965 14.168 93.645 14.168 C95.135 21.105 94.705 25.664 91.148 31.848 C90.652 32.613 90.156 33.379 89.645 34.168 C89.432 34.499 89.432 34.499 88.359 36.176 C78.161 49.912 51.597 52.785 35.863 56.562 C-3.023 65.915 -3.023 65.915 -21.047 73.266 C-24.093 74.456 -27.208 75.279 -30.355 76.168 C-35.083 77.544 -39.807 78.929 -44.531 80.317 C-46.023 80.754 -47.515 81.192 -49.007 81.628 C-57.005 83.969 -64.984 86.35 -72.93 88.863 C-78.163 90.516 -83.38 92.004 -88.73 93.23 C-93.993 94.478 -98.879 96.075 -103.84 98.227 C-107.97 99.772 -112.256 100.583 -116.57 101.457 C-119.355 102.168 -119.355 102.168 -122.355 104.168 C-124.032 104.519 -125.722 104.804 -127.418 105.043 C-132.33 105.862 -136.58 107.277 -141.148 109.227 C-143.836 110.373 -146.579 111.263 -149.355 112.168 C-150.627 112.666 -151.898 113.166 -153.168 113.668 C-155.886 114.698 -158.311 115.365 -161.191 115.957 C-167.3 117.28 -173.169 119.328 -179.079 121.334 C-181.224 122.062 -183.371 122.784 -185.518 123.505 C-188.57 124.53 -191.621 125.558 -194.671 126.587 C-215.784 133.713 -236.897 140.779 -258.231 147.219 C-261.524 148.219 -264.811 149.236 -268.098 150.258 C-277.818 153.277 -287.528 156.268 -297.355 158.918 C-302.713 160.363 -307.842 162.026 -312.949 164.203 C-317.961 166.213 -323.185 167.628 -328.355 169.168 C-338.606 172.287 -348.751 175.519 -358.777 179.301 C-361.355 180.168 -361.355 180.168 -363.852 180.664 C-367.511 181.4 -370.867 182.798 -374.344 184.133 C-377.28 185.142 -380.227 185.873 -383.242 186.603 C-386.912 187.584 -390.432 188.946 -393.98 190.293 C-395.651 190.917 -397.321 191.541 -398.992 192.164 C-399.863 192.49 -400.733 192.816 -401.63 193.152 C-434.534 205.421 -434.534 205.421 -440.992 206.684 C-444.109 207.322 -446.531 208.701 -449.355 210.168 C-467.079 218.411 -485.691 224.461 -504.355 230.168 C-505.062 230.386 -505.768 230.604 -506.495 230.828 C-509.541 231.74 -512.085 232.214 -515.293 232.418 C-519.695 232.859 -522.017 235.063 -525.344 237.809 C-528.596 240.006 -531.476 239.914 -535.355 240.168 C-537.035 240.802 -538.706 241.461 -540.355 242.168 C-541.345 242.168 -542.335 242.168 -543.355 242.168 C-543.685 242.828 -544.015 243.488 -544.355 244.168 C-546.258 245.253 -548.203 246.263 -550.168 247.23 C-551.226 247.758 -552.285 248.285 -553.375 248.828 C-555.785 249.912 -557.811 250.584 -560.355 251.168 C-562.115 251.832 -563.865 252.52 -565.605 253.23 C-566.497 253.593 -567.39 253.955 -568.309 254.328 C-568.984 254.605 -569.66 254.882 -570.355 255.168 C-570.685 254.508 -571.015 253.848 -571.355 253.168 C-576.906 254.682 -576.906 254.682 -579.121 257.078 C-581.977 259.749 -584.661 260.615 -588.355 261.855 C-589.572 262.272 -590.789 262.688 -592.043 263.117 C-593.892 263.704 -595.752 264.261 -597.641 264.703 C-599.355 265.168 -599.355 265.168 -601.793 266.918 C-606.227 269.984 -611.304 271.54 -616.326 273.402 C-622.801 275.845 -629.204 278.481 -635.622 281.068 C-637.473 281.813 -639.326 282.555 -641.179 283.295 C-651.324 287.347 -661.289 291.468 -671 296.48 C-680.545 301.281 -690.454 305.294 -700.453 309.039 C-703.104 310.07 -705.658 311.208 -708.23 312.418 C-711.974 314.134 -715.26 314.819 -719.355 315.168 C-719.355 315.828 -719.355 316.488 -719.355 317.168 C-720.216 317.442 -721.076 317.716 -721.963 317.998 C-725.279 319.142 -728.433 320.455 -731.637 321.883 C-732.223 322.144 -732.223 322.144 -735.188 323.463 C-735.79 323.733 -736.393 324.003 -737.014 324.281 C-738.849 325.103 -740.686 325.92 -742.523 326.736 C-751.693 330.827 -751.693 330.827 -755.568 332.823 C-758.355 334.168 -758.355 334.168 -761.23 334.543 C-764.874 335.272 -767.111 336.725 -770.133 338.816 C-772.447 340.224 -774.826 341.215 -777.323 342.252 C-781.471 344.12 -785.389 346.448 -789.355 348.668 C-800.059 354.591 -810.998 359.905 -822.073 365.09 C-824.857 366.405 -827.609 367.776 -830.355 369.168 C-830.999 369.484 -831.642 369.8 -832.305 370.125 C-836.236 372.06 -840.084 374.109 -843.918 376.23 C-846.837 377.836 -849.663 379.299 -852.73 380.605 C-857.334 382.59 -861.659 384.995 -866.062 387.387 C-868.981 388.965 -871.905 390.526 -874.855 392.043 C-875.232 392.238 -875.232 392.238 -877.137 393.223 C-879.529 394.242 -881.796 394.744 -884.355 395.168 C-884.355 395.828 -884.355 396.488 -884.355 397.168 C-886.84 398.859 -886.84 398.859 -890.105 400.73 C-891.173 401.351 -892.24 401.971 -893.34 402.609 C-895.811 403.887 -897.705 404.538 -900.355 405.168 C-902.728 407.29 -904.824 409.515 -906.832 411.984 C-909.772 415.596 -911.755 417.8 -916.355 419.168 C-917.345 419.828 -918.335 420.488 -919.355 421.168 C-920.675 421.168 -921.995 421.168 -923.355 421.168 C-923.355 421.828 -923.355 422.488 -923.355 423.168 C-927.23 422.293 -927.23 422.293 -928.355 421.168 C-930.688 421.127 -933.023 421.126 -935.355 421.168 C-936.418 419.293 -936.418 419.293 -937.355 417.168 C-937.025 416.508 -936.695 415.848 -936.355 415.168 C-937.675 415.498 -938.995 415.828 -940.355 416.168 C-940.355 415.508 -940.355 414.848 -940.355 414.168 C-941.345 414.168 -942.335 414.168 -943.355 414.168 C-942.744 410.497 -942.077 406.89 -939.355 404.168 C-939.52 403.673 -939.52 403.673 -940.355 401.168 C-941.015 401.168 -941.675 401.168 -942.355 401.168 C-941.975 398.765 -941.749 397.505 -939.867 395.895 C-939.566 395.713 -939.566 395.713 -938.043 394.793 C-935.399 393.054 -933.715 391.548 -932.043 388.855 C-931.486 387.969 -930.929 387.082 -930.355 386.168 C-929.695 386.168 -929.035 386.168 -928.355 386.168 C-928.025 385.178 -927.695 384.188 -927.355 383.168 C-925.799 382.052 -925.799 382.052 -923.77 381.004 C-923.013 380.609 -922.257 380.214 -921.478 379.806 C-920.654 379.389 -919.83 378.973 -918.98 378.543 C-918.13 378.103 -917.279 377.664 -916.403 377.211 C-909.775 373.814 -903.051 370.639 -896.296 367.505 C-890.267 364.677 -884.49 361.515 -878.719 358.2 C-873.2 355.04 -867.653 352.466 -861.746 350.141 C-854.669 347.3 -848.029 343.97 -841.406 340.202 C-836.971 337.752 -833.419 336.565 -828.355 336.168 C-828.355 335.508 -828.355 334.848 -828.355 334.168 C-823.605 333.043 -823.605 333.043 -821.355 334.168 C-820.695 333.508 -820.035 332.848 -819.355 332.168 C-819.685 331.508 -820.015 330.848 -820.355 330.168 C-819.262 330.065 -818.169 329.962 -817.043 329.855 C-813.355 329.168 -813.355 329.168 -812.07 327.852 C-809.528 325.356 -806.409 324.064 -803.23 322.543 C-797.354 319.675 -791.552 316.703 -785.793 313.605 C-779.837 310.418 -773.823 307.432 -767.677 304.63 C-763.753 302.839 -759.925 300.919 -756.105 298.918 C-751.444 296.553 -746.911 295.005 -741.828 293.809 C-737.94 292.801 -734.815 291.478 -731.48 289.23 C-726.185 285.735 -721.767 283.699 -715.355 284.168 C-715.355 283.508 -715.355 282.848 -715.355 282.168 C-707.76 278.079 -700.35 274.957 -691.793 273.605 C-690.989 273.461 -690.184 273.317 -689.355 273.168 C-689.025 272.508 -688.695 271.848 -688.355 271.168 C-686.242 270.071 -686.242 270.071 -683.473 268.891 C-682.47 268.459 -681.467 268.028 -680.434 267.584 C-679.377 267.137 -678.32 266.691 -677.23 266.23 C-676.197 265.788 -675.163 265.345 -674.098 264.889 C-671.186 263.643 -668.271 262.405 -665.355 261.168 C-661.912 259.697 -658.471 258.218 -655.031 256.738 C-636.833 248.918 -636.833 248.918 -628.625 245.699 C-617.485 241.323 -617.485 241.323 -612.48 238.668 C-607.421 236.037 -602.141 234.25 -596.759 232.407 C-591.397 230.565 -586.171 228.505 -580.969 226.246 C-578.355 225.168 -578.355 225.168 -575.523 224.277 C-573.013 223.398 -570.87 222.458 -568.523 221.246 C-564.35 219.106 -560.09 217.467 -555.668 215.918 C-554.935 215.65 -554.202 215.382 -553.447 215.105 C-549.631 213.756 -546.466 212.811 -542.355 213.168 C-542.025 212.508 -541.695 211.848 -541.355 211.168 C-539.361 210.805 -537.359 210.476 -535.355 210.168 C-533.678 209.529 -532.01 208.865 -530.355 208.168 C-529.733 208.03 -529.11 207.892 -528.469 207.75 C-526.092 207.095 -524.291 206.105 -522.168 204.855 C-515.013 200.811 -508.478 197.909 -500.324 196.562 C-498.355 196.168 -498.355 196.168 -497.355 195.168 C-495.356 195.127 -493.355 195.125 -491.355 195.168 C-491.025 194.508 -490.695 193.848 -490.355 193.168 C-489.695 193.498 -489.035 193.828 -488.355 194.168 C-488.355 193.508 -488.355 192.848 -488.355 192.168 C-486.375 191.508 -484.395 190.848 -482.355 190.168 C-482.355 189.838 -482.355 189.508 -482.355 189.168 C-482.047 189.119 -482.047 189.119 -480.484 188.871 C-475.174 187.933 -470.657 186.566 -465.797 184.254 C-454.363 179.168 -454.363 179.168 -449.355 179.168 C-449.355 178.508 -449.355 177.848 -449.355 177.168 C-446.347 175.801 -443.912 175.109 -440.605 174.668 C-439.533 174.503 -438.46 174.338 -437.355 174.168 C-437.025 173.508 -436.695 172.848 -436.355 172.168 C-430.839 170.645 -425.075 169.859 -419.355 170.168 C-419.025 168.848 -418.695 167.528 -418.355 166.168 C-418.042 166.149 -418.042 166.149 -416.457 166.055 C-415.64 165.989 -414.822 165.923 -413.98 165.855 C-413.574 165.826 -413.574 165.826 -411.52 165.68 C-409.355 165.168 -409.355 165.168 -407.355 162.168 C-405.083 161.123 -402.895 160.244 -400.543 159.418 C-399.849 159.168 -399.155 158.919 -398.439 158.662 C-396.913 158.117 -395.384 157.579 -393.853 157.044 C-391.197 156.112 -388.552 155.149 -385.906 154.188 C-384.057 153.533 -382.206 152.881 -380.355 152.23 C-379.92 152.071 -379.92 152.071 -377.716 151.265 C-372.088 149.334 -368.2 148.971 -362.355 150.168 C-362.025 148.848 -361.695 147.528 -361.355 146.168 C-360.2 145.9 -359.045 145.632 -357.855 145.355 C-354.218 144.451 -350.796 143.25 -347.305 141.898 C-342.89 140.244 -339.078 139.168 -334.355 139.168 C-334.355 138.508 -334.355 137.848 -334.355 137.168 C-333.613 137.23 -332.87 137.292 -332.105 137.355 C-328.797 137.13 -327.951 136.138 -325.355 134.168 C-323.111 133.128 -323.111 133.128 -320.629 132.188 C-319.694 131.832 -318.758 131.477 -317.794 131.111 C-316.783 130.738 -315.772 130.365 -314.73 129.98 C-313.667 129.585 -312.603 129.19 -311.506 128.783 C-300.76 124.854 -289.867 121.483 -278.902 118.226 C-275.733 117.28 -272.568 116.324 -269.404 115.361 C-266.695 114.536 -263.985 113.714 -261.274 112.894 C-259.347 112.309 -257.419 111.723 -255.492 111.137 C-249.833 109.434 -244.244 107.787 -238.42 106.753 C-235.538 105.936 -233.031 104.509 -230.355 103.168 C-228.116 102.336 -225.861 101.547 -223.594 100.793 C-222.962 100.582 -222.331 100.372 -221.681 100.155 C-220.351 99.712 -219.021 99.272 -217.69 98.834 C-215.689 98.175 -213.691 97.508 -211.693 96.84 C-205.09 94.644 -198.476 92.566 -191.742 90.801 C-187.581 89.697 -183.468 88.437 -179.355 87.168 C-178.283 86.838 -177.21 86.508 -176.105 86.168 C-173.355 85.168 -173.355 85.168 -170.586 83.723 C-167.372 82.176 -164.36 81.209 -160.918 80.293 C-151.834 77.779 -142.915 74.821 -134.051 71.621 C-126.72 68.979 -119.515 66.575 -111.91 64.812 C-109.644 64.241 -107.58 63.543 -105.418 62.668 C-102.056 61.32 -98.71 60.547 -95.168 59.793 C-87.621 58.135 -80.278 55.629 -73.355 52.168 C-71.356 52.128 -69.355 52.125 -67.355 52.168 C-67.355 51.508 -67.355 50.848 -67.355 50.168 C-58.417 47.107 -49.442 44.24 -40.378 41.576 C-31.33 38.903 -22.347 36.022 -13.355 33.168 C-19.402 33.024 -25.449 32.881 -31.495 32.741 C-33.547 32.693 -35.599 32.644 -37.651 32.595 C-58.559 32.096 -58.559 32.096 -67.085 32.199 C-69.396 32.167 -71.626 31.958 -73.918 31.668 C-80.849 30.797 -87.717 30.986 -94.66 31.641 C-104.382 32.411 -114.127 32.497 -123.875 32.671 C-127.216 32.73 -130.557 32.795 -133.898 32.861 C-144.103 33.057 -154.3 33.225 -164.506 33.128 C-167.055 33.164 -169.461 33.367 -171.98 33.73 C-175.284 34.159 -177.155 33.854 -180.355 33.168 C-189.2 32.783 -189.2 32.783 -193.355 34.168 C-196.36 34.383 -199.347 34.546 -202.355 34.668 C-203.267 34.708 -204.179 34.748 -205.119 34.789 C-208.198 34.921 -211.276 35.045 -214.355 35.168 C-214.923 35.191 -214.923 35.191 -217.793 35.309 C-221.335 35.453 -224.876 35.593 -228.418 35.73 C-228.97 35.752 -228.97 35.752 -231.764 35.863 C-238.133 36.1 -244.482 36.198 -250.856 36.128 C-253.355 36.168 -253.355 36.168 -256.73 36.73 C-261.41 37.295 -265.792 36.754 -270.465 36.227 C-273.81 36.176 -276.35 36.482 -279.59 37.137 C-285.407 38.291 -290.944 38.362 -296.855 38.23 C-302.36 38.13 -307.781 38.048 -313.262 38.629 C-321.321 39.448 -329.419 39.501 -337.513 39.671 C-340.321 39.73 -343.129 39.795 -345.938 39.861 C-355.63 40.081 -365.313 40.188 -375.008 40.156 C-380.411 40.146 -385.777 40.297 -391.168 40.668 C-412.768 41.962 -412.768 41.962 -416.355 40.168 C-417.694 40.479 -419.027 40.815 -420.355 41.168 C-421.738 41.235 -423.124 41.253 -424.508 41.23 C-425.284 41.223 -426.061 41.215 -426.861 41.207 C-428.479 41.181 -430.096 41.155 -431.713 41.129 C-432.491 41.121 -433.269 41.113 -434.07 41.105 C-434.422 41.1 -434.422 41.1 -436.199 41.07 C-438.355 41.168 -438.355 41.168 -440.731 41.659 C-443.739 42.242 -446.56 42.33 -449.625 42.379 C-450.967 42.405 -452.308 42.432 -453.65 42.459 C-454.014 42.466 -454.014 42.466 -455.858 42.5 C-470.251 42.77 -484.631 43.279 -499.012 43.898 C-499.792 43.932 -500.572 43.965 -501.376 44 C-508.538 44.307 -515.699 44.618 -522.86 44.943 C-541.371 45.783 -559.819 46.411 -578.355 46.168 C-578.222 47.314 -578.089 48.46 -577.952 49.64 C-576.933 58.452 -576.027 67.271 -575.23 76.105 C-575.143 77.039 -575.055 77.972 -574.965 78.934 C-574.567 83.468 -574.318 87.935 -574.363 92.488 C-574.431 100.254 -573.689 107.962 -573.066 115.697 C-572.573 122.125 -572.316 128.461 -572.374 134.906 C-572.339 141.031 -571.963 147.144 -571.611 153.258 C-571.481 155.532 -571.361 157.807 -571.242 160.082 C-570.795 168.185 -570.068 176.093 -568.717 184.103 C-568.155 188.866 -568.642 193.444 -569.355 198.168 C-570.015 198.168 -570.675 198.168 -571.355 198.168 C-571.149 199.24 -570.943 200.313 -570.73 201.418 C-570.335 205.377 -570.591 205.901 -572.355 209.168 C-573.074 211.483 -573.735 213.808 -574.379 216.145 C-575.599 218.673 -576.784 219.184 -579.355 220.168 C-579.355 220.828 -579.355 221.488 -579.355 222.168 C-584.43 222.058 -588.301 221.793 -592.73 219.168 C-598.994 212.01 -599.962 204.407 -600.821 195.213 C-601.244 190.971 -601.841 186.773 -602.479 182.559 C-604.071 171.875 -604.775 161.433 -604.838 150.642 C-604.87 145.686 -604.954 140.73 -605.039 135.773 C-605.058 134.674 -605.077 133.574 -605.096 132.442 C-605.425 115.363 -606.204 98.297 -606.918 81.23 C-606.989 79.525 -607.06 77.819 -607.131 76.113 C-607.533 66.465 -607.942 56.816 -608.355 47.168 C-608.698 47.169 -608.698 47.169 -610.43 47.176 C-627.399 47.244 -644.368 47.293 -661.337 47.323 C-669.544 47.339 -677.752 47.359 -685.959 47.394 C-723.968 47.553 -761.736 47.11 -799.682 44.683 C-812.474 43.88 -825.281 43.558 -838.095 43.326 C-840.355 43.168 -840.355 43.168 -842.355 42.168 C-844.233 42.108 -846.113 42.111 -847.992 42.141 C-857.667 42.201 -867.328 42.008 -876.998 41.698 C-879.12 41.636 -881.242 41.587 -883.365 41.551 C-886.474 41.495 -889.58 41.397 -892.688 41.289 C-893.625 41.281 -894.563 41.274 -895.529 41.266 C-902.679 40.95 -907.482 38.477 -912.355 33.168 C-913.043 29.918 -913.043 29.918 -912.355 27.168 C-911.695 26.178 -911.035 25.188 -910.355 24.168 C-909.695 24.168 -909.035 24.168 -908.355 24.168 C-908.325 23.89 -908.325 23.89 -908.168 22.48 C-906.896 18.86 -905.461 17.482 -902.355 15.168 C-897.418 13.869 -892.46 13.168 -887.355 13.168 C-887.355 13.828 -887.355 14.488 -887.355 15.168 C-886.617 15.035 -885.878 14.902 -885.117 14.766 C-874.843 12.977 -865.454 11.943 -855.051 12.914 C-850.765 13.209 -846.524 13.206 -842.23 13.168 C-835.507 13.119 -828.82 13.252 -822.105 13.605 C-821.719 13.625 -821.719 13.625 -819.761 13.725 C-816.336 13.919 -813.03 14.217 -809.633 14.734 C-806.58 15.138 -804.198 15.081 -801.168 14.668 C-794.28 13.927 -787.403 14.275 -780.629 15.77 C-778.355 16.168 -778.355 16.168 -776.355 15.168 C-774.12 15.431 -771.892 15.756 -769.668 16.105 C-761.601 17.265 -753.653 17.319 -745.515 17.181 C-740.325 17.106 -735.366 17.275 -730.228 18.045 C-728.355 18.168 -728.355 18.168 -725.355 17.168 C-723.731 17.078 -722.104 17.046 -720.477 17.048 C-719.472 17.046 -718.466 17.045 -717.43 17.044 C-716.328 17.047 -715.226 17.051 -714.091 17.054 C-713.511 17.054 -713.511 17.054 -710.573 17.054 C-706.725 17.055 -702.878 17.062 -699.031 17.07 C-696.368 17.072 -693.704 17.074 -691.04 17.075 C-684.74 17.078 -678.439 17.086 -672.139 17.096 C-664.966 17.107 -657.793 17.113 -650.62 17.118 C-635.865 17.128 -621.11 17.146 -606.355 17.168 C-606.069 16.575 -605.783 15.982 -605.488 15.371 C-604.001 12.479 -602.186 9.853 -600.355 7.168 C-599.035 7.333 -599.035 7.333 -592.355 8.168 C-592.025 7.508 -591.695 6.848 -591.355 6.168 C-591.077 6.24 -591.077 6.24 -589.668 6.605 C-588.072 6.994 -586.466 7.346 -584.855 7.668 C-584.443 7.75 -584.443 7.75 -582.355 8.168 C-581.695 8.25 -581.035 8.333 -580.355 8.418 C-577.253 9.581 -575.509 11.715 -573.355 14.168 C-573.355 14.828 -573.355 15.488 -573.355 16.168 C-571.001 16.196 -568.647 16.215 -566.293 16.23 C-565.637 16.236 -565.637 16.236 -562.32 16.266 C-558.34 16.236 -554.396 15.983 -550.426 15.699 C-542.491 15.142 -534.563 14.869 -526.612 14.665 C-524.291 14.605 -521.971 14.54 -519.65 14.475 C-511.583 14.254 -503.53 14.127 -495.459 14.201 C-492.114 14.165 -488.814 13.939 -485.48 13.668 C-475.452 12.954 -465.409 13.117 -455.362 13.205 C-455.019 13.207 -455.019 13.207 -453.282 13.218 C-451.39 13.23 -449.498 13.248 -447.607 13.266 C-444.355 13.168 -444.355 13.168 -442.226 12.686 C-438.214 11.962 -434.242 11.895 -430.173 11.779 C-429.714 11.764 -429.714 11.764 -427.391 11.69 C-424.352 11.594 -421.313 11.504 -418.273 11.414 C-416.141 11.348 -414.008 11.283 -411.876 11.217 C-407.393 11.079 -402.91 10.944 -398.427 10.811 C-392.751 10.642 -387.076 10.467 -381.4 10.29 C-376.984 10.152 -372.568 10.018 -368.152 9.886 C-366.064 9.822 -363.977 9.758 -361.889 9.693 C-349.79 9.317 -337.709 9.129 -325.604 9.166 C-318.619 9.183 -311.658 9.065 -304.68 8.73 C-303.652 8.686 -302.625 8.642 -301.566 8.596 C-298.391 8.458 -295.217 8.314 -292.043 8.168 C-288.822 8.023 -285.602 7.88 -282.381 7.74 C-280.406 7.654 -278.431 7.565 -276.457 7.473 C-271.829 7.268 -267.219 7.15 -262.586 7.17 C-258.602 7.187 -254.687 7.043 -250.715 6.699 C-243.421 6.135 -236.136 5.9 -228.826 5.722 C-224.992 5.629 -221.158 5.525 -217.324 5.422 C-216.56 5.401 -215.796 5.381 -215.009 5.36 C-208.039 5.169 -201.073 4.896 -194.105 4.605 C-186.267 4.28 -178.474 4.129 -170.629 4.199 C-167.304 4.167 -164.043 3.946 -160.73 3.668 C-153.865 3.106 -147.048 3.105 -140.166 3.205 C-135.579 3.251 -131.095 3.095 -126.527 2.668 C-120.082 2.08 -113.697 2.091 -107.23 2.168 C-105.02 2.193 -102.809 2.214 -100.598 2.23 C-99.637 2.242 -98.677 2.254 -97.687 2.266 C-95.355 2.168 -95.355 2.168 -93.355 1.168 C-93.067 1.25 -93.067 1.25 -91.605 1.668 C-89.355 2.168 -89.355 2.168 -86.543 1.668 C-82.906 1.097 -79.982 1.64 -76.355 2.168 C-75.609 2.015 -74.863 1.861 -74.094 1.703 C-70.71 1.042 -67.546 1.074 -64.098 1.105 C-63.395 1.109 -62.693 1.113 -61.969 1.117 C-58.993 1.133 -56.017 1.161 -53.041 1.188 C-44.815 1.259 -36.645 1.177 -28.433 0.675 C-18.95 0.139 -9.496 0.004 0 0 Z M-420.355 172.168 C-419.355 174.168 -419.355 174.168 -419.355 174.168 Z M-572.355 174.168 C-571.355 177.168 -571.355 177.168 -571.355 177.168 Z M-939.355 406.168 C-939.685 407.158 -940.015 408.148 -940.355 409.168 C-937.715 409.498 -935.075 409.828 -932.355 410.168 C-931.365 408.848 -930.375 407.528 -929.355 406.168 C-932.655 406.168 -935.955 406.168 -939.355 406.168 Z " fill="#FFFFFF" transform="translate(975.35546875,194.83203125)"/>
<path d="M0 0 C2 1 2 1 2 1 Z " fill="#FFFFFF" transform="translate(379,199)"/>
<path d="" fill="#FFFFFF" transform="translate(0,0)"/>
<path d="" fill="#FFFFFF" transform="translate(0,0)"/>
<path d="" fill="#FFFFFF" transform="translate(0,0)"/>
<path d="" fill="#FFFFFF" transform="translate(0,0)"/>
<path d="" fill="#FFFFFF" transform="translate(0,0)"/>
</svg>
