<?xml version="1.0" encoding="UTF-8" standalone="no"?>
<!-- Generator: visioncortex VTracer 0.6.12 -->

<svg
   version="1.1"
   width="700"
   height="700"
   id="svg32"
   sodipodi:docname="simplified_signature_black.svg"
   inkscape:export-filename="simplified_signature_black.png"
   inkscape:export-xdpi="96"
   inkscape:export-ydpi="96"
   xmlns:inkscape="http://www.inkscape.org/namespaces/inkscape"
   xmlns:sodipodi="http://sodipodi.sourceforge.net/DTD/sodipodi-0.dtd"
   xmlns="http://www.w3.org/2000/svg"
   xmlns:svg="http://www.w3.org/2000/svg">
  <defs
     id="defs32" />
  <sodipodi:namedview
     id="namedview32"
     pagecolor="#ffffff"
     bordercolor="#999999"
     borderopacity="1"
     inkscape:showpageshadow="2"
     inkscape:pageopacity="0"
     inkscape:pagecheckerboard="0"
     inkscape:deskcolor="#d1d1d1">
    <inkscape:page
       x="0"
       y="0"
       width="700"
       height="700"
       id="page2"
       margin="0"
       bleed="0" />
  </sodipodi:namedview>
  <path
     d="m 61,43 c 2.239,-0.191 4.437,-0.49 6.656,-0.844 C 70,42 70,42 72.661,42.486 c 3.73,0.574 7.348,0.622 11.109,0.576 0.721,-0.003 1.443,-0.007 2.186,-0.011 2.286,-0.012 4.571,-0.031 6.856,-0.051 3.028,-0.027 6.055,-0.047 9.083,-0.062 0.348,-0.005 0.348,-0.005 2.114,-0.026 1.664,-0.008 3.328,0.035 4.991,0.088 0.165,0.165 0.165,0.165 1,1 1.83,-0.096 3.657,-0.255 5.481,-0.434 10.079,-0.791 20.148,-0.677 30.252,-0.641 3.643,0.013 7.287,0.019 10.93,0.024 9.045,0.013 18.09,0.037 27.135,0.061 7.662,0.02 15.323,0.036 22.985,0.046 3.562,0.006 7.125,0.019 10.687,0.032 10.423,0.023 20.751,-0.111 31.147,-0.874 5.009,-0.317 9.978,-0.238 14.992,-0.093 1.036,0.024 2.071,0.047 3.138,0.072 2.201,0.05 4.402,0.103 6.603,0.159 5.839,0.147 11.678,0.273 17.517,0.394 1.18,0.025 2.36,0.049 3.576,0.075 13.662,0.266 27.322,0.235 40.986,0.142 0.868,-0.005 1.737,-0.009 2.632,-0.013 1.597,-0.008 3.194,-0.02 4.791,-0.038 4.505,-0.02 8.72,0.349 13.148,1.088 0,0.99 0,1.98 0,3 0.495,-0.165 0.495,-0.165 3,-1 0,-0.66 0,-1.32 0,-2 5.641,-0.728 11.051,-1.084 16.738,-0.938 C 378,43 378,43 379.855,42.438 382,42 382,42 385.137,42.464 c 3.965,0.55 7.824,0.68 11.816,0.669 0.741,10e-4 1.482,0.002 2.245,0.003 1.56,0 3.12,-0.001 4.679,-0.006 2.353,-0.005 4.704,0 7.057,0.007 7.261,0.002 14.371,-0.178 21.598,-0.95 4.259,-0.323 8.466,0.003 12.718,0.313 5.799,0.415 10.978,0.461 16.75,-0.5 1.853,-0.085 3.708,-0.13 5.562,-0.125 0.889,-0.003 1.777,-0.005 2.692,-0.008 C 473,42 473,42 475.802,42.5 c 3.098,0.484 5.976,0.627 9.108,0.629 0.571,0.002 0.571,0.002 3.459,0.01 0.609,-0.001 0.609,-0.001 3.693,-0.006 1.265,10e-4 2.53,0.002 3.833,0.003 2.669,0 5.339,-0.001 8.008,-0.006 3.41,-0.005 6.819,-0.002 10.228,0.004 3.269,0.004 6.538,10e-4 9.807,-10e-4 1.218,0.002 2.437,0.004 3.693,0.006 1.141,-0.003 2.283,-0.006 3.459,-0.01 0.999,0 1.998,-10e-4 3.027,-0.002 3.031,-0.134 5.893,-0.626 8.883,-1.127 1.892,-0.086 3.785,-0.128 5.679,-0.129 0.546,-0.002 0.546,-0.002 3.308,-0.01 0.583,0.001 0.583,0.001 3.533,0.006 1.213,-10e-4 2.426,-0.002 3.676,-0.003 2.562,0 5.125,0.001 7.688,0.006 3.904,0.005 7.808,0 11.712,-0.007 2.495,10e-4 4.991,0.002 7.486,0.004 0.58,-10e-4 0.58,-10e-4 3.514,-0.006 17.597,0.05 17.597,0.05 22.904,3.451 3.025,1.841 5.981,3.386 9.25,4.75 3.553,1.537 6.437,3.216 9.25,5.938 0,0.66 0,1.32 0,2 -2.31,-0.33 -4.62,-0.66 -7,-1 0,1.32 0,2.64 0,4 1.279,0.227 2.558,0.454 3.875,0.688 2.211,0.535 2.211,0.535 4.125,1.312 1.5,2.625 1.5,2.625 2,5 -0.33,0.33 -0.66,0.66 -1,1 0.516,0.371 1.031,0.743 1.562,1.125 C 636,72 636,72 635.875,74.812 c -1.789,6.517 -5.184,11.09 -9.563,16.063 -0.266,0.307 -0.266,0.307 -1.617,1.859 C 618.93,99.308 612.972,105.688 606,111 c -0.66,0 -1.32,0 -2,0 -0.204,0.54 -0.407,1.08 -0.617,1.637 -1.941,3.317 -4.673,5.64 -7.508,8.175 -0.585,0.532 -1.169,1.063 -1.771,1.61 -3.729,3.378 -7.493,6.716 -11.323,9.98 -2.352,2.11 -4.549,4.362 -6.781,6.598 -1.883,1.784 -3.779,3.555 -5.688,5.312 -0.952,0.884 -1.905,1.767 -2.886,2.676 C 565,149 565,149 563,149 c -0.247,0.743 -0.495,1.485 -0.75,2.25 -1.364,3 -2.709,4.671 -5.25,6.75 -0.99,0 -1.98,0 -3,0 -0.132,0.302 -0.132,0.302 -0.801,1.828 -1.257,2.276 -2.353,3.34 -4.387,4.922 -3.527,2.879 -6.361,6.09 -9.234,9.613 C 538,176 538,176 535,177 c 0,0.66 0,1.32 0,2 -0.66,0 -1.32,0 -2,0 0,0.66 0,1.32 0,2 -0.66,0 -1.32,0 -2,0 0,0.66 0,1.32 0,2 -0.66,0 -1.32,0 -2,0 -0.265,0.601 -0.53,1.203 -0.803,1.823 -1.244,2.263 -2.356,3.407 -4.349,5.017 -0.612,0.506 -1.224,1.012 -1.854,1.533 -1.283,1.04 -2.567,2.079 -3.851,3.117 -3.527,2.919 -5.944,5.423 -8.143,9.51 -4.432,4 -4.432,4 -7,4 -0.206,0.577 -0.413,1.155 -0.625,1.75 -1.86,3.044 -4.431,4.287 -7.375,6.25 -0.699,1.316 -1.367,2.65 -2,4 -1.636,1.371 -3.307,2.701 -5,4 -2.523,2.46 -4.978,4.977 -7.438,7.5 -2.733,2.667 -5.629,5.056 -8.562,7.5 -1.687,1.646 -3.355,3.312 -5,5 -1.667,1.667 -3.333,3.333 -5,5 -0.305,0.311 -0.305,0.311 -1.848,1.883 -3.723,3.773 -7.511,7.349 -11.57,10.758 -2.962,2.545 -5.638,5.375 -8.34,8.191 -0.616,0.633 -1.232,1.266 -1.867,1.918 -0.57,0.593 -1.14,1.186 -1.727,1.797 C 435,275 435,275 432,276 c -1.718,1.976 -3.367,3.958 -5,6 -1.687,1.875 -1.687,1.875 -3,3 -0.66,0 -1.32,0 -2,0 0,0.66 0,1.32 0,2 -0.66,0 -1.32,0 -2,0 0,0.66 0,1.32 0,2 -1.504,1.48 -1.504,1.48 -3.562,3.188 -3.548,2.999 -6.803,6.152 -9.993,9.527 C 405,303 405,303 403,303 c 0,0.66 0,1.32 0,2 -1.426,1.402 -1.426,1.402 -3.312,2.938 -1.865,1.528 -3.632,3.003 -5.293,4.753 C 393,314 393,314 391,314 c -0.268,0.598 -0.536,1.196 -0.812,1.812 -1.187,2.186 -2.284,3.601 -4.188,5.188 -0.66,0 -1.32,0 -2,0 0,0.66 0,1.32 0,2 -1.44,1.206 -2.885,2.406 -4.355,3.574 C 378,328 378,328 375.5,331.062 c -2.602,3.058 -5.146,4.772 -8.5,6.938 -1.708,1.624 -3.376,3.292 -5,5 -3.392,3.555 -6.855,6.431 -10.875,9.25 -4.721,3.474 -8.271,6.913 -11.625,11.707 -1.661,2.263 -3.411,4.169 -5.5,6.043 -0.66,0 -1.32,0 -2,0 0,0.66 0,1.32 0,2 -0.619,0.082 -1.238,0.165 -1.875,0.25 -0.701,0.248 -1.402,0.495 -2.125,0.75 -0.134,0.289 -0.134,0.289 -0.812,1.75 -1.302,2.465 -2.226,3.105 -4.5,4.625 -2.541,1.708 -4.467,3.355 -6.376,5.75 -1.995,2.481 -3.627,4.208 -6.312,5.875 -0.66,0 -1.32,0 -2,0 -0.271,0.585 -0.541,1.17 -0.82,1.773 -1.171,2.211 -2.438,3.95 -4.055,5.852 -0.492,0.59 -0.985,1.181 -1.492,1.789 -1.765,1.714 -3.43,2.524 -5.633,3.586 -0.825,0.825 -1.65,1.65 -2.5,2.5 -2.5,2.5 -2.5,2.5 -4.688,3.562 -2.387,1.236 -2.648,2.542 -3.812,4.938 -4.17,4.375 -8.647,8.439 -13.062,12.562 -5.253,4.919 -10.444,9.88 -15.5,15 C 244.684,454.439 244.684,454.439 240,456 c -0.284,0.579 -0.567,1.158 -0.859,1.754 -1.573,3.097 -3.799,4.885 -6.391,7.184 -0.497,0.443 -0.993,0.887 -1.505,1.344 -2.47,2.199 -4.975,4.34 -7.557,6.406 -2.163,1.86 -3.821,3.577 -5.626,5.75 -3.65,4.39 -7.563,8.729 -13.062,10.562 -0.639,0.969 -1.279,1.939 -1.938,2.938 -2.062,3.062 -2.062,3.062 -3.968,4 -2.573,1.305 -3.846,2.893 -5.656,5.124 -3.108,3.828 -3.108,3.828 -6.438,4.938 0,0.66 0,1.32 0,2 -5.412,4 -5.412,4 -8,4 -0.33,0.99 -0.66,1.98 -1,3 -0.99,0.66 -1.98,1.32 -3,2 -0.412,0.763 -0.825,1.526 -1.25,2.312 -2.005,3.08 -4.054,4.428 -7.059,6.442 -2.355,1.735 -3.896,3.947 -5.691,6.246 -1.717,1.56 -3.488,3.042 -5.27,4.527 -2.381,2.027 -4.548,4.234 -6.73,6.473 -3.505,3.595 -7.039,6.919 -11,10 -0.66,0 -1.32,0 -2,0 0,0.66 0,1.32 0,2 -0.99,0.66 -1.98,1.32 -3,2 -0.33,0.99 -0.66,1.98 -1,3 -1.391,1.402 -1.391,1.402 -3.25,2.938 -2.766,2.333 -5.465,4.71 -8.102,7.187 -0.581,0.545 -1.162,1.091 -1.76,1.653 -1.168,1.099 -2.333,2.203 -3.494,3.31 C 111.22,579 111.22,579 109,579 c -0.33,0.99 -0.66,1.98 -1,3 -0.66,0 -1.32,0 -2,0 -0.33,0.99 -0.66,1.98 -1,3 -1.707,1.754 -1.707,1.754 -3.812,3.562 -0.688,0.6 -1.375,1.199 -2.083,1.817 C 97,592 97,592 94.797,593.098 93,594 93,594 92.062,595.875 90.614,598.771 88.625,600.163 86,602 c -0.66,0 -1.32,0 -2,0 -0.251,0.589 -0.503,1.178 -0.762,1.785 -1.393,2.491 -2.859,3.838 -5.05,5.653 -2.374,2.005 -4.612,3.986 -6.813,6.187 -2.677,2.677 -5.386,5.05 -8.375,7.375 -0.66,0 -1.32,0 -2,0 0,0.66 0,1.32 0,2 -0.557,0.052 -0.557,0.052 -3.375,0.312 -1.196,0.227 -2.392,0.454 -3.625,0.688 -0.66,0.99 -1.32,1.98 -2,3 -7.915,1.532 -7.915,1.532 -12,0 -1.033,-2.788 -1.045,-3.868 -0.062,-6.75 0.35,-0.742 0.701,-1.485 1.062,-2.25 -1.32,0 -2.64,0 -4,0 -0.33,0.66 -0.66,1.32 -1,2 -0.66,0 -1.32,0 -2,0 -0.33,1.32 -0.66,2.64 -1,4 -0.33,-0.99 -0.33,-0.99 -2,-6 -1.32,0.33 -2.64,0.66 -4,1 -0.165,-0.495 -0.165,-0.495 -1,-3 -1.32,0.33 -2.64,0.66 -4,1 0,-1.32 0,-2.64 0,-4 -1,-3 -1,-3 -4,-5 -1.242,-4.002 -1.651,-8.22 -0.199,-12.191 0.712,-1.324 1.452,-2.633 2.219,-3.926 1.463,-2.81 1.553,-5.772 1.98,-8.883 1.5,-1.75 1.5,-1.75 3,-3 0.33,-0.99 0.66,-1.98 1,-3 0.969,-0.309 1.939,-0.619 2.938,-0.938 C 32,577 32,577 33.125,575.25 33.414,574.508 33.703,573.765 34,573 36.901,567.561 40.601,564.942 45.758,561.613 48,560 48,560 50,557 c 0.66,0 1.32,0 2,0 0.134,-0.309 0.134,-0.309 0.812,-1.875 C 54,553 54,553 57,551 c 1.688,-1.5 1.688,-1.5 3,-3 0,-0.66 0,-1.32 0,-2 2.676,-3.211 5.614,-4.897 9.266,-6.855 1.894,-1.251 3.037,-2.543 4.422,-4.333 C 76,532 76,532 78.312,531.125 78.591,531.104 78.591,531.104 80,531 c 0,-0.99 0,-1.98 0,-3 1.645,-1.5 1.645,-1.5 3.812,-3 2.114,-1.478 4.027,-2.834 5.825,-4.688 C 91,519 91,519 93,519 c -0.063,-0.588 -0.127,-1.175 -0.192,-1.781 -0.688,-6.587 -1.199,-13.169 -1.558,-19.781 -0.068,-0.977 -0.137,-1.953 -0.207,-2.959 -0.302,-5.779 0.133,-10.253 2.316,-15.638 0.893,-2.567 0.51,-4.307 -0.359,-6.841 -1.063,-3.45 -1.129,-6.633 -1.133,-10.234 -0.001,-1.215 -0.002,-2.429 -0.004,-3.68 0.004,-1.266 0.008,-2.532 0.012,-3.836 -0.004,-1.25 -0.008,-2.501 -0.012,-3.789 0.011,-10.27 0.011,-10.27 0.672,-15.004 0.431,-3.206 0.413,-5.825 0.027,-9.019 C 91.42,415.74 91.42,415.74 93,411 c 0.174,-4.164 -0.089,-8.166 -0.5,-12.312 -0.726,-7.581 -0.67,-14.826 0.273,-22.376 0.4,-4.083 0.503,-8.217 0.227,-12.312 -0.33,-0.33 -0.66,-0.66 -1,-1 -0.048,-2.425 -0.042,-4.827 0,-7.25 0.071,-6.477 -0.231,-12.822 -0.879,-19.273 C 91,334 91,334 92,332 c 0,-1.32 0,-2.64 0,-4 0,-4 0,-4 1,-6 0.138,-4.293 0.116,-7.857 -1,-12 0.33,-0.66 0.66,-1.32 1,-2 -0.66,0 -1.32,0 -2,0 0,-0.66 0,-1.32 0,-2 0.99,0 1.98,0 3,0 -0.329,-0.568 -0.657,-1.137 -0.996,-1.723 -1.101,-2.496 -1.184,-4.013 -1.066,-6.715 C 92.02,294.214 91.843,291.267 91,288 c 0.66,0 1.32,0 2,0 -0.156,-0.615 -0.312,-1.23 -0.473,-1.863 -0.194,-0.809 -0.389,-1.617 -0.589,-2.449 -0.198,-0.801 -0.395,-1.602 -0.598,-2.426 C 91,279 91,279 92,276 c -0.351,-0.99 -0.701,-1.98 -1.062,-3 -0.155,-0.495 -0.155,-0.495 -0.938,-3 0.66,-0.99 1.32,-1.98 2,-3 -0.281,-2.34 -0.625,-4.673 -1,-7 -0.197,-4.234 -0.348,-7.955 1,-12 -0.33,-0.66 -0.66,-1.32 -1,-2 -0.099,-2.925 -0.136,-5.827 -0.129,-8.753 -10e-4,-0.455 -10e-4,-0.455 -0.006,-2.757 -0.004,-3.042 -10e-4,-6.084 0.002,-9.127 0,-2.149 -0.001,-4.298 -0.003,-6.447 -0.001,-4.545 10e-4,-9.091 0.006,-13.637 0.005,-5.674 0.002,-11.347 -0.004,-17.021 C 90.84,158.16 91.221,128.088 92,98 c -0.315,0.015 -0.315,0.015 -1.911,0.09 -2.888,0.135 -5.776,0.269 -8.663,0.402 -0.992,0.047 -1.985,0.093 -3.007,0.142 C 68.501,99.09 58.86,99.315 49,98 c 0,-0.66 0,-1.32 0,-2 -0.547,0.082 -0.547,0.082 -3.312,0.5 C 42,97 42,97 39,97 38.154,97.041 37.309,97.083 36.438,97.125 34,97 34,97 32,95 31.01,94.938 30.02,94.876 29,94.812 22.155,94.038 15.311,88.124 11,83 c 0,-1.32 0,-2.64 0,-4 0.99,-0.66 1.98,-1.32 3,-2 -0.66,-0.99 -1.32,-1.98 -2,-3 0.023,-2.918 0.023,-2.918 0.375,-6.188 0.111,-1.086 0.222,-2.173 0.336,-3.292 0.095,-0.832 0.191,-1.663 0.289,-2.52 0.66,0 1.32,0 2,0 0,0.99 0,1.98 0,3 0.578,-0.144 1.155,-0.289 1.75,-0.438 2.083,-0.52 4.167,-1.041 6.25,-1.562 -0.66,-0.99 -1.32,-1.98 -2,-3 -0.99,0 -1.98,0 -3,0 0,-1.32 0,-2.64 0,-4 -0.33,-0.66 -0.66,-1.32 -1,-2 0.279,-1.677 0.608,-3.346 1,-5 0.99,0 1.98,0 3,0 0.33,-1.65 0.66,-3.3 1,-5 3.01,-0.934 3.867,-1.044 7,0 2.335,-0.321 4.668,-0.656 7,-1 2.674,-0.084 5.324,-0.047 8,0 0,0.99 0,1.98 0,3 0.66,0 1.32,0 2,0 0,-0.66 0,-1.32 0,-2 5.456,-1.467 9.393,-2.051 15,-1 z m 337,2 c 4,1 4,1 4,1 z m 216,3 c 0,0.66 0,1.32 0,2 0.66,0 1.32,0 2,0 0,-0.66 0,-1.32 0,-2 -0.66,0 -1.32,0 -2,0 z m 9,5 c 0.33,0.66 0.66,1.32 1,2 0.66,-0.33 1.32,-0.66 2,-1 -0.99,-0.33 -1.98,-0.66 -3,-1 z M 143,98 c -0.776,2.754 -1.126,5.201 -1.129,8.059 -0.004,0.788 -0.007,1.577 -0.01,2.389 0.002,0.845 0.004,1.689 0.006,2.56 -10e-4,0.88 -0.002,1.761 -0.003,2.668 0,1.865 0.001,3.729 0.006,5.594 0.005,2.824 0,5.648 -0.007,8.472 0.001,1.818 0.002,3.636 0.004,5.453 -0.002,0.833 -0.004,1.666 -0.006,2.524 0.02,5.077 0.367,10.038 0.917,15.084 0.246,2.436 0.323,4.824 0.284,7.271 -0.008,0.891 -0.016,1.782 -0.025,2.699 -0.012,0.962 -0.024,1.924 -0.037,2.915 -0.057,8.758 0.072,17.493 0.356,26.246 0.682,21.114 0.758,42.224 0.767,63.347 0.002,2.521 0.006,5.042 0.01,7.563 0.005,4.027 0.006,8.054 10e-4,12.081 -10e-4,1.5 0,3 0.002,4.501 0.009,7.219 -0.024,14.36 -0.964,21.531 -0.244,2.897 0.169,5.603 0.561,8.471 0.594,5.726 0.409,11.509 0.392,17.26 0.004,1.292 0.008,2.584 0.012,3.916 -0.001,0.624 -0.001,0.624 -0.004,3.783 -0.001,0.563 -0.001,0.563 -0.004,3.413 -0.127,3.147 -0.585,6.102 -1.129,9.2 0.156,2.562 0.156,2.562 0.5,5 0.395,2.798 0.509,4.947 0.039,7.746 -0.685,4.134 -0.687,8.135 -0.664,12.316 0.001,0.85 0.002,1.7 0.004,2.576 0.028,4.532 0.211,8.976 0.683,13.487 0.57,6.245 0.292,12.374 0,18.625 -1.01,21.79 -0.523,43.465 0.438,65.25 0.289,-0.376 0.289,-0.376 1.754,-2.281 1.952,-2.364 3.846,-4.257 6.184,-6.219 3.175,-2.714 6.152,-5.505 9.062,-8.5 2,-2 2,-2 4.438,-2.812 3.229,-1.497 3.793,-3.166 5.562,-6.188 2.5,-1.625 2.5,-1.625 5,-3 0.278,-0.278 0.278,-0.278 1.688,-1.688 0.433,-0.433 0.866,-0.866 1.312,-1.312 0.66,0 1.32,0 2,0 0,-1.65 0,-3.3 0,-5 0.268,-0.124 0.268,-0.124 1.625,-0.75 8.035,-4.229 8.035,-4.229 9.375,-8.25 0.66,0 1.32,0 2,0 0.33,0.66 0.33,0.66 2,4 1.32,-0.99 2.64,-1.98 4,-3 -0.66,-1.98 -1.32,-3.96 -2,-6 0.907,-0.413 1.815,-0.825 2.75,-1.25 3.122,-1.681 5.059,-2.99 7.25,-5.75 0.75,-2.75 0.75,-2.75 1,-5 0.99,0 1.98,0 3,0 0.66,-0.99 1.32,-1.98 2,-3 0.846,-0.495 1.691,-0.99 2.562,-1.5 C 219,401 219,401 220,398 c 0.66,-0.33 1.32,-0.66 2,-1 0.945,-1.059 1.858,-2.147 2.75,-3.25 3.245,-3.85 6.751,-7.101 10.973,-9.887 3.417,-2.261 5.796,-4.36 8.152,-7.738 2.813,-4.005 6.086,-6.628 10,-9.523 2.672,-2.014 4.907,-4.098 7.125,-6.602 0,-0.66 0,-1.32 0,-2 0.66,0 1.32,0 2,0 1.034,-0.964 2.029,-1.972 3,-3 1.284,-1.134 2.576,-2.258 3.875,-3.375 3.935,-3.431 7.756,-6.831 10.934,-10.996 2.298,-2.758 4.694,-4.837 7.503,-7.067 3.233,-2.583 6.417,-5.177 9.5,-7.937 2.21,-1.939 3.752,-2.891 6.5,-4.187 C 307,320 307,320 307.875,317.75 c 1.797,-4.393 5.542,-6.76 9.125,-9.75 3.343,-3.172 6.383,-6.554 9.438,-10 2.574,-2.893 5.094,-5.587 8.124,-8 0.805,-0.66 1.609,-1.32 2.438,-2 0,-0.66 0,-1.32 0,-2 0.557,-0.248 1.114,-0.495 1.688,-0.75 3.786,-2.047 6.778,-4.716 9.812,-7.75 2.5,-2.5 2.5,-2.5 5.312,-4.688 0.722,-0.598 1.444,-1.196 2.188,-1.812 0,-0.66 0,-1.32 0,-2 0.66,0 1.32,0 2,0 2.125,-1.875 2.125,-1.875 4,-4 0,-0.66 0,-1.32 0,-2 0.592,-0.086 1.183,-0.173 1.793,-0.262 2.816,-0.942 3.71,-2.223 5.519,-4.55 2.288,-2.765 4.168,-4.696 7.376,-6.313 3.85,-2.179 4.933,-4.199 7.312,-7.875 7.046,-7.149 7.046,-7.149 12,-8 0.082,-0.598 0.165,-1.196 0.25,-1.812 0.955,-2.787 2.395,-3.517 4.75,-5.188 0,-0.66 0,-1.32 0,-2 0.66,0 1.32,0 2,0 0.619,-0.784 1.238,-1.567 1.875,-2.375 2.059,-2.543 3.217,-3.365 6.125,-4.625 0.66,-0.66 1.32,-1.32 2,-2 0.701,-0.495 1.402,-0.99 2.125,-1.5 0.619,-0.495 1.238,-0.99 1.875,-1.5 0,-0.66 0,-1.32 0,-2 0.577,-0.206 1.155,-0.412 1.75,-0.625 C 421,211 421,211 422.812,208.188 c 2.271,-3.309 4.197,-4.743 7.461,-6.903 2.698,-2.008 4.588,-4.707 6.727,-7.285 2,-1.333 4,-2.667 6,-4 0.885,-1.037 1.739,-2.101 2.562,-3.188 C 448,184 448,184 450.812,183.125 c 0.722,-0.041 1.444,-0.082 2.188,-0.125 0.071,-0.749 0.142,-1.498 0.215,-2.27 1.006,-3.498 2.397,-4.363 5.347,-6.418 1.51,-1.062 2.998,-2.157 4.438,-3.312 0,-0.66 0,-1.32 0,-2 0.66,0 1.32,0 2,0 0,-0.66 0,-1.32 0,-2 0.382,-0.134 0.382,-0.134 2.312,-0.812 2.632,-1.163 3.745,-2.161 5.688,-4.188 2.188,-1.188 2.188,-1.188 4,-2 0,-1.32 0,-2.64 0,-4 0.99,0 1.98,0 3,0 4,-4.343 4,-4.343 4,-7 3.333,-1.667 6.667,-3.333 10,-5 0,-0.99 0,-1.98 0,-3 0.526,-0.082 0.526,-0.082 3.188,-0.5 3.581,-0.971 4.761,-2.466 6.624,-5.625 0.378,-0.724 0.756,-1.449 1.145,-2.195 0.172,-0.277 0.172,-0.277 1.043,-1.68 0.66,0 1.32,0 2,0 0,-0.99 0,-1.98 0,-3 0.66,0 1.32,0 2,0 0.474,-0.474 0.949,-0.949 1.438,-1.438 C 513,125 513,125 516,124 c 0.268,-0.578 0.536,-1.155 0.812,-1.75 2.213,-4.191 6.316,-6.669 10.188,-9.25 0,-0.66 0,-1.32 0,-2 1.98,-0.33 3.96,-0.66 6,-1 0,-1.32 0,-2.64 0,-4 0.66,0 1.32,0 2,0 0,-0.66 0,-1.32 0,-2 0.66,0 1.32,0 2,0 1.625,-1.375 1.625,-1.375 3,-3 0,-0.66 0,-1.32 0,-2 -0.434,0.001 -0.434,0.001 -2.632,0.007 -8.252,0.02 -16.503,0.035 -24.754,0.045 -4.24,0.005 -8.48,0.012 -12.721,0.023 -4.104,0.011 -8.208,0.017 -12.313,0.02 -1.553,0.002 -3.107,0.005 -4.66,0.011 -2.203,0.007 -4.405,0.008 -6.608,0.008 -0.623,10e-4 -0.623,10e-4 -3.775,0.006 -3.815,-0.052 -7.599,-0.336 -11.404,-0.621 -8.866,-0.614 -17.696,-0.625 -26.58,-0.597 -1.801,0.002 -3.601,0.004 -5.402,0.005 -3.846,0.003 -7.693,0.009 -11.54,0.018 -6.096,0.013 -12.192,0.019 -18.288,0.024 C 386.382,97.96 373.441,97.98 360.5,98 c -13.976,0.022 -27.952,0.043 -41.928,0.053 -6.046,0.005 -12.092,0.015 -18.139,0.029 -3.775,0.007 -7.551,0.011 -11.327,0.013 -1.735,0.002 -3.47,0.005 -5.205,0.011 -9.232,0.028 -18.353,-0.15 -27.559,-0.903 -6.018,-0.366 -12.012,-0.036 -18.03,0.235 -2.728,0.106 -5.458,0.204 -8.187,0.3 -0.341,0.012 -0.341,0.012 -2.069,0.074 -17.702,0.601 -35.397,0.29 -53.086,-0.544 -0.551,-0.024 -0.551,-0.024 -3.341,-0.147 -0.969,-0.047 -1.937,-0.094 -2.935,-0.143 C 165.992,97 163.633,97.43 161,98 158.605,97.844 158.605,97.844 156.188,97.5 151.554,96.951 147.594,97.234 143,98 Z M 94,329 c -0.33,0.66 -0.66,1.32 -1,2 0.66,0 1.32,0 2,0 -0.33,-0.66 -0.66,-1.32 -1,-2 z m 89,108 c -0.33,0.66 -0.66,1.32 -1,2 0.99,-0.33 1.98,-0.66 3,-1 -0.66,-0.33 -1.32,-0.66 -2,-1 z M 65,545 c 0.33,0.99 0.66,1.98 1,3 0.33,-0.99 0.66,-1.98 1,-3 -0.66,0 -1.32,0 -2,0 z m 56,18 c -0.66,1.32 -1.32,2.64 -2,4 1.32,-0.99 2.64,-1.98 4,-3 -0.66,-0.33 -1.32,-0.66 -2,-1 z m -9,8 c 1,2 1,2 1,2 z m -37,35 c 0,0.66 0,1.32 0,2 0.66,-0.33 1.32,-0.66 2,-1 -0.66,-0.33 -1.32,-0.66 -2,-1 z m -29,10 c -0.99,0.99 -1.98,1.98 -3,3 0.33,0.66 0.66,1.32 1,2 0.99,-0.33 1.98,-0.66 3,-1 0.33,-0.99 0.66,-1.98 1,-3 -0.66,-0.33 -1.32,-0.66 -2,-1 z"
     fill="#FFFFFF"
     id="path1"
     style="fill:#1a1a1a" />
  <path
     d="m 640,164 c 1.32,0 2.64,0 4,0 0,0.99 0,1.98 0,3 0.227,-0.248 0.227,-0.248 1.375,-1.5 C 647,164 647,164 649,164 c 0.66,0.99 1.32,1.98 2,3 1.32,-0.33 2.64,-0.66 4,-1 0,1.32 0,2.64 0,4 0.825,0.165 0.825,0.165 5,1 0,0.99 0,1.98 0,3 0.66,0.33 1.32,0.66 2,1 -0.33,0.66 -0.66,1.32 -1,2 1.65,0 3.3,0 5,0 -0.66,1.65 -1.32,3.3 -2,5 1.32,-0.33 2.64,-0.66 4,-1 -0.33,2.97 -0.66,5.94 -1,9 0.99,0.33 1.98,0.66 3,1 -1.3,7.997 -3.696,12.469 -9.691,17.898 -2.059,1.874 -3.751,3.756 -5.497,5.914 -3.809,4.465 -8.256,8.139 -12.75,11.888 -3.535,2.953 -6.847,5.993 -10.062,9.3 -2.723,2.777 -5.455,5.545 -8.188,8.312 -0.723,0.741 -1.447,1.482 -2.193,2.245 -0.693,0.699 -1.386,1.398 -2.099,2.119 -0.628,0.638 -1.256,1.277 -1.904,1.935 C 616,252 616,252 614,252 c -0.114,0.282 -0.114,0.282 -0.691,1.707 -1.667,2.92 -3.736,4.75 -6.247,6.981 -0.875,0.787 -1.75,1.575 -2.652,2.386 C 602,265 602,265 599,266 c -0.33,0.99 -0.66,1.98 -1,3 -1.576,1.399 -3.215,2.728 -4.883,4.016 -6.083,4.857 -11.538,10.177 -16.992,15.734 -0.91,0.919 -1.82,1.838 -2.758,2.785 -1.684,1.702 -3.367,3.406 -5.046,5.112 -7.16,7.258 -7.16,7.258 -10.512,10.326 -0.553,0.507 -1.105,1.014 -1.674,1.537 -0.56,0.512 -1.12,1.025 -1.697,1.552 -1.128,1.032 -2.254,2.065 -3.379,3.098 -0.528,0.484 -1.055,0.967 -1.599,1.465 -1.284,1.209 -2.516,2.474 -3.737,3.746 C 544,320 544,320 542,320 c 0,0.66 0,1.32 0,2 -1.504,1.516 -1.504,1.516 -3.562,3.25 -0.73,0.621 -1.46,1.243 -2.211,1.883 -0.735,0.616 -1.47,1.232 -2.227,1.867 -6.526,5.514 -6.526,5.514 -9.438,8.5 -2.743,2.677 -5.644,4.8 -8.792,6.973 C 514,346 514,346 513.137,347.824 c -1.713,3.279 -4.421,5.485 -7.137,7.926 -0.547,0.507 -1.093,1.013 -1.656,1.535 C 500.258,361 500.258,361 498,361 c -0.257,0.596 -0.513,1.191 -0.777,1.805 -1.333,2.392 -2.657,3.622 -4.785,5.32 -3.341,2.681 -3.341,2.681 -4.438,4.875 -0.66,0 -1.32,0 -2,0 -0.33,0.99 -0.66,1.98 -1,3 -0.66,0 -1.32,0 -2,0 -0.33,0.99 -0.66,1.98 -1,3 -1.82,1.543 -1.82,1.543 -4.125,3.188 -3.925,2.949 -7.032,6.06 -10.176,9.812 -1.766,2.079 -3.604,4.049 -5.511,6 -0.564,0.577 -1.127,1.155 -1.708,1.75 C 459,401 459,401 457,401 c 0,0.66 0,1.32 0,2 -1.644,1.362 -3.315,2.69 -5,4 -1.683,1.65 -3.346,3.321 -5,5 -14.997,15.162 -14.997,15.162 -21.047,20.266 -3.516,3.122 -6.763,6.527 -10.047,9.89 -2.111,2.117 -4.314,4.077 -6.586,6.02 -6.257,5.416 -11.938,11.435 -17.718,17.349 -0.892,0.903 -1.785,1.806 -2.704,2.737 -0.797,0.814 -1.594,1.628 -2.416,2.467 C 384,473 384,473 380.819,475.109 378,477 378,477 376,480 c -0.66,0 -1.32,0 -2,0 0,0.99 0,1.98 0,3 -0.99,0.33 -1.98,0.66 -3,1 -0.825,0.825 -1.65,1.65 -2.5,2.5 -2.5,2.5 -2.5,2.5 -5.5,3.5 0,0.99 0,1.98 0,3 -0.66,0 -1.32,0 -2,0 -0.266,0.592 -0.531,1.183 -0.805,1.793 -2.695,4.977 -7.494,8.639 -11.757,12.269 -4.667,4.011 -8.949,8.394 -13.251,12.788 -3.387,3.437 -6.874,6.642 -10.564,9.75 -2.859,2.466 -5.449,5.184 -8.069,7.898 -1.534,1.588 -3.075,3.17 -4.616,4.752 -0.517,0.541 -1.033,1.083 -1.565,1.641 -2.773,2.825 -4.588,4.205 -8.373,5.109 -1,1.75 -1,1.75 -2,4 -2.163,3.124 -4.322,5.324 -7.438,7.438 -2.926,1.99 -4.982,4.136 -7.175,6.941 -3.415,3.992 -7.371,7.949 -12.387,9.621 -0.33,0.99 -0.66,1.98 -1,3 -3.444,3 -3.444,3 -6,3 -2.883,2.58 -5.051,5.078 -7.188,8.312 -0.598,0.887 -1.196,1.774 -1.812,2.688 -0.66,0 -1.32,0 -2,0 -0.124,0.402 -0.124,0.402 -0.75,2.438 -0.413,0.845 -0.825,1.691 -1.25,2.562 -1.323,0.372 -2.657,0.706 -4,1 -0.67,1.332 -1.336,2.665 -2,4 -4.485,5.638 -9.253,10.425 -15.141,14.559 -3.597,2.788 -6.817,6.356 -8.859,10.441 0.837,-0.072 1.673,-0.144 2.535,-0.219 7.812,-0.623 15.449,-0.851 23.285,-0.719 2.675,-0.052 4.642,-0.354 7.18,-1.062 4.205,-0.279 7.92,-0.02 12,1 0.582,-0.155 1.164,-0.309 1.764,-0.469 2.661,-0.632 5.031,-0.626 7.767,-0.593 1.124,0.007 2.248,0.015 3.407,0.023 2.281,0.025 4.562,0.051 6.843,0.078 8.408,0.056 16.772,-0.197 25.172,-0.535 15.086,-0.591 30.153,-0.623 45.247,-0.573 3.494,0.011 6.989,0.015 10.484,0.02 6.772,0.011 13.544,0.028 20.316,0.049 0,0.66 0,1.32 0,2 0.611,-0.144 1.221,-0.287 1.85,-0.435 7.627,-1.607 15.032,-1.773 22.79,-1.659 3.782,0.055 7.563,0.073 11.344,0.09 0.767,0.004 1.533,0.008 2.322,0.012 7.094,0.022 14.169,-0.215 21.256,-0.508 12.482,-0.492 24.948,-0.613 37.438,-0.625 0.905,-0.002 1.81,-0.005 2.742,-0.008 2.586,-0.005 5.172,-0.004 7.758,0 0.771,-0.002 1.541,-0.004 2.335,-0.006 3.242,0.014 6.297,0.161 9.497,0.706 C 511,626 511,626 514.188,625.062 c 6.215,-1.732 12.303,-1.413 18.66,-0.523 4.096,0.536 8.045,0.346 12.152,0.023 10.711,-0.719 21.417,-0.62 32.145,-0.525 0.679,0.005 1.358,0.009 2.058,0.013 1.864,0.012 3.729,0.03 5.593,0.048 C 588,624 588,624 590.489,623.434 c 2.641,-0.456 4.696,-0.139 7.316,0.304 5.008,0.598 10.097,0.362 15.133,0.324 1.16,-0.004 2.321,-0.009 3.517,-0.013 2.848,-0.012 5.697,-0.028 8.545,-0.049 0.023,-8.555 0.041,-17.11 0.052,-25.666 0.005,-3.974 0.012,-7.949 0.023,-11.923 0.091,-32.049 0.091,-32.049 -0.901,-45.061 -0.251,-4.843 0.14,-9.557 0.826,-14.35 -0.574,0.162 -1.147,0.323 -1.738,0.49 -3.73,0.841 -7.453,0.694 -11.262,0.698 -0.807,0.012 -1.614,0.024 -2.445,0.037 -0.781,0.002 -1.563,0.003 -2.367,0.005 -0.708,0.005 -1.416,0.009 -2.145,0.013 -2.36,-0.281 -3.951,-1.15 -6.043,-2.243 -1.902,0.242 -1.902,0.242 -3.938,0.875 -5.919,1.519 -11.986,1.718 -18.062,1.125 -0.66,-0.66 -1.32,-1.32 -2,-2 -1.98,0.66 -3.96,1.32 -6,2 0,-0.99 0,-1.98 0,-3 -0.66,0 -1.32,0 -2,0 0,0.66 0,1.32 0,2 -2.372,1.186 -3.761,1.101 -6.402,1.062 -0.443,-0.004 -0.443,-0.004 -2.683,-0.025 -0.941,-0.012 -1.883,-0.024 -2.853,-0.037 -6.664,-0.055 -13.15,0.081 -19.777,0.848 -3.176,0.211 -6.17,-0.217 -9.312,-0.66 C 524,528 524,528 521.125,528.5 c -4.701,0.752 -9.453,0.415 -14.125,-0.5 -0.33,-0.66 -0.66,-1.32 -1,-2 -2.31,0.33 -4.62,0.66 -7,1 -0.66,-0.99 -1.32,-1.98 -2,-3 -3.625,-1.188 -3.625,-1.188 -7,-2 0.33,-1.98 0.66,-3.96 1,-6 0.619,0.33 1.238,0.66 1.875,1 2.125,1 2.125,1 4.125,1 -0.33,-0.66 -0.66,-1.32 -1,-2 -3.63,0 -7.26,0 -11,0 -0.66,-1.32 -1.32,-2.64 -2,-4 1.32,-0.33 2.64,-0.66 4,-1 -0.66,-0.433 -1.32,-0.866 -2,-1.312 -0.66,-0.557 -1.32,-1.114 -2,-1.688 0,-0.99 0,-1.98 0,-3 -0.66,-0.99 -1.32,-1.98 -2,-3 0,-0.66 0,-1.32 0,-2 0.99,-0.33 1.98,-0.66 3,-1 0.33,-0.66 0.66,-1.32 1,-2 2.31,0 4.62,0 7,0 0.33,-1.32 0.66,-2.64 1,-4 0.66,0 1.32,0 2,0 0,-0.99 0,-1.98 0,-3 -1.32,-0.66 -2.64,-1.32 -4,-2 0.188,-2.375 0.188,-2.375 1,-5 1.667,-0.667 3.333,-1.333 5,-2 0.342,-1.665 0.674,-3.332 1,-5 3.884,-2.993 7.172,-3.479 12,-3.75 0.598,-0.039 0.598,-0.039 3.625,-0.234 C 517,472 517,472 519.605,472.543 c 2.872,0.548 4.857,0.136 7.707,-0.481 10.052,-1.826 20.903,-2.324 30.688,0.938 0.33,-0.66 0.66,-1.32 1,-2 2.64,0 5.28,0 8,0 0,0.66 0,1.32 0,2 2.126,-0.308 4.25,-0.622 6.375,-0.938 1.183,-0.174 2.367,-0.348 3.586,-0.527 C 580,471 580,471 582,470 c 1.593,0.241 3.185,0.485 4.775,0.742 4.634,0.537 9.318,0.317 13.975,0.258 2.057,-0.025 4.115,-0.047 6.172,-0.062 0.903,-0.012 1.806,-0.024 2.737,-0.036 C 612,471 612,471 615,472 c 1.344,-0.286 2.678,-0.626 4,-1 1.662,-0.24 3.33,-0.447 5,-0.625 0.423,-0.048 0.423,-0.048 2.562,-0.289 2.422,-0.085 4.114,0.306 6.438,0.914 1.749,0.066 3.5,0.086 5.25,0.062 0.446,-0.004 0.446,-0.004 2.703,-0.027 0.676,-0.011 1.351,-0.023 2.047,-0.035 0,0.66 0,1.32 0,2 2.31,-0.33 4.62,-0.66 7,-1 0.186,0.619 0.371,1.238 0.562,1.875 2.125,3.141 4.872,3.124 8.438,4.125 3,3.097 3,3.097 3,6 0.299,0.144 0.299,0.144 1.812,0.875 7.885,4.055 10.386,13.081 13.188,21.125 1.307,4.928 1.683,9.924 2,15 0.107,1.261 0.214,2.521 0.324,3.82 0.538,7.025 0.721,13.996 0.684,21.037 -0.023,8.756 0.068,17.507 0.208,26.263 0.053,3.384 0.101,6.768 0.15,10.152 0.09,6.245 0.182,12.491 0.282,18.737 0.07,4.398 0.134,8.797 0.195,13.196 0.023,1.649 0.049,3.298 0.078,4.948 0.143,8.411 0.131,16.778 -0.339,25.18 -0.019,0.35 -0.019,0.35 -0.115,2.119 -0.327,5.1 -1.224,9.343 -3.029,14.11 -0.456,1.239 -0.911,2.478 -1.379,3.754 -0.35,0.886 -0.699,1.772 -1.059,2.684 -0.66,0 -1.32,0 -2,0 -0.247,0.639 -0.495,1.279 -0.75,1.938 C 671,671 671,671 668.875,671.75 c -0.619,0.082 -1.237,0.165 -1.875,0.25 0,0.66 0,1.32 0,2 -1.485,0.495 -1.485,0.495 -9,3 -0.33,-0.66 -0.66,-1.32 -1,-2 -0.993,0.317 -1.985,0.634 -3.008,0.961 -3.931,1.114 -7.796,1.489 -11.867,1.664 -0.776,0.038 -1.552,0.076 -2.351,0.115 -13.908,0.576 -27.858,0.341 -41.774,0.26 0.33,-0.66 0.66,-1.32 1,-2 -0.66,-0.33 -1.32,-0.66 -2,-1 0,0.99 0,1.98 0,3 -9.567,1.161 -19.07,1.116 -28.688,1.062 -1.587,-0.005 -3.175,-0.009 -4.763,-0.013 -3.85,-0.011 -7.699,-0.028 -11.549,-0.049 0,-0.66 0,-1.32 0,-2 -0.99,0.66 -1.98,1.32 -3,2 -2.413,0.211 -2.413,0.211 -5.27,0.16 -1.055,-0.011 -2.11,-0.022 -3.197,-0.033 -0.552,-0.011 -0.552,-0.011 -3.345,-0.065 -6.525,-0.106 -12.944,-0.128 -19.446,0.465 -10.916,0.866 -21.871,0.278 -32.804,-0.027 -3.35,-0.092 -6.7,-0.182 -10.049,-0.265 -2.071,-0.051 -4.141,-0.108 -6.211,-0.17 -0.935,-0.024 -1.871,-0.047 -2.834,-0.071 -0.818,-0.023 -1.635,-0.046 -2.477,-0.07 C 461,679 461,679 458.561,679.494 c -2.855,0.564 -5.465,0.619 -8.373,0.604 -1.145,-0.004 -2.29,-0.007 -3.469,-0.01 -1.227,-0.009 -2.455,-0.017 -3.719,-0.026 -1.268,-0.003 -2.537,-0.007 -3.844,-0.011 -4.739,-0.014 -9.478,-0.038 -14.218,-0.061 -4.646,-0.023 -9.292,-0.039 -13.938,-0.052 -1.227,-0.009 -2.454,-0.017 -3.719,-0.026 -1.144,-0.003 -2.289,-0.006 -3.469,-0.01 C 403.31,679.9 403.31,679.9 400.77,679.886 398,680 398,680 395.664,680.5 c -3.699,0.694 -7.355,0.622 -11.103,0.598 -0.839,-0.002 -1.677,-0.003 -2.54,-0.005 -1.817,-0.004 -3.633,-0.01 -5.45,-0.018 -2.885,-0.013 -5.771,-0.019 -8.656,-0.024 -7.174,-0.013 -14.347,-0.037 -21.52,-0.061 -6.055,-0.02 -12.11,-0.036 -18.164,-0.046 -2.823,-0.006 -5.646,-0.019 -8.469,-0.032 -8.283,-0.023 -16.45,0.104 -24.706,0.847 -5.736,0.452 -11.484,0.48 -17.236,0.557 -1.342,0.021 -2.684,0.042 -4.026,0.063 -2.805,0.044 -5.61,0.085 -8.416,0.124 -3.492,0.048 -6.983,0.102 -10.475,0.158 -11.844,0.187 -23.687,0.364 -35.533,0.331 -0.703,-0.002 -1.406,-0.004 -2.13,-0.005 -3.341,-0.01 -6.682,-0.026 -10.024,-0.053 -6.061,-0.028 -11.966,0.143 -17.988,0.838 -3.415,0.349 -6.77,0.34 -10.205,0.326 -0.696,-0.002 -1.392,-0.003 -2.109,-0.005 -2.18,-0.005 -4.359,-0.018 -6.539,-0.031 -1.496,-0.005 -2.992,-0.009 -4.488,-0.013 -3.629,-0.011 -7.258,-0.028 -10.887,-0.049 0,0.66 0,1.32 0,2 -1.98,-0.66 -3.96,-1.32 -6,-2 0.33,-0.99 0.66,-1.98 1,-3 -0.66,0 -1.32,0 -2,0 0,-0.66 0,-1.32 0,-2 -0.887,0.227 -1.774,0.454 -2.688,0.688 -3.909,0.368 -5.314,-0.219 -8.312,-2.688 0,-0.99 0,-1.98 0,-3 -0.66,0 -1.32,0 -2,0 -4.659,-4.318 -4.659,-4.318 -6,-7 0.33,-0.66 0.66,-1.32 1,-2 -0.99,-0.33 -1.98,-0.66 -3,-1 -0.33,-3.3 -0.66,-6.6 -1,-10 0.99,-0.66 1.98,-1.32 3,-2 0.441,-2.129 0.441,-2.129 0.562,-4.562 0.129,-2.442 0.129,-2.442 0.438,-4.438 0.66,-0.33 1.32,-0.66 2,-1 1.125,-2.062 1.125,-2.062 2,-4 0.99,0.33 1.98,0.66 3,1 0,-0.66 0,-1.32 0,-2 -0.66,0 -1.32,0 -2,0 0,-3 0,-3 1.812,-4.938 0.722,-0.68 1.444,-1.361 2.188,-2.062 0.268,-0.371 0.268,-0.371 1.625,-2.25 0.227,-0.289 0.227,-0.289 1.375,-1.75 0.66,0 1.32,0 2,0 0.33,-0.99 0.66,-1.98 1,-3 1.488,-1.352 1.488,-1.352 3.312,-2.625 0.595,-0.425 1.189,-0.851 1.801,-1.289 1.96,-1.128 3.678,-1.647 5.887,-2.086 0.33,-1.32 0.66,-2.64 1,-4 0.66,0 1.32,0 2,0 0.103,-0.639 0.206,-1.279 0.312,-1.938 0.227,-0.68 0.454,-1.361 0.688,-2.062 0.99,-0.33 1.98,-0.66 3,-1 0.33,-0.66 0.66,-1.32 1,-2 0.66,0 1.32,0 2,0 0.33,-1.32 0.66,-2.64 1,-4 0.66,0 1.32,0 2,0 0,-0.66 0,-1.32 0,-2 0.99,0 1.98,0 3,0 1.354,-1.986 2.685,-3.988 4,-6 2.625,-2.25 2.625,-2.25 5,-4 0.66,-0.66 1.32,-1.32 2,-2 0.33,-0.134 0.33,-0.134 2,-0.812 2,-1.188 2,-1.188 2.75,-3.5 1.882,-4.046 5.318,-5.763 9.25,-7.688 0.66,0 1.32,0 2,0 0.084,-0.597 0.168,-1.194 0.254,-1.809 0.965,-2.835 2.229,-3.589 4.684,-5.253 2.814,-1.926 4.121,-3.026 6.062,-5.938 2.833,-2.982 5.69,-5.573 9,-8 2.353,-2.092 2.968,-2.905 4,-6 2.062,-0.688 2.062,-0.688 4,-1 0,-0.99 0,-1.98 0,-3 1.863,-1.57 1.863,-1.57 4.312,-3.125 0.801,-0.518 1.602,-1.036 2.426,-1.57 C 236,539 236,539 239,538 c 0.289,-0.577 0.577,-1.155 0.875,-1.75 1.521,-3.042 3.612,-4.988 6.125,-7.25 0.66,0 1.32,0 2,0 0,-0.66 0,-1.32 0,-2 1.574,-1.551 1.574,-1.551 3.688,-3.312 2.487,-2.105 4.88,-4.201 7.124,-6.563 C 261,515 261,515 264,514 c 0,-0.66 0,-1.32 0,-2 0.99,0 1.98,0 3,0 0,-0.66 0,-1.32 0,-2 0.66,-0.33 1.32,-0.66 2,-1 0.33,-0.99 0.66,-1.98 1,-3 0.928,-0.598 1.856,-1.196 2.812,-1.812 C 276,502 276,502 277.77,499.285 c 2.642,-3.892 5.664,-6.857 9.105,-10.035 0.599,-0.576 1.199,-1.152 1.816,-1.746 3.651,-3.397 6.475,-5.032 11.309,-6.504 0.33,-0.99 0.66,-1.98 1,-3 0.66,0 1.32,0 2,0 0.273,-0.587 0.547,-1.173 0.828,-1.777 3.193,-6.056 7.131,-9.203 13.172,-12.223 1.386,-1.964 2.73,-3.959 4,-6 0.66,0 1.32,0 2,0 0.33,-0.99 0.66,-1.98 1,-3 0.66,0 1.32,0 2,0 0.913,-1.421 1.824,-2.843 2.723,-4.273 1.892,-2.559 4.232,-4.433 6.691,-6.43 C 337,443 337,443 339,441 c 0.99,0 1.98,0 3,0 0.33,-0.99 0.66,-1.98 1,-3 1.438,-1.688 1.438,-1.688 3,-3 0.66,0 1.32,0 2,0 0,-0.66 0,-1.32 0,-2 0.99,-0.33 1.98,-0.66 3,-1 1.014,-1.658 2.011,-3.327 3,-5 2.734,-3.014 5.134,-5.582 9,-7 0.99,0 1.98,0 3,0 -0.33,-1.32 -0.66,-2.64 -1,-4 0.639,-0.103 1.279,-0.206 1.938,-0.312 0.68,-0.227 1.361,-0.454 2.062,-0.688 0.33,-0.99 0.66,-1.98 1,-3 0.99,-0.33 1.98,-0.66 3,-1 1.535,-1.629 1.535,-1.629 3.062,-3.562 1.536,-1.942 1.536,-1.942 2.938,-3.438 0.66,0 1.32,0 2,0 0.33,-0.99 0.66,-1.98 1,-3 1.453,-1.43 1.453,-1.43 3.25,-2.875 2.32,-1.906 4.493,-3.825 6.562,-6 C 394,390 394,390 396,390 c 0,-0.66 0,-1.32 0,-2 1.285,-1.227 1.285,-1.227 3.062,-2.625 2.766,-2.281 5.125,-4.637 7.438,-7.375 2.747,-3.235 5.635,-5.996 8.922,-8.676 2.212,-1.856 4.18,-3.894 6.14,-6.012 C 423,362 423,362 425,362 c 0.253,-0.592 0.505,-1.183 0.766,-1.793 1.379,-2.467 2.798,-3.744 4.984,-5.519 2.74,-2.305 5.12,-4.596 7.375,-7.376 3.261,-3.949 7.063,-6.343 11.563,-8.75 C 452,337 452,337 453.312,334.75 c 2.79,-4.546 7.083,-8.455 11.879,-10.84 2.391,-1.203 2.685,-2.522 3.809,-4.91 3.284,-3.832 3.284,-3.832 6.125,-4.5 0.619,-0.165 1.238,-0.33 1.875,-0.5 0.699,-1.316 1.367,-2.65 2,-4 0.99,-0.33 1.98,-0.66 3,-1 0,-0.66 0,-1.32 0,-2 0.66,0 1.32,0 2,0 0.33,-0.99 0.66,-1.98 1,-3 0.66,0 1.32,0 2,0 0.253,-0.592 0.505,-1.183 0.766,-1.793 1.379,-2.467 2.798,-3.744 4.984,-5.519 2.74,-2.305 5.12,-4.596 7.375,-7.376 2.605,-3.154 5.354,-5.185 8.875,-7.312 4.731,-2.896 7.614,-5.699 11,-10 0.536,-0.516 1.072,-1.031 1.625,-1.562 C 523,269 523,269 524.312,266.625 c 2.664,-4.144 5.945,-7.044 10.688,-8.625 0.66,-0.99 1.32,-1.98 2,-3 0.66,0 1.32,0 2,0 0,-0.66 0,-1.32 0,-2 0.577,-0.206 1.155,-0.412 1.75,-0.625 3.043,-1.86 4.323,-4.42 6.25,-7.375 0.66,0 1.32,0 2,0 0,-0.66 0,-1.32 0,-2 1.436,-1.236 2.878,-2.466 4.355,-3.652 3.602,-2.952 6.638,-6.324 9.583,-9.91 2.675,-3.176 5.553,-5.198 9.062,-7.438 2.473,-2.339 4.798,-4.78 7.102,-7.285 0.77,-0.814 1.541,-1.627 2.336,-2.465 0.36,-0.389 0.36,-0.389 2.183,-2.359 2.814,-2.237 4.84,-2.585 8.379,-2.891 0.116,-0.584 0.232,-1.168 0.352,-1.77 0.689,-2.371 1.59,-3.916 3.023,-5.918 0.21,-0.3 0.21,-0.3 1.273,-1.824 C 598,196 598,196 601,195 c 0.905,-1.441 1.809,-2.883 2.707,-4.328 2.007,-2.595 4.614,-4.218 7.273,-6.098 2.622,-2.043 4.566,-4.417 6.665,-6.976 4.857,-5.725 11.958,-9.51 19.355,-10.598 2,-1 2,-1 3,-3 z m 11,13 c -0.33,0.66 -0.66,1.32 -1,2 0.66,0 1.32,0 2,0 -0.33,-0.66 -0.66,-1.32 -1,-2 z m 9,1 c 0.33,0.66 0.66,1.32 1,2 0.33,-0.66 0.66,-1.32 1,-2 -0.66,0 -1.32,0 -2,0 z m 2,11 c -0.33,0.495 -0.33,0.495 -2,3 1.32,-0.33 2.64,-0.66 4,-1 0,-0.66 0,-1.32 0,-2 -0.66,0 -1.32,0 -2,0 z m -83,284 c 1,2 1,2 1,2 z m 44,2 c 0,0.66 0,1.32 0,2 0.99,0 1.98,0 3,0 0,-0.66 0,-1.32 0,-2 -0.99,0 -1.98,0 -3,0 z m -40,200 c 4,1 4,1 4,1 z"
     fill="#FFFFFF"
     id="path2"
     style="fill:#1a1a1a" />
  <path
     d="m 18,58 c -0.825,0.495 -0.825,0.495 -5,3 -0.33,-0.99 -0.66,-1.98 -1,-3 3,-1 3,-1 6,0 z"
     fill="#ffffff"
     id="path3" />
  <path
     d="m 620,613 c 0.33,0 0.66,0 1,0 0,2.97 0,5.94 0,9 -0.33,0 -0.66,0 -1,0 0,-2.97 0,-5.94 0,-9 z"
     fill="#ffffff"
     id="path4" />
  <path
     d="m 30,621 c 0.66,1.32 1.32,2.64 2,4 -0.99,0 -1.98,0 -3,0 0.33,-1.32 0.66,-2.64 1,-4 z"
     fill="#ffffff"
     id="path5" />
  <path
     d="m 619,546 c 0.33,0 0.66,0 1,0 0,2.64 0,5.28 0,8 -0.33,0 -0.66,0 -1,0 0,-2.64 0,-5.28 0,-8 z"
     fill="#ffffff"
     id="path6" />
  <path
     d="m 13,54 c 0.66,0 1.32,0 2,0 -0.33,0.99 -0.66,1.98 -1,3 -0.33,-0.99 -0.66,-1.98 -1,-3 z"
     fill="#ffffff"
     id="path7" />
  <path
     d="m 489,494 c 0.33,0.165 0.33,0.165 2,1 -0.33,0.165 -0.33,0.165 -2,1 0,-0.66 0,-1.32 0,-2 z"
     fill="#ffffff"
     id="path9" />
  <path
     d="m 503,527 c 2,1 2,1 2,1 z"
     fill="#ffffff"
     id="path16" />
</svg>
