<?xml version="1.0" encoding="UTF-8"?>
<!-- Generator: visioncortex VTracer 0.6.12 -->
<svg version="1.1" xmlns="http://www.w3.org/2000/svg" width="700" height="700">
<path d="M0 0 C2.239 -0.191 4.437 -0.49 6.656 -0.844 C9 -1 9 -1 11.661 -0.514 C15.391 0.06 19.009 0.108 22.77 0.062 C23.491 0.059 24.213 0.055 24.956 0.051 C27.242 0.039 29.527 0.02 31.812 0 C34.84 -0.027 37.867 -0.047 40.895 -0.062 C41.243 -0.067 41.243 -0.067 43.009 -0.088 C44.673 -0.096 46.337 -0.053 48 0 C48.165 0.165 48.165 0.165 49 1 C50.83 0.904 52.657 0.745 54.481 0.566 C64.56 -0.225 74.629 -0.111 84.733 -0.075 C88.376 -0.062 92.02 -0.056 95.663 -0.051 C104.708 -0.038 113.753 -0.014 122.798 0.01 C130.46 0.03 138.121 0.046 145.783 0.056 C149.345 0.062 152.908 0.075 156.47 0.088 C166.893 0.111 177.221 -0.023 187.617 -0.786 C192.626 -1.103 197.595 -1.024 202.609 -0.879 C203.645 -0.855 204.68 -0.832 205.747 -0.807 C207.948 -0.757 210.149 -0.704 212.35 -0.648 C218.189 -0.501 224.028 -0.375 229.867 -0.254 C231.047 -0.229 232.227 -0.205 233.443 -0.179 C247.105 0.087 260.765 0.056 274.429 -0.037 C275.297 -0.042 276.166 -0.046 277.061 -0.05 C278.658 -0.058 280.255 -0.07 281.852 -0.088 C286.357 -0.108 290.572 0.261 295 1 C295 1.99 295 2.98 295 4 C295.495 3.835 295.495 3.835 298 3 C298 2.34 298 1.68 298 1 C303.641 0.272 309.051 -0.084 314.738 0.062 C317 0 317 0 318.855 -0.562 C321 -1 321 -1 324.137 -0.536 C328.102 0.014 331.961 0.144 335.953 0.133 C336.694 0.134 337.435 0.135 338.198 0.136 C339.758 0.136 341.318 0.135 342.877 0.13 C345.23 0.125 347.581 0.13 349.934 0.137 C357.195 0.139 364.305 -0.041 371.532 -0.813 C375.791 -1.136 379.998 -0.81 384.25 -0.5 C390.049 -0.085 395.228 -0.039 401 -1 C402.853 -1.085 404.708 -1.13 406.562 -1.125 C407.451 -1.128 408.339 -1.13 409.254 -1.133 C412 -1 412 -1 414.802 -0.5 C417.9 -0.016 420.778 0.127 423.91 0.129 C424.481 0.131 424.481 0.131 427.369 0.139 C427.978 0.138 427.978 0.138 431.062 0.133 C432.327 0.134 433.592 0.135 434.895 0.136 C437.564 0.136 440.234 0.135 442.903 0.13 C446.313 0.125 449.722 0.128 453.131 0.134 C456.4 0.138 459.669 0.135 462.938 0.133 C464.156 0.135 465.375 0.137 466.631 0.139 C467.772 0.136 468.914 0.133 470.09 0.129 C471.089 0.129 472.088 0.128 473.117 0.127 C476.148 -0.007 479.01 -0.499 482 -1 C483.892 -1.086 485.785 -1.128 487.679 -1.129 C488.225 -1.131 488.225 -1.131 490.987 -1.139 C491.57 -1.138 491.57 -1.138 494.52 -1.133 C495.733 -1.134 496.946 -1.135 498.196 -1.136 C500.758 -1.136 503.321 -1.135 505.884 -1.13 C509.788 -1.125 513.692 -1.13 517.596 -1.137 C520.091 -1.136 522.587 -1.135 525.082 -1.133 C525.662 -1.134 525.662 -1.134 528.596 -1.139 C546.193 -1.089 546.193 -1.089 551.5 2.312 C554.525 4.153 557.481 5.698 560.75 7.062 C564.303 8.599 567.187 10.278 570 13 C570 13.66 570 14.32 570 15 C567.69 14.67 565.38 14.34 563 14 C563 15.32 563 16.64 563 18 C564.279 18.227 565.558 18.454 566.875 18.688 C569.086 19.223 569.086 19.223 571 20 C572.5 22.625 572.5 22.625 573 25 C572.67 25.33 572.34 25.66 572 26 C572.516 26.371 573.031 26.743 573.562 27.125 C575 29 575 29 574.875 31.812 C573.086 38.329 569.691 42.902 565.312 47.875 C565.046 48.182 565.046 48.182 563.695 49.734 C557.93 56.308 551.972 62.688 545 68 C544.34 68 543.68 68 543 68 C542.796 68.54 542.593 69.08 542.383 69.637 C540.442 72.954 537.71 75.277 534.875 77.812 C534.29 78.344 533.706 78.875 533.104 79.422 C529.375 82.8 525.611 86.138 521.781 89.402 C519.429 91.512 517.232 93.764 515 96 C513.117 97.784 511.221 99.555 509.312 101.312 C508.36 102.196 507.407 103.079 506.426 103.988 C504 106 504 106 502 106 C501.753 106.743 501.505 107.485 501.25 108.25 C499.886 111.25 498.541 112.921 496 115 C495.01 115 494.02 115 493 115 C492.868 115.302 492.868 115.302 492.199 116.828 C490.942 119.104 489.846 120.168 487.812 121.75 C484.285 124.629 481.451 127.84 478.578 131.363 C477 133 477 133 474 134 C474 134.66 474 135.32 474 136 C473.34 136 472.68 136 472 136 C472 136.66 472 137.32 472 138 C471.34 138 470.68 138 470 138 C470 138.66 470 139.32 470 140 C469.34 140 468.68 140 468 140 C467.735 140.601 467.47 141.203 467.197 141.823 C465.953 144.086 464.841 145.23 462.848 146.84 C462.236 147.346 461.624 147.852 460.994 148.373 C459.711 149.413 458.427 150.452 457.143 151.49 C453.616 154.409 451.199 156.913 449 161 C444.568 165 444.568 165 442 165 C441.794 165.577 441.587 166.155 441.375 166.75 C439.515 169.794 436.944 171.037 434 173 C433.301 174.316 432.633 175.65 432 177 C430.364 178.371 428.693 179.701 427 181 C424.477 183.46 422.022 185.977 419.562 188.5 C416.829 191.167 413.933 193.556 411 196 C409.313 197.646 407.645 199.312 406 201 C404.333 202.667 402.667 204.333 401 206 C400.695 206.311 400.695 206.311 399.152 207.883 C395.429 211.656 391.641 215.232 387.582 218.641 C384.62 221.186 381.944 224.016 379.242 226.832 C378.626 227.465 378.01 228.098 377.375 228.75 C376.805 229.343 376.235 229.936 375.648 230.547 C374 232 374 232 371 233 C369.282 234.976 367.633 236.958 366 239 C364.313 240.875 364.313 240.875 363 242 C362.34 242 361.68 242 361 242 C361 242.66 361 243.32 361 244 C360.34 244 359.68 244 359 244 C359 244.66 359 245.32 359 246 C357.496 247.48 357.496 247.48 355.438 249.188 C351.89 252.187 348.635 255.34 345.445 258.715 C344 260 344 260 342 260 C342 260.66 342 261.32 342 262 C340.574 263.402 340.574 263.402 338.688 264.938 C336.823 266.466 335.056 267.941 333.395 269.691 C332 271 332 271 330 271 C329.732 271.598 329.464 272.196 329.188 272.812 C328.001 274.998 326.904 276.413 325 278 C324.34 278 323.68 278 323 278 C323 278.66 323 279.32 323 280 C321.56 281.206 320.115 282.406 318.645 283.574 C317 285 317 285 314.5 288.062 C311.898 291.12 309.354 292.834 306 295 C304.292 296.624 302.624 298.292 301 300 C297.608 303.555 294.145 306.431 290.125 309.25 C285.404 312.724 281.854 316.163 278.5 320.957 C276.839 323.22 275.089 325.126 273 327 C272.34 327 271.68 327 271 327 C271 327.66 271 328.32 271 329 C270.381 329.082 269.762 329.165 269.125 329.25 C268.424 329.498 267.723 329.745 267 330 C266.866 330.289 266.866 330.289 266.188 331.75 C264.886 334.215 263.962 334.855 261.688 336.375 C259.147 338.083 257.221 339.73 255.312 342.125 C253.317 344.606 251.685 346.333 249 348 C248.34 348 247.68 348 247 348 C246.729 348.585 246.459 349.17 246.18 349.773 C245.009 351.984 243.742 353.723 242.125 355.625 C241.633 356.215 241.14 356.806 240.633 357.414 C238.868 359.128 237.203 359.938 235 361 C234.175 361.825 233.35 362.65 232.5 363.5 C230 366 230 366 227.812 367.062 C225.425 368.298 225.164 369.604 224 372 C219.83 376.375 215.353 380.439 210.938 384.562 C205.685 389.481 200.494 394.442 195.438 399.562 C183.684 411.439 183.684 411.439 179 413 C178.716 413.579 178.433 414.158 178.141 414.754 C176.568 417.851 174.342 419.639 171.75 421.938 C171.253 422.381 170.757 422.825 170.245 423.282 C167.775 425.481 165.27 427.622 162.688 429.688 C160.525 431.548 158.867 433.265 157.062 435.438 C153.412 439.828 149.499 444.167 144 446 C143.361 446.969 142.721 447.939 142.062 448.938 C140 452 140 452 138.094 452.938 C135.521 454.243 134.248 455.831 132.438 458.062 C129.33 461.89 129.33 461.89 126 463 C126 463.66 126 464.32 126 465 C120.588 469 120.588 469 118 469 C117.67 469.99 117.34 470.98 117 472 C116.01 472.66 115.02 473.32 114 474 C113.588 474.763 113.175 475.526 112.75 476.312 C110.745 479.392 108.696 480.74 105.691 482.754 C103.336 484.489 101.795 486.701 100 489 C98.283 490.56 96.512 492.042 94.73 493.527 C92.349 495.554 90.182 497.761 88 500 C84.495 503.595 80.961 506.919 77 510 C76.34 510 75.68 510 75 510 C75 510.66 75 511.32 75 512 C74.01 512.66 73.02 513.32 72 514 C71.67 514.99 71.34 515.98 71 517 C69.609 518.402 69.609 518.402 67.75 519.938 C64.984 522.271 62.285 524.648 59.648 527.125 C59.067 527.67 58.486 528.216 57.888 528.778 C56.72 529.877 55.555 530.981 54.394 532.088 C50.22 536 50.22 536 48 536 C47.67 536.99 47.34 537.98 47 539 C46.34 539 45.68 539 45 539 C44.67 539.99 44.34 540.98 44 542 C42.293 543.754 42.293 543.754 40.188 545.562 C39.5 546.162 38.813 546.761 38.105 547.379 C36 549 36 549 33.797 550.098 C32 551 32 551 31.062 552.875 C29.614 555.771 27.625 557.163 25 559 C24.34 559 23.68 559 23 559 C22.749 559.589 22.497 560.178 22.238 560.785 C20.845 563.276 19.379 564.623 17.188 566.438 C14.814 568.443 12.576 570.424 10.375 572.625 C7.698 575.302 4.989 577.675 2 580 C1.34 580 0.68 580 0 580 C0 580.66 0 581.32 0 582 C-0.557 582.052 -0.557 582.052 -3.375 582.312 C-4.571 582.539 -5.767 582.766 -7 583 C-7.66 583.99 -8.32 584.98 -9 586 C-16.915 587.532 -16.915 587.532 -21 586 C-22.033 583.212 -22.045 582.132 -21.062 579.25 C-20.712 578.508 -20.361 577.765 -20 577 C-21.32 577 -22.64 577 -24 577 C-24.33 577.66 -24.66 578.32 -25 579 C-25.66 579 -26.32 579 -27 579 C-27.33 580.32 -27.66 581.64 -28 583 C-28.33 582.01 -28.33 582.01 -30 577 C-31.32 577.33 -32.64 577.66 -34 578 C-34.165 577.505 -34.165 577.505 -35 575 C-36.32 575.33 -37.64 575.66 -39 576 C-39 574.68 -39 573.36 -39 572 C-40 569 -40 569 -43 567 C-44.242 562.998 -44.651 558.78 -43.199 554.809 C-42.487 553.485 -41.747 552.176 -40.98 550.883 C-39.517 548.073 -39.427 545.111 -39 542 C-37.5 540.25 -37.5 540.25 -36 539 C-35.67 538.01 -35.34 537.02 -35 536 C-34.031 535.691 -33.061 535.381 -32.062 535.062 C-29 534 -29 534 -27.875 532.25 C-27.586 531.508 -27.297 530.765 -27 530 C-24.099 524.561 -20.399 521.942 -15.242 518.613 C-13 517 -13 517 -11 514 C-10.34 514 -9.68 514 -9 514 C-8.866 513.691 -8.866 513.691 -8.188 512.125 C-7 510 -7 510 -4 508 C-2.312 506.5 -2.312 506.5 -1 505 C-1 504.34 -1 503.68 -1 503 C1.676 499.789 4.614 498.103 8.266 496.145 C10.16 494.894 11.303 493.602 12.688 491.812 C15 489 15 489 17.312 488.125 C17.591 488.104 17.591 488.104 19 488 C19 487.01 19 486.02 19 485 C20.645 483.5 20.645 483.5 22.812 482 C24.926 480.522 26.839 479.166 28.637 477.312 C30 476 30 476 32 476 C31.937 475.412 31.873 474.825 31.808 474.219 C31.12 467.632 30.609 461.05 30.25 454.438 C30.182 453.461 30.113 452.485 30.043 451.479 C29.741 445.7 30.176 441.226 32.359 435.841 C33.252 433.274 32.869 431.534 32 429 C30.937 425.55 30.871 422.367 30.867 418.766 C30.866 417.551 30.865 416.337 30.863 415.086 C30.867 413.82 30.871 412.554 30.875 411.25 C30.871 410 30.867 408.749 30.863 407.461 C30.874 397.191 30.874 397.191 31.535 392.457 C31.966 389.251 31.948 386.632 31.562 383.438 C30.42 372.74 30.42 372.74 32 368 C32.174 363.836 31.911 359.834 31.5 355.688 C30.774 348.107 30.83 340.862 31.773 333.312 C32.173 329.229 32.276 325.095 32 321 C31.67 320.67 31.34 320.34 31 320 C30.952 317.575 30.958 315.173 31 312.75 C31.071 306.273 30.769 299.928 30.121 293.477 C30 291 30 291 31 289 C31 287.68 31 286.36 31 285 C31 281 31 281 32 279 C32.138 274.707 32.116 271.143 31 267 C31.33 266.34 31.66 265.68 32 265 C31.34 265 30.68 265 30 265 C30 264.34 30 263.68 30 263 C30.99 263 31.98 263 33 263 C32.671 262.432 32.343 261.863 32.004 261.277 C30.903 258.781 30.82 257.264 30.938 254.562 C31.02 251.214 30.843 248.267 30 245 C30.66 245 31.32 245 32 245 C31.844 244.385 31.688 243.77 31.527 243.137 C31.333 242.328 31.138 241.52 30.938 240.688 C30.74 239.887 30.543 239.086 30.34 238.262 C30 236 30 236 31 233 C30.649 232.01 30.299 231.02 29.938 230 C29.783 229.505 29.783 229.505 29 227 C29.66 226.01 30.32 225.02 31 224 C30.719 221.66 30.375 219.327 30 217 C29.803 212.766 29.652 209.045 31 205 C30.67 204.34 30.34 203.68 30 203 C29.901 200.075 29.864 197.173 29.871 194.247 C29.87 193.792 29.87 193.792 29.865 191.49 C29.861 188.448 29.864 185.406 29.867 182.363 C29.867 180.214 29.866 178.065 29.864 175.916 C29.863 171.371 29.865 166.825 29.87 162.279 C29.875 156.605 29.872 150.932 29.866 145.258 C29.84 115.16 30.221 85.088 31 55 C30.685 55.015 30.685 55.015 29.089 55.09 C26.201 55.225 23.313 55.359 20.426 55.492 C19.434 55.539 18.441 55.585 17.419 55.634 C7.501 56.09 -2.14 56.315 -12 55 C-12 54.34 -12 53.68 -12 53 C-12.547 53.082 -12.547 53.082 -15.312 53.5 C-19 54 -19 54 -22 54 C-22.846 54.041 -23.691 54.083 -24.562 54.125 C-27 54 -27 54 -29 52 C-29.99 51.938 -30.98 51.876 -32 51.812 C-38.845 51.038 -45.689 45.124 -50 40 C-50 38.68 -50 37.36 -50 36 C-49.01 35.34 -48.02 34.68 -47 34 C-47.66 33.01 -48.32 32.02 -49 31 C-48.977 28.082 -48.977 28.082 -48.625 24.812 C-48.514 23.726 -48.403 22.639 -48.289 21.52 C-48.194 20.688 -48.098 19.857 -48 19 C-47.34 19 -46.68 19 -46 19 C-46 19.99 -46 20.98 -46 22 C-45.422 21.856 -44.845 21.711 -44.25 21.562 C-42.167 21.042 -40.083 20.521 -38 20 C-38.66 19.01 -39.32 18.02 -40 17 C-40.99 17 -41.98 17 -43 17 C-43 15.68 -43 14.36 -43 13 C-43.33 12.34 -43.66 11.68 -44 11 C-43.721 9.323 -43.392 7.654 -43 6 C-42.01 6 -41.02 6 -40 6 C-39.67 4.35 -39.34 2.7 -39 1 C-35.99 0.066 -35.133 -0.044 -32 1 C-29.665 0.679 -27.332 0.344 -25 0 C-22.326 -0.084 -19.676 -0.047 -17 0 C-17 0.99 -17 1.98 -17 3 C-16.34 3 -15.68 3 -15 3 C-15 2.34 -15 1.68 -15 1 C-9.544 -0.467 -5.607 -1.051 0 0 Z M337 2 C341 3 341 3 341 3 Z M553 5 C553 5.66 553 6.32 553 7 C553.66 7 554.32 7 555 7 C555 6.34 555 5.68 555 5 C554.34 5 553.68 5 553 5 Z M562 10 C562.33 10.66 562.66 11.32 563 12 C563.66 11.67 564.32 11.34 565 11 C564.01 10.67 563.02 10.34 562 10 Z M82 55 C81.224 57.754 80.874 60.201 80.871 63.059 C80.867 63.847 80.864 64.636 80.861 65.448 C80.863 66.293 80.865 67.137 80.867 68.008 C80.866 68.888 80.865 69.769 80.864 70.676 C80.864 72.541 80.865 74.405 80.87 76.27 C80.875 79.094 80.87 81.918 80.863 84.742 C80.864 86.56 80.865 88.378 80.867 90.195 C80.865 91.028 80.863 91.861 80.861 92.719 C80.881 97.796 81.228 102.757 81.778 107.803 C82.024 110.239 82.101 112.627 82.062 115.074 C82.054 115.965 82.046 116.856 82.037 117.773 C82.025 118.735 82.013 119.697 82 120.688 C81.943 129.446 82.072 138.181 82.356 146.934 C83.038 168.048 83.114 189.158 83.123 210.281 C83.125 212.802 83.129 215.323 83.133 217.844 C83.138 221.871 83.139 225.898 83.134 229.925 C83.133 231.425 83.134 232.925 83.136 234.426 C83.145 241.645 83.112 248.786 82.172 255.957 C81.928 258.854 82.341 261.56 82.733 264.428 C83.327 270.154 83.142 275.937 83.125 281.688 C83.129 282.98 83.133 284.272 83.137 285.604 C83.136 286.228 83.136 286.228 83.133 289.387 C83.132 289.95 83.132 289.95 83.129 292.8 C83.002 295.947 82.544 298.902 82 302 C82.156 304.562 82.156 304.562 82.5 307 C82.895 309.798 83.009 311.947 82.539 314.746 C81.854 318.88 81.852 322.881 81.875 327.062 C81.876 327.912 81.877 328.762 81.879 329.638 C81.907 334.17 82.09 338.614 82.562 343.125 C83.132 349.37 82.854 355.499 82.562 361.75 C81.552 383.54 82.039 405.215 83 427 C83.289 426.624 83.289 426.624 84.754 424.719 C86.706 422.355 88.6 420.462 90.938 418.5 C94.113 415.786 97.09 412.995 100 410 C102 408 102 408 104.438 407.188 C107.667 405.691 108.231 404.022 110 401 C112.5 399.375 112.5 399.375 115 398 C115.278 397.722 115.278 397.722 116.688 396.312 C117.121 395.879 117.554 395.446 118 395 C118.66 395 119.32 395 120 395 C120 393.35 120 391.7 120 390 C120.268 389.876 120.268 389.876 121.625 389.25 C129.66 385.021 129.66 385.021 131 381 C131.66 381 132.32 381 133 381 C133.33 381.66 133.33 381.66 135 385 C136.32 384.01 137.64 383.02 139 382 C138.34 380.02 137.68 378.04 137 376 C137.907 375.587 138.815 375.175 139.75 374.75 C142.872 373.069 144.809 371.76 147 369 C147.75 366.25 147.75 366.25 148 364 C148.99 364 149.98 364 151 364 C151.66 363.01 152.32 362.02 153 361 C153.846 360.505 154.691 360.01 155.562 359.5 C158 358 158 358 159 355 C159.66 354.67 160.32 354.34 161 354 C161.945 352.941 162.858 351.853 163.75 350.75 C166.995 346.9 170.501 343.649 174.723 340.863 C178.14 338.602 180.519 336.503 182.875 333.125 C185.688 329.12 188.961 326.497 192.875 323.602 C195.547 321.588 197.782 319.504 200 317 C200 316.34 200 315.68 200 315 C200.66 315 201.32 315 202 315 C203.034 314.036 204.029 313.028 205 312 C206.284 310.866 207.576 309.742 208.875 308.625 C212.81 305.194 216.631 301.794 219.809 297.629 C222.107 294.871 224.503 292.792 227.312 290.562 C230.545 287.979 233.729 285.385 236.812 282.625 C239.022 280.686 240.564 279.734 243.312 278.438 C246 277 246 277 246.875 274.75 C248.672 270.357 252.417 267.99 256 265 C259.343 261.828 262.383 258.446 265.438 255 C268.012 252.107 270.532 249.413 273.562 247 C274.367 246.34 275.171 245.68 276 245 C276 244.34 276 243.68 276 243 C276.557 242.752 277.114 242.505 277.688 242.25 C281.474 240.203 284.466 237.534 287.5 234.5 C290 232 290 232 292.812 229.812 C293.534 229.214 294.256 228.616 295 228 C295 227.34 295 226.68 295 226 C295.66 226 296.32 226 297 226 C299.125 224.125 299.125 224.125 301 222 C301 221.34 301 220.68 301 220 C301.592 219.914 302.183 219.827 302.793 219.738 C305.609 218.796 306.503 217.515 308.312 215.188 C310.6 212.423 312.48 210.492 315.688 208.875 C319.538 206.696 320.621 204.676 323 201 C330.046 193.851 330.046 193.851 335 193 C335.082 192.402 335.165 191.804 335.25 191.188 C336.205 188.401 337.645 187.671 340 186 C340 185.34 340 184.68 340 184 C340.66 184 341.32 184 342 184 C342.619 183.216 343.238 182.433 343.875 181.625 C345.934 179.082 347.092 178.26 350 177 C350.66 176.34 351.32 175.68 352 175 C352.701 174.505 353.402 174.01 354.125 173.5 C354.744 173.005 355.363 172.51 356 172 C356 171.34 356 170.68 356 170 C356.577 169.794 357.155 169.588 357.75 169.375 C360 168 360 168 361.812 165.188 C364.083 161.879 366.009 160.445 369.273 158.285 C371.971 156.277 373.861 153.578 376 151 C378 149.667 380 148.333 382 147 C382.885 145.963 383.739 144.899 384.562 143.812 C387 141 387 141 389.812 140.125 C390.534 140.084 391.256 140.043 392 140 C392.071 139.251 392.142 138.502 392.215 137.73 C393.221 134.232 394.612 133.367 397.562 131.312 C399.072 130.25 400.56 129.155 402 128 C402 127.34 402 126.68 402 126 C402.66 126 403.32 126 404 126 C404 125.34 404 124.68 404 124 C404.382 123.866 404.382 123.866 406.312 123.188 C408.944 122.025 410.057 121.027 412 119 C414.188 117.812 414.188 117.812 416 117 C416 115.68 416 114.36 416 113 C416.99 113 417.98 113 419 113 C423 108.657 423 108.657 423 106 C426.333 104.333 429.667 102.667 433 101 C433 100.01 433 99.02 433 98 C433.526 97.918 433.526 97.918 436.188 97.5 C439.769 96.529 440.949 95.034 442.812 91.875 C443.19 91.151 443.568 90.426 443.957 89.68 C444.129 89.403 444.129 89.403 445 88 C445.66 88 446.32 88 447 88 C447 87.01 447 86.02 447 85 C447.66 85 448.32 85 449 85 C449.474 84.526 449.949 84.051 450.438 83.562 C452 82 452 82 455 81 C455.268 80.422 455.536 79.845 455.812 79.25 C458.025 75.059 462.128 72.581 466 70 C466 69.34 466 68.68 466 68 C467.98 67.67 469.96 67.34 472 67 C472 65.68 472 64.36 472 63 C472.66 63 473.32 63 474 63 C474 62.34 474 61.68 474 61 C474.66 61 475.32 61 476 61 C477.625 59.625 477.625 59.625 479 58 C479 57.34 479 56.68 479 56 C478.566 56.001 478.566 56.001 476.368 56.007 C468.116 56.027 459.865 56.042 451.614 56.052 C447.374 56.057 443.134 56.064 438.893 56.075 C434.789 56.086 430.685 56.092 426.58 56.095 C425.027 56.097 423.473 56.1 421.92 56.106 C419.717 56.113 417.515 56.114 415.312 56.114 C414.689 56.115 414.689 56.115 411.537 56.12 C407.722 56.068 403.938 55.784 400.133 55.499 C391.267 54.885 382.437 54.874 373.553 54.902 C371.752 54.904 369.952 54.906 368.151 54.907 C364.305 54.91 360.458 54.916 356.611 54.925 C350.515 54.938 344.419 54.944 338.323 54.949 C325.382 54.96 312.441 54.98 299.5 55 C285.524 55.022 271.548 55.043 257.572 55.053 C251.526 55.058 245.48 55.068 239.433 55.082 C235.658 55.089 231.882 55.093 228.106 55.095 C226.371 55.097 224.636 55.1 222.901 55.106 C213.669 55.134 204.548 54.956 195.342 54.203 C189.324 53.837 183.33 54.167 177.312 54.438 C174.584 54.544 171.854 54.642 169.125 54.738 C168.784 54.75 168.784 54.75 167.056 54.812 C149.354 55.413 131.659 55.102 113.97 54.268 C113.419 54.244 113.419 54.244 110.629 54.121 C109.66 54.074 108.692 54.027 107.694 53.978 C104.992 54 102.633 54.43 100 55 C97.605 54.844 97.605 54.844 95.188 54.5 C90.554 53.951 86.594 54.234 82 55 Z M33 286 C32.67 286.66 32.34 287.32 32 288 C32.66 288 33.32 288 34 288 C33.67 287.34 33.34 286.68 33 286 Z M122 394 C121.67 394.66 121.34 395.32 121 396 C121.99 395.67 122.98 395.34 124 395 C123.34 394.67 122.68 394.34 122 394 Z M4 502 C4.33 502.99 4.66 503.98 5 505 C5.33 504.01 5.66 503.02 6 502 C5.34 502 4.68 502 4 502 Z M60 520 C59.34 521.32 58.68 522.64 58 524 C59.32 523.01 60.64 522.02 62 521 C61.34 520.67 60.68 520.34 60 520 Z M51 528 C52 530 52 530 52 530 Z M14 563 C14 563.66 14 564.32 14 565 C14.66 564.67 15.32 564.34 16 564 C15.34 563.67 14.68 563.34 14 563 Z M-15 573 C-15.99 573.99 -16.98 574.98 -18 576 C-17.67 576.66 -17.34 577.32 -17 578 C-16.01 577.67 -15.02 577.34 -14 577 C-13.67 576.01 -13.34 575.02 -13 574 C-13.66 573.67 -14.32 573.34 -15 573 Z " fill="#FFFFFF" transform="translate(61,43)"/>
<path d="M0 0 C1.32 0 2.64 0 4 0 C4 0.99 4 1.98 4 3 C4.227 2.752 4.227 2.752 5.375 1.5 C7 0 7 0 9 0 C9.66 0.99 10.32 1.98 11 3 C12.32 2.67 13.64 2.34 15 2 C15 3.32 15 4.64 15 6 C15.825 6.165 15.825 6.165 20 7 C20 7.99 20 8.98 20 10 C20.66 10.33 21.32 10.66 22 11 C21.67 11.66 21.34 12.32 21 13 C22.65 13 24.3 13 26 13 C25.34 14.65 24.68 16.3 24 18 C25.32 17.67 26.64 17.34 28 17 C27.67 19.97 27.34 22.94 27 26 C27.99 26.33 28.98 26.66 30 27 C28.7 34.997 26.304 39.469 20.309 44.898 C18.25 46.772 16.558 48.654 14.812 50.812 C11.003 55.277 6.556 58.951 2.062 62.7 C-1.473 65.653 -4.785 68.693 -8 72 C-10.723 74.777 -13.455 77.545 -16.188 80.312 C-16.911 81.053 -17.635 81.794 -18.381 82.557 C-19.074 83.256 -19.767 83.955 -20.48 84.676 C-21.108 85.314 -21.736 85.953 -22.384 86.611 C-24 88 -24 88 -26 88 C-26.114 88.282 -26.114 88.282 -26.691 89.707 C-28.358 92.627 -30.427 94.457 -32.938 96.688 C-33.813 97.475 -34.688 98.263 -35.59 99.074 C-38 101 -38 101 -41 102 C-41.33 102.99 -41.66 103.98 -42 105 C-43.576 106.399 -45.215 107.728 -46.883 109.016 C-52.966 113.873 -58.421 119.193 -63.875 124.75 C-64.785 125.669 -65.695 126.588 -66.633 127.535 C-68.317 129.237 -70 130.941 -71.679 132.647 C-78.839 139.905 -78.839 139.905 -82.191 142.973 C-82.744 143.48 -83.296 143.987 -83.865 144.51 C-84.425 145.022 -84.985 145.535 -85.562 146.062 C-86.69 147.094 -87.816 148.127 -88.941 149.16 C-89.469 149.644 -89.996 150.127 -90.54 150.625 C-91.824 151.834 -93.056 153.099 -94.277 154.371 C-96 156 -96 156 -98 156 C-98 156.66 -98 157.32 -98 158 C-99.504 159.516 -99.504 159.516 -101.562 161.25 C-102.292 161.871 -103.022 162.493 -103.773 163.133 C-104.508 163.749 -105.243 164.365 -106 165 C-112.526 170.514 -112.526 170.514 -115.438 173.5 C-118.181 176.177 -121.082 178.3 -124.23 180.473 C-126 182 -126 182 -126.863 183.824 C-128.576 187.103 -131.284 189.309 -134 191.75 C-134.547 192.257 -135.093 192.763 -135.656 193.285 C-139.742 197 -139.742 197 -142 197 C-142.257 197.596 -142.513 198.191 -142.777 198.805 C-144.11 201.197 -145.434 202.427 -147.562 204.125 C-150.903 206.806 -150.903 206.806 -152 209 C-152.66 209 -153.32 209 -154 209 C-154.33 209.99 -154.66 210.98 -155 212 C-155.66 212 -156.32 212 -157 212 C-157.33 212.99 -157.66 213.98 -158 215 C-159.82 216.543 -159.82 216.543 -162.125 218.188 C-166.05 221.137 -169.157 224.248 -172.301 228 C-174.067 230.079 -175.905 232.049 -177.812 234 C-178.376 234.577 -178.939 235.155 -179.52 235.75 C-181 237 -181 237 -183 237 C-183 237.66 -183 238.32 -183 239 C-184.644 240.362 -186.315 241.69 -188 243 C-189.683 244.65 -191.346 246.321 -193 248 C-207.997 263.162 -207.997 263.162 -214.047 268.266 C-217.563 271.388 -220.81 274.793 -224.094 278.156 C-226.205 280.273 -228.408 282.233 -230.68 284.176 C-236.937 289.592 -242.618 295.611 -248.398 301.525 C-249.29 302.428 -250.183 303.331 -251.102 304.262 C-251.899 305.076 -252.696 305.89 -253.518 306.729 C-256 309 -256 309 -259.181 311.109 C-262 313 -262 313 -264 316 C-264.66 316 -265.32 316 -266 316 C-266 316.99 -266 317.98 -266 319 C-266.99 319.33 -267.98 319.66 -269 320 C-269.825 320.825 -270.65 321.65 -271.5 322.5 C-274 325 -274 325 -277 326 C-277 326.99 -277 327.98 -277 329 C-277.66 329 -278.32 329 -279 329 C-279.266 329.592 -279.531 330.183 -279.805 330.793 C-282.5 335.77 -287.299 339.432 -291.562 343.062 C-296.229 347.073 -300.511 351.456 -304.813 355.85 C-308.2 359.287 -311.687 362.492 -315.377 365.6 C-318.236 368.066 -320.826 370.784 -323.446 373.498 C-324.98 375.086 -326.521 376.668 -328.062 378.25 C-328.579 378.791 -329.095 379.333 -329.627 379.891 C-332.4 382.716 -334.215 384.096 -338 385 C-339 386.75 -339 386.75 -340 389 C-342.163 392.124 -344.322 394.324 -347.438 396.438 C-350.364 398.428 -352.42 400.574 -354.613 403.379 C-358.028 407.371 -361.984 411.328 -367 413 C-367.33 413.99 -367.66 414.98 -368 416 C-371.444 419 -371.444 419 -374 419 C-376.883 421.58 -379.051 424.078 -381.188 427.312 C-381.786 428.199 -382.384 429.086 -383 430 C-383.66 430 -384.32 430 -385 430 C-385.124 430.402 -385.124 430.402 -385.75 432.438 C-386.163 433.283 -386.575 434.129 -387 435 C-388.323 435.372 -389.657 435.706 -391 436 C-391.67 437.332 -392.336 438.665 -393 440 C-397.485 445.638 -402.253 450.425 -408.141 454.559 C-411.738 457.347 -414.958 460.915 -417 465 C-416.163 464.928 -415.327 464.856 -414.465 464.781 C-406.653 464.158 -399.016 463.93 -391.18 464.062 C-388.505 464.01 -386.538 463.708 -384 463 C-379.795 462.721 -376.08 462.98 -372 464 C-371.418 463.845 -370.836 463.691 -370.236 463.531 C-367.575 462.899 -365.205 462.905 -362.469 462.938 C-361.345 462.945 -360.221 462.953 -359.062 462.961 C-356.781 462.986 -354.5 463.012 -352.219 463.039 C-343.811 463.095 -335.447 462.842 -327.047 462.504 C-311.961 461.913 -296.894 461.881 -281.8 461.931 C-278.306 461.942 -274.811 461.946 -271.316 461.951 C-264.544 461.962 -257.772 461.979 -251 462 C-251 462.66 -251 463.32 -251 464 C-250.389 463.856 -249.779 463.713 -249.15 463.565 C-241.523 461.958 -234.118 461.792 -226.36 461.906 C-222.578 461.961 -218.797 461.979 -215.016 461.996 C-214.249 462 -213.483 462.004 -212.694 462.008 C-205.6 462.03 -198.525 461.793 -191.438 461.5 C-178.956 461.008 -166.49 460.887 -154 460.875 C-153.095 460.873 -152.19 460.87 -151.258 460.867 C-148.672 460.862 -146.086 460.863 -143.5 460.867 C-142.729 460.865 -141.959 460.863 -141.165 460.861 C-137.923 460.875 -134.868 461.022 -131.668 461.567 C-129 462 -129 462 -125.812 461.062 C-119.597 459.33 -113.509 459.649 -107.152 460.539 C-103.056 461.075 -99.107 460.885 -95 460.562 C-84.289 459.843 -73.583 459.942 -62.855 460.037 C-62.176 460.042 -61.497 460.046 -60.797 460.05 C-58.933 460.062 -57.068 460.08 -55.204 460.098 C-52 460 -52 460 -49.511 459.434 C-46.87 458.978 -44.815 459.295 -42.195 459.738 C-37.187 460.336 -32.098 460.1 -27.062 460.062 C-25.902 460.058 -24.741 460.053 -23.545 460.049 C-20.697 460.037 -17.848 460.021 -15 460 C-14.977 451.445 -14.959 442.89 -14.948 434.334 C-14.943 430.36 -14.936 426.385 -14.925 422.411 C-14.834 390.362 -14.834 390.362 -15.826 377.35 C-16.077 372.507 -15.686 367.793 -15 363 C-15.574 363.162 -16.147 363.323 -16.738 363.49 C-20.468 364.331 -24.191 364.184 -28 364.188 C-28.807 364.2 -29.614 364.212 -30.445 364.225 C-31.226 364.227 -32.008 364.228 -32.812 364.23 C-33.52 364.235 -34.228 364.239 -34.957 364.243 C-37.317 363.962 -38.908 363.093 -41 362 C-42.902 362.242 -42.902 362.242 -44.938 362.875 C-50.857 364.394 -56.924 364.593 -63 364 C-63.66 363.34 -64.32 362.68 -65 362 C-66.98 362.66 -68.96 363.32 -71 364 C-71 363.01 -71 362.02 -71 361 C-71.66 361 -72.32 361 -73 361 C-73 361.66 -73 362.32 -73 363 C-75.372 364.186 -76.761 364.101 -79.402 364.062 C-79.845 364.058 -79.845 364.058 -82.085 364.037 C-83.026 364.025 -83.968 364.013 -84.938 364 C-91.602 363.945 -98.088 364.081 -104.715 364.848 C-107.891 365.059 -110.885 364.631 -114.027 364.188 C-116 364 -116 364 -118.875 364.5 C-123.576 365.252 -128.328 364.915 -133 364 C-133.33 363.34 -133.66 362.68 -134 362 C-136.31 362.33 -138.62 362.66 -141 363 C-141.66 362.01 -142.32 361.02 -143 360 C-146.625 358.812 -146.625 358.812 -150 358 C-149.67 356.02 -149.34 354.04 -149 352 C-148.381 352.33 -147.762 352.66 -147.125 353 C-145 354 -145 354 -143 354 C-143.33 353.34 -143.66 352.68 -144 352 C-147.63 352 -151.26 352 -155 352 C-155.66 350.68 -156.32 349.36 -157 348 C-155.68 347.67 -154.36 347.34 -153 347 C-153.66 346.567 -154.32 346.134 -155 345.688 C-155.66 345.131 -156.32 344.574 -157 344 C-157 343.01 -157 342.02 -157 341 C-157.66 340.01 -158.32 339.02 -159 338 C-159 337.34 -159 336.68 -159 336 C-158.01 335.67 -157.02 335.34 -156 335 C-155.67 334.34 -155.34 333.68 -155 333 C-152.69 333 -150.38 333 -148 333 C-147.67 331.68 -147.34 330.36 -147 329 C-146.34 329 -145.68 329 -145 329 C-145 328.01 -145 327.02 -145 326 C-146.32 325.34 -147.64 324.68 -149 324 C-148.812 321.625 -148.812 321.625 -148 319 C-146.333 318.333 -144.667 317.667 -143 317 C-142.658 315.335 -142.326 313.668 -142 312 C-138.116 309.007 -134.828 308.521 -130 308.25 C-129.402 308.211 -129.402 308.211 -126.375 308.016 C-123 308 -123 308 -120.395 308.543 C-117.523 309.091 -115.538 308.679 -112.688 308.062 C-102.636 306.236 -91.785 305.738 -82 309 C-81.67 308.34 -81.34 307.68 -81 307 C-78.36 307 -75.72 307 -73 307 C-73 307.66 -73 308.32 -73 309 C-70.874 308.692 -68.75 308.378 -66.625 308.062 C-65.442 307.888 -64.258 307.714 -63.039 307.535 C-60 307 -60 307 -58 306 C-56.407 306.241 -54.815 306.485 -53.225 306.742 C-48.591 307.279 -43.907 307.059 -39.25 307 C-37.193 306.975 -35.135 306.953 -33.078 306.938 C-32.175 306.926 -31.272 306.914 -30.341 306.902 C-28 307 -28 307 -25 308 C-23.656 307.714 -22.322 307.374 -21 307 C-19.338 306.76 -17.67 306.553 -16 306.375 C-15.577 306.327 -15.577 306.327 -13.438 306.086 C-11.016 306.001 -9.324 306.392 -7 307 C-5.251 307.066 -3.5 307.086 -1.75 307.062 C-1.304 307.058 -1.304 307.058 0.953 307.035 C1.629 307.024 2.304 307.012 3 307 C3 307.66 3 308.32 3 309 C5.31 308.67 7.62 308.34 10 308 C10.186 308.619 10.371 309.238 10.562 309.875 C12.687 313.016 15.434 312.999 19 314 C22 317.097 22 317.097 22 320 C22.299 320.144 22.299 320.144 23.812 320.875 C31.697 324.93 34.198 333.956 37 342 C38.307 346.928 38.683 351.924 39 357 C39.107 358.261 39.214 359.521 39.324 360.82 C39.862 367.845 40.045 374.816 40.008 381.857 C39.985 390.613 40.076 399.364 40.216 408.12 C40.269 411.504 40.317 414.888 40.366 418.272 C40.456 424.517 40.548 430.763 40.648 437.009 C40.718 441.407 40.782 445.806 40.843 450.205 C40.866 451.854 40.892 453.503 40.921 455.153 C41.064 463.564 41.052 471.931 40.582 480.333 C40.563 480.683 40.563 480.683 40.467 482.452 C40.14 487.552 39.243 491.795 37.438 496.562 C36.982 497.801 36.527 499.04 36.059 500.316 C35.709 501.202 35.36 502.088 35 503 C34.34 503 33.68 503 33 503 C32.753 503.639 32.505 504.279 32.25 504.938 C31 507 31 507 28.875 507.75 C28.256 507.832 27.638 507.915 27 508 C27 508.66 27 509.32 27 510 C25.515 510.495 25.515 510.495 18 513 C17.67 512.34 17.34 511.68 17 511 C16.007 511.317 15.015 511.634 13.992 511.961 C10.061 513.075 6.196 513.45 2.125 513.625 C1.349 513.663 0.573 513.701 -0.226 513.74 C-14.134 514.316 -28.084 514.081 -42 514 C-41.67 513.34 -41.34 512.68 -41 512 C-41.66 511.67 -42.32 511.34 -43 511 C-43 511.99 -43 512.98 -43 514 C-52.567 515.161 -62.07 515.116 -71.688 515.062 C-73.275 515.057 -74.863 515.053 -76.451 515.049 C-80.301 515.038 -84.15 515.021 -88 515 C-88 514.34 -88 513.68 -88 513 C-88.99 513.66 -89.98 514.32 -91 515 C-93.413 515.211 -93.413 515.211 -96.27 515.16 C-97.325 515.149 -98.38 515.138 -99.467 515.127 C-100.019 515.116 -100.019 515.116 -102.812 515.062 C-109.337 514.956 -115.756 514.934 -122.258 515.527 C-133.174 516.393 -144.129 515.805 -155.062 515.5 C-158.412 515.408 -161.762 515.318 -165.111 515.235 C-167.182 515.184 -169.252 515.127 -171.322 515.065 C-172.257 515.041 -173.193 515.018 -174.156 514.994 C-174.974 514.971 -175.791 514.948 -176.633 514.924 C-179 515 -179 515 -181.439 515.494 C-184.294 516.058 -186.904 516.113 -189.812 516.098 C-190.957 516.094 -192.102 516.091 -193.281 516.088 C-194.508 516.079 -195.736 516.071 -197 516.062 C-198.268 516.059 -199.537 516.055 -200.844 516.051 C-205.583 516.037 -210.322 516.013 -215.062 515.99 C-219.708 515.967 -224.354 515.951 -229 515.938 C-230.227 515.929 -231.454 515.921 -232.719 515.912 C-233.863 515.909 -235.008 515.906 -236.188 515.902 C-236.69 515.9 -236.69 515.9 -239.23 515.886 C-242 516 -242 516 -244.336 516.5 C-248.035 517.194 -251.691 517.122 -255.439 517.098 C-256.278 517.096 -257.116 517.095 -257.979 517.093 C-259.796 517.089 -261.612 517.083 -263.429 517.075 C-266.314 517.062 -269.2 517.056 -272.085 517.051 C-279.259 517.038 -286.432 517.014 -293.605 516.99 C-299.66 516.97 -305.715 516.954 -311.769 516.944 C-314.592 516.938 -317.415 516.925 -320.238 516.912 C-328.521 516.889 -336.688 517.016 -344.944 517.759 C-350.68 518.211 -356.428 518.239 -362.18 518.316 C-363.522 518.337 -364.864 518.358 -366.206 518.379 C-369.011 518.423 -371.816 518.464 -374.622 518.503 C-378.114 518.551 -381.605 518.605 -385.097 518.661 C-396.941 518.848 -408.784 519.025 -420.63 518.992 C-421.333 518.99 -422.036 518.988 -422.76 518.987 C-426.101 518.977 -429.442 518.961 -432.784 518.934 C-438.845 518.906 -444.75 519.077 -450.772 519.772 C-454.187 520.121 -457.542 520.112 -460.977 520.098 C-461.673 520.096 -462.369 520.095 -463.086 520.093 C-465.266 520.088 -467.445 520.075 -469.625 520.062 C-471.121 520.057 -472.617 520.053 -474.113 520.049 C-477.742 520.038 -481.371 520.021 -485 520 C-485 520.66 -485 521.32 -485 522 C-486.98 521.34 -488.96 520.68 -491 520 C-490.67 519.01 -490.34 518.02 -490 517 C-490.66 517 -491.32 517 -492 517 C-492 516.34 -492 515.68 -492 515 C-492.887 515.227 -493.774 515.454 -494.688 515.688 C-498.597 516.056 -500.002 515.469 -503 513 C-503 512.01 -503 511.02 -503 510 C-503.66 510 -504.32 510 -505 510 C-509.659 505.682 -509.659 505.682 -511 503 C-510.67 502.34 -510.34 501.68 -510 501 C-510.99 500.67 -511.98 500.34 -513 500 C-513.33 496.7 -513.66 493.4 -514 490 C-513.01 489.34 -512.02 488.68 -511 488 C-510.559 485.871 -510.559 485.871 -510.438 483.438 C-510.309 480.996 -510.309 480.996 -510 479 C-509.34 478.67 -508.68 478.34 -508 478 C-506.875 475.938 -506.875 475.938 -506 474 C-505.01 474.33 -504.02 474.66 -503 475 C-503 474.34 -503 473.68 -503 473 C-503.66 473 -504.32 473 -505 473 C-505 470 -505 470 -503.188 468.062 C-502.466 467.382 -501.744 466.701 -501 466 C-500.732 465.629 -500.732 465.629 -499.375 463.75 C-499.148 463.461 -499.148 463.461 -498 462 C-497.34 462 -496.68 462 -496 462 C-495.67 461.01 -495.34 460.02 -495 459 C-493.512 457.648 -493.512 457.648 -491.688 456.375 C-491.093 455.95 -490.499 455.524 -489.887 455.086 C-487.927 453.958 -486.209 453.439 -484 453 C-483.67 451.68 -483.34 450.36 -483 449 C-482.34 449 -481.68 449 -481 449 C-480.897 448.361 -480.794 447.721 -480.688 447.062 C-480.461 446.382 -480.234 445.701 -480 445 C-479.01 444.67 -478.02 444.34 -477 444 C-476.67 443.34 -476.34 442.68 -476 442 C-475.34 442 -474.68 442 -474 442 C-473.67 440.68 -473.34 439.36 -473 438 C-472.34 438 -471.68 438 -471 438 C-471 437.34 -471 436.68 -471 436 C-470.01 436 -469.02 436 -468 436 C-466.646 434.014 -465.315 432.012 -464 430 C-461.375 427.75 -461.375 427.75 -459 426 C-458.34 425.34 -457.68 424.68 -457 424 C-456.67 423.866 -456.67 423.866 -455 423.188 C-453 422 -453 422 -452.25 419.688 C-450.368 415.642 -446.932 413.925 -443 412 C-442.34 412 -441.68 412 -441 412 C-440.916 411.403 -440.832 410.806 -440.746 410.191 C-439.781 407.356 -438.517 406.602 -436.062 404.938 C-433.248 403.012 -431.941 401.912 -430 399 C-427.167 396.018 -424.31 393.427 -421 391 C-418.647 388.908 -418.032 388.095 -417 385 C-414.938 384.312 -414.938 384.312 -413 384 C-413 383.01 -413 382.02 -413 381 C-411.137 379.43 -411.137 379.43 -408.688 377.875 C-407.887 377.357 -407.086 376.839 -406.262 376.305 C-404 375 -404 375 -401 374 C-400.711 373.423 -400.423 372.845 -400.125 372.25 C-398.604 369.208 -396.513 367.262 -394 365 C-393.34 365 -392.68 365 -392 365 C-392 364.34 -392 363.68 -392 363 C-390.426 361.449 -390.426 361.449 -388.312 359.688 C-385.825 357.583 -383.432 355.487 -381.188 353.125 C-379 351 -379 351 -376 350 C-376 349.34 -376 348.68 -376 348 C-375.01 348 -374.02 348 -373 348 C-373 347.34 -373 346.68 -373 346 C-372.34 345.67 -371.68 345.34 -371 345 C-370.67 344.01 -370.34 343.02 -370 342 C-369.072 341.402 -368.144 340.804 -367.188 340.188 C-364 338 -364 338 -362.23 335.285 C-359.588 331.393 -356.566 328.428 -353.125 325.25 C-352.526 324.674 -351.926 324.098 -351.309 323.504 C-347.658 320.107 -344.834 318.472 -340 317 C-339.67 316.01 -339.34 315.02 -339 314 C-338.34 314 -337.68 314 -337 314 C-336.727 313.413 -336.453 312.827 -336.172 312.223 C-332.979 306.167 -329.041 303.02 -323 300 C-321.614 298.036 -320.27 296.041 -319 294 C-318.34 294 -317.68 294 -317 294 C-316.67 293.01 -316.34 292.02 -316 291 C-315.34 291 -314.68 291 -314 291 C-313.087 289.579 -312.176 288.157 -311.277 286.727 C-309.385 284.168 -307.045 282.294 -304.586 280.297 C-303 279 -303 279 -301 277 C-300.01 277 -299.02 277 -298 277 C-297.67 276.01 -297.34 275.02 -297 274 C-295.562 272.312 -295.562 272.312 -294 271 C-293.34 271 -292.68 271 -292 271 C-292 270.34 -292 269.68 -292 269 C-291.01 268.67 -290.02 268.34 -289 268 C-287.986 266.342 -286.989 264.673 -286 263 C-283.266 259.986 -280.866 257.418 -277 256 C-276.01 256 -275.02 256 -274 256 C-274.33 254.68 -274.66 253.36 -275 252 C-274.361 251.897 -273.721 251.794 -273.062 251.688 C-272.382 251.461 -271.701 251.234 -271 251 C-270.67 250.01 -270.34 249.02 -270 248 C-269.01 247.67 -268.02 247.34 -267 247 C-265.465 245.371 -265.465 245.371 -263.938 243.438 C-262.402 241.496 -262.402 241.496 -261 240 C-260.34 240 -259.68 240 -259 240 C-258.67 239.01 -258.34 238.02 -258 237 C-256.547 235.57 -256.547 235.57 -254.75 234.125 C-252.43 232.219 -250.257 230.3 -248.188 228.125 C-246 226 -246 226 -244 226 C-244 225.34 -244 224.68 -244 224 C-242.715 222.773 -242.715 222.773 -240.938 221.375 C-238.172 219.094 -235.813 216.738 -233.5 214 C-230.753 210.765 -227.865 208.004 -224.578 205.324 C-222.366 203.468 -220.398 201.43 -218.438 199.312 C-217 198 -217 198 -215 198 C-214.747 197.408 -214.495 196.817 -214.234 196.207 C-212.855 193.74 -211.436 192.463 -209.25 190.688 C-206.51 188.383 -204.13 186.092 -201.875 183.312 C-198.614 179.363 -194.812 176.969 -190.312 174.562 C-188 173 -188 173 -186.688 170.75 C-183.898 166.204 -179.605 162.295 -174.809 159.91 C-172.418 158.707 -172.124 157.388 -171 155 C-167.716 151.168 -167.716 151.168 -164.875 150.5 C-164.256 150.335 -163.637 150.17 -163 150 C-162.301 148.684 -161.633 147.35 -161 146 C-160.01 145.67 -159.02 145.34 -158 145 C-158 144.34 -158 143.68 -158 143 C-157.34 143 -156.68 143 -156 143 C-155.67 142.01 -155.34 141.02 -155 140 C-154.34 140 -153.68 140 -153 140 C-152.747 139.408 -152.495 138.817 -152.234 138.207 C-150.855 135.74 -149.436 134.463 -147.25 132.688 C-144.51 130.383 -142.13 128.092 -139.875 125.312 C-137.27 122.158 -134.521 120.127 -131 118 C-126.269 115.104 -123.386 112.301 -120 108 C-119.464 107.484 -118.928 106.969 -118.375 106.438 C-117 105 -117 105 -115.688 102.625 C-113.024 98.481 -109.743 95.581 -105 94 C-104.34 93.01 -103.68 92.02 -103 91 C-102.34 91 -101.68 91 -101 91 C-101 90.34 -101 89.68 -101 89 C-100.423 88.794 -99.845 88.588 -99.25 88.375 C-96.207 86.515 -94.927 83.955 -93 81 C-92.34 81 -91.68 81 -91 81 C-91 80.34 -91 79.68 -91 79 C-89.564 77.764 -88.122 76.534 -86.645 75.348 C-83.043 72.396 -80.007 69.024 -77.062 65.438 C-74.387 62.262 -71.509 60.24 -68 58 C-65.527 55.661 -63.202 53.22 -60.898 50.715 C-60.128 49.901 -59.357 49.088 -58.562 48.25 C-58.202 47.861 -58.202 47.861 -56.379 45.891 C-53.565 43.654 -51.539 43.306 -48 43 C-47.884 42.416 -47.768 41.832 -47.648 41.23 C-46.959 38.859 -46.058 37.314 -44.625 35.312 C-44.415 35.012 -44.415 35.012 -43.352 33.488 C-42 32 -42 32 -39 31 C-38.095 29.559 -37.191 28.117 -36.293 26.672 C-34.286 24.077 -31.679 22.454 -29.02 20.574 C-26.398 18.531 -24.454 16.157 -22.355 13.598 C-17.498 7.873 -10.397 4.088 -3 3 C-1 2 -1 2 0 0 Z M11 13 C10.67 13.66 10.34 14.32 10 15 C10.66 15 11.32 15 12 15 C11.67 14.34 11.34 13.68 11 13 Z M20 14 C20.33 14.66 20.66 15.32 21 16 C21.33 15.34 21.66 14.68 22 14 C21.34 14 20.68 14 20 14 Z M22 25 C21.67 25.495 21.67 25.495 20 28 C21.32 27.67 22.64 27.34 24 27 C24 26.34 24 25.68 24 25 C23.34 25 22.68 25 22 25 Z M-61 309 C-60 311 -60 311 -60 311 Z M-17 311 C-17 311.66 -17 312.32 -17 313 C-16.01 313 -15.02 313 -14 313 C-14 312.34 -14 311.68 -14 311 C-14.99 311 -15.98 311 -17 311 Z M-57 511 C-53 512 -53 512 -53 512 Z " fill="#FFFFFF" transform="translate(640,164)"/>
<path d="M0 0 C-0.825 0.495 -0.825 0.495 -5 3 C-5.33 2.01 -5.66 1.02 -6 0 C-3 -1 -3 -1 0 0 Z " fill="#FFFFFF" transform="translate(18,58)"/>
<path d="M0 0 C0.33 0 0.66 0 1 0 C1 2.97 1 5.94 1 9 C0.67 9 0.34 9 0 9 C0 6.03 0 3.06 0 0 Z " fill="#FFFFFF" transform="translate(620,613)"/>
<path d="M0 0 C0.66 1.32 1.32 2.64 2 4 C1.01 4 0.02 4 -1 4 C-0.67 2.68 -0.34 1.36 0 0 Z " fill="#FFFFFF" transform="translate(30,621)"/>
<path d="M0 0 C0.33 0 0.66 0 1 0 C1 2.64 1 5.28 1 8 C0.67 8 0.34 8 0 8 C0 5.36 0 2.72 0 0 Z " fill="#FFFFFF" transform="translate(619,546)"/>
<path d="M0 0 C0.66 0 1.32 0 2 0 C1.67 0.99 1.34 1.98 1 3 C0.67 2.01 0.34 1.02 0 0 Z " fill="#FFFFFF" transform="translate(13,54)"/>
<path d="" fill="#FFFFFF" transform="translate(0,0)"/>
<path d="M0 0 C0.33 0.165 0.33 0.165 2 1 C1.67 1.165 1.67 1.165 0 2 C0 1.34 0 0.68 0 0 Z " fill="#FFFFFF" transform="translate(489,494)"/>
<path d="" fill="#FFFFFF" transform="translate(0,0)"/>
<path d="" fill="#FFFFFF" transform="translate(0,0)"/>
<path d="" fill="#FFFFFF" transform="translate(0,0)"/>
<path d="" fill="#FFFFFF" transform="translate(0,0)"/>
<path d="" fill="#FFFFFF" transform="translate(0,0)"/>
<path d="" fill="#FFFFFF" transform="translate(0,0)"/>
<path d="M0 0 C2 1 2 1 2 1 Z " fill="#FFFFFF" transform="translate(503,527)"/>
<path d="" fill="#FFFFFF" transform="translate(0,0)"/>
<path d="" fill="#FFFFFF" transform="translate(0,0)"/>
<path d="" fill="#FFFFFF" transform="translate(0,0)"/>
<path d="" fill="#FFFFFF" transform="translate(0,0)"/>
<path d="" fill="#FFFFFF" transform="translate(0,0)"/>
<path d="" fill="#FFFFFF" transform="translate(0,0)"/>
<path d="" fill="#FFFFFF" transform="translate(0,0)"/>
<path d="" fill="#FFFFFF" transform="translate(0,0)"/>
<path d="" fill="#FFFFFF" transform="translate(0,0)"/>
<path d="" fill="#FFFFFF" transform="translate(0,0)"/>
<path d="" fill="#FFFFFF" transform="translate(0,0)"/>
<path d="" fill="#FFFFFF" transform="translate(0,0)"/>
<path d="" fill="#FFFFFF" transform="translate(0,0)"/>
<path d="" fill="#FFFFFF" transform="translate(0,0)"/>
<path d="" fill="#FFFFFF" transform="translate(0,0)"/>
<path d="" fill="#FFFFFF" transform="translate(0,0)"/>
</svg>
