<?xml version="1.0" encoding="UTF-8" standalone="no"?>
<!-- Created with Inkscape (http://www.inkscape.org/) -->

<svg
   width="500"
   height="500"
   viewBox="0 0 132.29166 132.29167"
   version="1.1"
   id="svg1"
   inkscape:version="1.4.3 (0d15f75042, 2025-12-25)"
   sodipodi:docname="drawing.svg"
   xml:space="preserve"
   xmlns:inkscape="http://www.inkscape.org/namespaces/inkscape"
   xmlns:sodipodi="http://sodipodi.sourceforge.net/DTD/sodipodi-0.dtd"
   xmlns="http://www.w3.org/2000/svg"
   xmlns:svg="http://www.w3.org/2000/svg"><sodipodi:namedview
     id="namedview1"
     pagecolor="#ffffff"
     bordercolor="#999999"
     borderopacity="1"
     inkscape:showpageshadow="2"
     inkscape:pageopacity="0"
     inkscape:pagecheckerboard="0"
     inkscape:deskcolor="#d1d1d1"
     inkscape:document-units="mm"
     inkscape:zoom="0.55307694"
     inkscape:cx="-757.57995"
     inkscape:cy="446.59247"
     inkscape:window-width="2752"
     inkscape:window-height="1080"
     inkscape:window-x="0"
     inkscape:window-y="0"
     inkscape:window-maximized="1"
     inkscape:current-layer="layer1"><inkscape:page
       x="0"
       y="0"
       width="132.29166"
       height="132.29167"
       id="page1"
       margin="0"
       bleed="0" /><inkscape:page
       x="142.29166"
       y="0"
       width="185.20831"
       height="185.20834"
       id="page2"
       margin="0"
       bleed="0" /></sodipodi:namedview><defs
     id="defs1"><inkscape:path-effect
       effect="fillet_chamfer"
       id="path-effect2"
       is_visible="true"
       lpeversion="1"
       nodesatellites_param="F,0,0,1,0,12.595017,0,1 @ F,0,0,1,0,10.203096,0,1 @ F,0,0,1,0,10.203096,0,1 @ F,0,0,1,0,10.203096,0,1"
       radius="38.562883"
       unit="px"
       method="auto"
       mode="F"
       chamfer_steps="1"
       flexible="false"
       use_knot_distance="true"
       apply_no_radius="true"
       apply_with_radius="true"
       only_selected="false"
       hide_knots="false" /></defs><g
     inkscape:label="Layer 1"
     inkscape:groupmode="layer"
     id="layer1"><path
       style="fill:#344054;fill-opacity:1;stroke:#ffffff;stroke-width:0.464161;stroke-dasharray:none;stroke-opacity:1"
       id="rect3"
       width="131.81413"
       height="132.29251"
       x="0.27735117"
       y="0.28396928"
       sodipodi:type="rect"
       ry="0"
       inkscape:path-effect="#path-effect2"
       rx="0"
       d="M 12.872368,0.28396928 H 121.88839 A 10.203096,10.203096 45 0 1 132.09148,10.487065 V 122.37338 a 10.203096,10.203096 135 0 1 -10.20309,10.2031 H 10.480447 A 10.203096,10.203096 45 0 1 0.27735117,122.37338 V 12.878986 A 12.595017,12.595017 135 0 1 12.872368,0.28396928 Z" /></g><path
     d="m 18.090041,9.8579633 c 0.376319,-0.03211 0.745748,-0.08236 1.118707,-0.141856 0.393974,-0.02622 0.393974,-0.02622 0.841218,0.05547 0.626927,0.09648 1.235022,0.10454 1.867156,0.09682 0.121179,-5.04e-4 0.242531,-0.0012 0.367416,-0.0018 0.384215,-0.0021 0.768272,-0.0053 1.152324,-0.0086 0.508933,-0.0045 1.017697,-0.0079 1.526631,-0.01035 0.05851,-8.26e-4 0.05851,-8.26e-4 0.355313,-0.0044 0.279679,-0.0014 0.559352,0.0059 0.838867,0.01479 0.02775,0.02773 0.02775,0.02773 0.168075,0.1680747 0.30758,-0.01613 0.614652,-0.04287 0.921221,-0.07295 1.694038,-0.132948 3.386387,-0.113783 5.084624,-0.107732 0.6123,0.0022 1.224768,0.0032 1.83707,0.004 1.520247,0.0022 3.040488,0.0062 4.560735,0.01025 1.287799,0.0034 2.575423,0.006 3.863221,0.0077 0.598682,10e-4 1.197535,0.0032 1.796224,0.0054 1.751851,0.0039 3.487739,-0.01865 5.235047,-0.146899 0.841896,-0.05328 1.677066,-0.04 2.519798,-0.01564 0.174128,0.004 0.348083,0.0079 0.527418,0.0121 0.369936,0.0084 0.739874,0.01731 1.109804,0.02672 0.981399,0.0247 1.96279,0.04589 2.944183,0.06623 0.198331,0.0041 0.39666,0.0081 0.601039,0.01261 2.296252,0.04472 4.592166,0.03951 6.888749,0.02387 0.145891,-8.26e-4 0.291946,-0.0015 0.442378,-0.0022 0.268411,-0.0014 0.53683,-0.0034 0.805245,-0.0063 0.757185,-0.0034 1.465625,0.05865 2.209867,0.1828657 0,0.166395 0,0.33279 0,0.504228 0.08319,-0.02773 0.08319,-0.02773 0.504226,-0.168076 0,-0.110935 0,-0.22186 0,-0.336152 0.948113,-0.1223587 1.857404,-0.1821937 2.813247,-0.1576547 0.380189,-0.01035 0.380189,-0.01035 0.691968,-0.104889 0.360521,-0.07361 0.360521,-0.07361 0.887778,0.0044 0.666416,0.09244 1.315024,0.114296 1.985983,0.112438 0.12454,1.69e-4 0.249086,3.36e-4 0.37733,5.05e-4 0.2622,0 0.524396,-1.69e-4 0.786422,-10e-4 0.395486,-8.25e-4 0.790629,0 1.186116,0.0012 1.220397,3.36e-4 2.41541,-0.02992 3.630098,-0.159674 0.715834,-0.05429 1.422928,5.05e-4 2.137585,0.05261 0.974673,0.06976 1.845132,0.07748 2.815269,-0.08404 0.311441,-0.01429 0.623222,-0.02185 0.934834,-0.02102 0.149417,-5.03e-4 0.298668,-8.26e-4 0.452461,-0.0014 0.461533,0.02236 0.461533,0.02236 0.932485,0.106388 0.520698,0.08136 1.004421,0.105385 1.53083,0.105716 0.09597,3.36e-4 0.09597,3.36e-4 0.58138,0.0017 0.102351,-1.69e-4 0.102351,-1.69e-4 0.620699,-10e-4 0.212617,1.68e-4 0.425234,3.36e-4 0.644236,5.04e-4 0.448591,0 0.897354,-1.68e-4 1.345947,-10e-4 0.573138,-8.26e-4 1.146113,-3.37e-4 1.719076,6.97e-4 0.549442,7e-4 1.098894,1.69e-4 1.648333,-1.67e-4 0.204711,3.36e-4 0.409594,6.98e-4 0.620708,10e-4 0.191759,-5.04e-4 0.383705,-10e-4 0.58137,-0.0017 0.167902,0 0.335813,-1.69e-4 0.508757,-3.36e-4 0.509436,-0.02252 0.99048,-0.105217 1.493018,-0.189421 0.318002,-0.01444 0.636167,-0.02151 0.954503,-0.02168 0.0918,-3.37e-4 0.0918,-3.37e-4 0.55599,-0.0017 0.098,1.68e-4 0.098,1.68e-4 0.59381,10e-4 0.20387,-1.68e-4 0.40776,-3.36e-4 0.61785,-5.05e-4 0.4306,0 0.86139,1.69e-4 1.29215,10e-4 0.65617,8.26e-4 1.31234,0 1.9685,-0.0012 0.41935,1.68e-4 0.83888,3.37e-4 1.25823,6.99e-4 0.0975,-1.69e-4 0.0975,-1.69e-4 0.59062,-10e-4 2.95762,0.0084 2.95762,0.0084 3.84961,0.5800287 0.50842,0.309429 1.00524,0.569104 1.55468,0.798361 0.59719,0.258332 1.08192,0.540531 1.55471,0.998032 0,0.110935 0,0.221859 0,0.336153 -0.38825,-0.05547 -0.77652,-0.110935 -1.17652,-0.168078 0,0.221861 0,0.44372 0,0.672305 0.21496,0.03815 0.42994,0.07631 0.65129,0.115639 0.37161,0.08992 0.37161,0.08992 0.69332,0.220516 0.2521,0.4412 0.2521,0.4412 0.33614,0.840379 -0.0555,0.05547 -0.11093,0.110935 -0.16808,0.168075 0.0868,0.06237 0.17328,0.124881 0.26254,0.189087 0.2417,0.315141 0.2417,0.315141 0.22068,0.787771 -0.30069,1.095348 -0.8713,1.863959 -1.6073,2.6998 -0.0448,0.0516 -0.0448,0.0516 -0.27178,0.312454 -0.96896,1.104929 -1.97036,2.177252 -3.14218,3.070069 -0.11093,0 -0.22186,0 -0.33615,0 -0.0345,0.09076 -0.0683,0.181523 -0.10366,0.275142 -0.32624,0.557505 -0.78542,0.947946 -1.26191,1.374017 -0.0984,0.08941 -0.19647,0.178666 -0.29766,0.270602 -0.62676,0.567759 -1.2594,1.128798 -1.90312,1.677395 -0.39531,0.354641 -0.76458,0.733148 -1.13973,1.108965 -0.31648,0.299847 -0.63515,0.597509 -0.956,0.892818 -0.16003,0.148579 -0.32019,0.29699 -0.48508,0.449772 -0.40774,0.338167 -0.40774,0.338167 -0.7439,0.338167 -0.0415,0.124881 -0.0832,0.249594 -0.12605,0.37817 -0.22925,0.504227 -0.45532,0.785081 -0.88241,1.134511 -0.16637,0 -0.33278,0 -0.50422,0 -0.0221,0.05075 -0.0221,0.05075 -0.13461,0.307243 -0.21128,0.382541 -0.39548,0.561372 -0.73736,0.827267 -0.592802,0.48389 -1.069133,1.023582 -1.55201,1.615714 -0.265228,0.275139 -0.265228,0.275139 -0.769448,0.443216 0,0.110933 0,0.22186 0,0.336151 -0.110933,0 -0.221867,0 -0.336158,0 0,0.110933 0,0.221859 0,0.336151 -0.110923,0 -0.221857,0 -0.336149,0 0,0.110934 0,0.22186 0,0.336151 -0.110923,0 -0.221857,0 -0.336148,0 -0.04455,0.101011 -0.08901,0.202195 -0.134967,0.306402 -0.209078,0.380354 -0.395991,0.572634 -0.730958,0.843236 -0.102868,0.08504 -0.205726,0.170092 -0.31161,0.257659 -0.215646,0.174798 -0.431453,0.349428 -0.647264,0.523891 -0.592814,0.490615 -0.999044,0.911474 -1.368645,1.598401 -0.744913,0.672302 -0.744913,0.672302 -1.176533,0.672302 -0.03461,0.09698 -0.06941,0.194127 -0.105048,0.294134 -0.312623,0.511621 -0.744743,0.720539 -1.239556,1.050473 -0.117486,0.221186 -0.229763,0.4454 -0.336153,0.672302 -0.274974,0.230432 -0.55583,0.45397 -0.840383,0.672302 -0.424052,0.413467 -0.836676,0.836513 -1.250146,1.260569 -0.459346,0.448256 -0.946098,0.849791 -1.439062,1.260567 -0.283543,0.276651 -0.563895,0.556667 -0.840382,0.84038 -0.280181,0.28018 -0.56019,0.560194 -0.840374,0.840377 -0.05127,0.05226 -0.05127,0.05226 -0.310602,0.316487 -0.625751,0.63415 -1.26242,1.235188 -1.944636,1.808158 -0.497844,0.427753 -0.947611,0.903408 -1.401756,1.376709 -0.103526,0.106387 -0.207064,0.212784 -0.313792,0.32237 -0.09581,0.09967 -0.19161,0.199337 -0.29027,0.302031 -0.276986,0.244214 -0.276986,0.244214 -0.781214,0.412289 -0.288757,0.332118 -0.56591,0.665245 -0.84038,1.008455 -0.283543,0.315142 -0.283543,0.315142 -0.504228,0.504226 -0.110923,0 -0.221858,0 -0.336153,0 0,0.110936 0,0.221861 0,0.336152 -0.110923,0 -0.221859,0 -0.336147,0 0,0.110935 0,0.22186 0,0.336151 -0.25279,0.248754 -0.25279,0.248754 -0.598688,0.535826 -0.59633,0.504059 -1.14342,1.034002 -1.67958,1.601257 -0.242868,0.215978 -0.242868,0.215978 -0.579022,0.215978 0,0.110933 0,0.22186 0,0.33615 -0.239672,0.235642 -0.239672,0.235642 -0.556666,0.493806 -0.313462,0.25682 -0.610446,0.504731 -0.889625,0.798865 -0.234463,0.22001 -0.234463,0.22001 -0.570618,0.22001 -0.04505,0.100506 -0.09008,0.20102 -0.136475,0.304554 -0.199506,0.367412 -0.383886,0.605241 -0.703899,0.871977 -0.110935,0 -0.221858,0 -0.336153,0 0,0.110935 0,0.221858 0,0.336152 -0.242028,0.2027 -0.484897,0.40439 -0.731969,0.600701 -0.276483,0.239677 -0.276483,0.239677 -0.696674,0.754327 -0.437337,0.513973 -0.864921,0.802055 -1.428645,1.166107 -0.287075,0.272955 -0.567423,0.553305 -0.840375,0.840379 -0.570114,0.597508 -1.15216,1.080894 -1.827825,1.5547 -0.793489,0.583894 -1.390157,1.161907 -1.953881,1.967663 -0.279171,0.380354 -0.573304,0.700706 -0.924417,1.015681 -0.110923,0 -0.22186,0 -0.336148,0 0,0.110934 0,0.22186 0,0.33615 -0.104043,0.01379 -0.208081,0.02773 -0.315145,0.04202 -0.117817,0.04169 -0.235639,0.0832 -0.357161,0.126056 -0.02255,0.04857 -0.02255,0.04857 -0.136478,0.294133 -0.218834,0.414306 -0.374134,0.521877 -0.756336,0.77735 -0.427084,0.287075 -0.750798,0.563895 -1.071655,0.966435 -0.33531,0.416995 -0.609608,0.707264 -1.060894,0.987449 -0.110923,0 -0.22186,0 -0.336146,0 -0.04555,0.09827 -0.09093,0.196653 -0.137823,0.297994 -0.19682,0.371623 -0.409774,0.663909 -0.681551,0.983586 -0.08268,0.09913 -0.165552,0.198498 -0.25077,0.300682 -0.296654,0.288081 -0.5765,0.424218 -0.946766,0.602722 -0.138662,0.138655 -0.277328,0.277324 -0.420191,0.420185 -0.420189,0.420198 -0.420189,0.420198 -0.787939,0.598688 -0.401198,0.207739 -0.445068,0.427249 -0.640705,0.829957 -0.700873,0.735339 -1.453348,1.41839 -2.195406,2.111366 -0.882898,0.826767 -1.755384,1.660597 -2.605172,2.521136 -1.975561,1.996237 -1.975561,1.996237 -2.762827,2.258601 -0.04771,0.09729 -0.0953,0.194638 -0.14438,0.294804 -0.264383,0.520535 -0.638519,0.821044 -1.074171,1.20746 -0.08355,0.07444 -0.166899,0.149083 -0.252955,0.225891 -0.415146,0.369606 -0.836175,0.729448 -1.270143,1.076699 -0.363552,0.312614 -0.642224,0.601195 -0.945598,0.966425 -0.613476,0.737858 -1.271153,1.467136 -2.195405,1.775226 -0.107392,0.162857 -0.214969,0.325898 -0.325731,0.493803 -0.34657,0.514643 -0.34657,0.514643 -0.66692,0.672306 -0.432463,0.219328 -0.646421,0.486238 -0.950639,0.861224 -0.522376,0.643387 -0.522376,0.643387 -1.082074,0.829944 0,0.110984 0,0.221869 0,0.336153 -0.909622,0.672305 -0.909622,0.672305 -1.3446,0.672305 -0.05546,0.166391 -0.110935,0.332793 -0.16808,0.504232 -0.166391,0.110983 -0.332788,0.221856 -0.504229,0.336153 -0.06924,0.128229 -0.13866,0.256471 -0.210088,0.388589 -0.336992,0.517675 -0.681385,0.744238 -1.186451,1.082738 -0.395814,0.291613 -0.654816,0.663397 -0.956516,1.049809 -0.288586,0.262192 -0.586249,0.511282 -0.885762,0.760874 -0.400186,0.340688 -0.764405,0.711627 -1.131145,1.087944 -0.58911,0.604235 -1.183084,1.16293 -1.848836,1.680765 -0.110922,0 -0.221861,0 -0.336146,0 0,0.110858 0,0.221857 0,0.336157 -0.166397,0.110859 -0.332793,0.221848 -0.504229,0.336149 -0.05544,0.166393 -0.110933,0.332795 -0.168078,0.504227 -0.23379,0.235645 -0.23379,0.235645 -0.546244,0.493815 -0.464898,0.39213 -0.918534,0.79162 -1.361753,1.20795 -0.09765,0.0915 -0.195299,0.18337 -0.295809,0.27784 -0.196316,0.1847 -0.392123,0.37026 -0.587259,0.55632 -0.701548,0.657524 -0.701548,0.657524 -1.074674,0.657524 -0.05545,0.166377 -0.110934,0.332787 -0.168079,0.504217 -0.110921,0 -0.221861,0 -0.336146,0 -0.05545,0.16639 -0.110936,0.3328 -0.16808,0.50422 -0.286903,0.29481 -0.286903,0.29481 -0.640704,0.59869 -0.11564,0.10085 -0.231101,0.20153 -0.350103,0.30541 -0.353794,0.27244 -0.353794,0.27244 -0.724069,0.45699 -0.302034,0.1516 -0.302034,0.1516 -0.459688,0.46674 -0.24337,0.48675 -0.577675,0.72071 -1.018874,1.02946 -0.110933,0 -0.22186,0 -0.336152,0 -0.04218,0.099 -0.08454,0.19799 -0.128072,0.30001 -0.234128,0.41868 -0.480526,0.64508 -0.848786,0.95013 -0.39901,0.33699 -0.775158,0.66995 -1.145095,1.03988 -0.44994,0.44994 -0.905258,0.84878 -1.407638,1.23957 -0.110922,0 -0.221859,0 -0.336146,0 0,0.11098 0,0.22185 0,0.33614 -0.09363,0.009 -0.09363,0.009 -0.567256,0.0525 -0.201018,0.0382 -0.402041,0.0764 -0.609279,0.11564 -0.110921,0.16639 -0.221859,0.33277 -0.336146,0.50423 -1.330323,0.25748 -1.330323,0.25748 -2.016909,0 -0.173626,-0.46861 -0.17564,-0.65013 -0.01036,-1.13453 0.05883,-0.1247 0.117827,-0.24959 0.178499,-0.37816 -0.221861,0 -0.443721,0 -0.672303,0 -0.05544,0.11098 -0.110934,0.22186 -0.168079,0.33614 -0.110922,0 -0.221861,0 -0.336148,0 -0.05544,0.22187 -0.110935,0.44373 -0.16808,0.67232 -0.05547,-0.1664 -0.05547,-0.1664 -0.336147,-1.00846 -0.22186,0.0554 -0.44372,0.11098 -0.672307,0.16806 -0.02769,-0.0833 -0.02769,-0.0833 -0.168075,-0.50422 -0.221859,0.0555 -0.443718,0.11098 -0.6723,0.16808 0,-0.22187 0,-0.44373 0,-0.6723 -0.16808,-0.50422 -0.16808,-0.50422 -0.672305,-0.84038 -0.208751,-0.67263 -0.277491,-1.38158 -0.03342,-2.049 0.119661,-0.22254 0.244049,-0.44254 0.37296,-0.65985 0.245898,-0.4723 0.261023,-0.97016 0.332794,-1.49303 0.252109,-0.29413 0.252109,-0.29413 0.504227,-0.50423 0.05545,-0.16638 0.110922,-0.33279 0.168072,-0.504217 0.162865,-0.052 0.3259,-0.10404 0.493811,-0.15765 0.514644,-0.1785 0.514644,-0.1785 0.703733,-0.472634 0.04859,-0.12472 0.09715,-0.24961 0.147063,-0.37818 0.487587,-0.91415 1.109466,-1.35435 1.976236,-1.91387 0.37682,-0.271108 0.37682,-0.271108 0.712975,-0.775344 0.110923,0 0.22186,0 0.336155,0 0.02249,-0.0519 0.02249,-0.0519 0.136475,-0.315148 0.19967,-0.35715 0.19967,-0.35715 0.703899,-0.693316 0.283713,-0.252105 0.283713,-0.252105 0.504226,-0.504219 0,-0.110989 0,-0.221867 0,-0.336149 0.449774,-0.539688 0.943578,-0.823065 1.557391,-1.152163 0.318334,-0.210259 0.510447,-0.427408 0.743231,-0.728263 0.388593,-0.472634 0.388593,-0.472634 0.777181,-0.6197 0.04689,-0.0037 0.04689,-0.0037 0.283714,-0.02103 0,-0.16639 0,-0.332793 0,-0.50423 0.276485,-0.252111 0.276485,-0.252111 0.640703,-0.504231 0.355313,-0.248406 0.676841,-0.476324 0.979043,-0.787935 0.229089,-0.220512 0.229089,-0.220512 0.565236,-0.220512 -0.01063,-0.09888 -0.02135,-0.197484 -0.03228,-0.29935 -0.115641,-1.10711 -0.201519,-2.21339 -0.261862,-3.324691 -0.01149,-0.164214 -0.02299,-0.328258 -0.03482,-0.497337 -0.05075,-0.971316 0.02236,-1.723289 0.389266,-2.628381 0.15009,-0.431442 0.08572,-0.723899 -0.06034,-1.149791 -0.178664,-0.579877 -0.189756,-1.114848 -0.190429,-1.7201 -1.7e-4,-0.204207 -3.36e-4,-0.408256 -6.35e-4,-0.618513 6.35e-4,-0.212787 0.0013,-0.425564 0.0019,-0.644745 -6.33e-4,-0.210086 -0.0013,-0.420356 -0.0019,-0.636835 0.0019,-1.726138 0.0019,-1.726138 0.112951,-2.521808 0.07245,-0.538846 0.06941,-0.97904 0.0044,-1.515869 -0.191942,-1.798082 -0.191942,-1.798082 0.07362,-2.594756 0.02922,-0.699867 -0.01498,-1.372505 -0.08403,-2.069355 -0.122021,-1.274171 -0.112609,-2.491885 0.04585,-3.760858 0.06724,-0.686254 0.08456,-1.381078 0.03817,-2.069348 -0.05545,-0.05547 -0.110921,-0.110935 -0.168072,-0.168077 -0.008,-0.407583 -0.0071,-0.8113 0,-1.218548 0.01198,-1.088627 -0.03881,-2.155068 -0.14774,-3.239323 -0.02033,-0.416322 -0.02033,-0.416322 0.14774,-0.752475 0,-0.221861 0,-0.443721 0,-0.672302 0,-0.672303 0,-0.672303 0.168072,-1.008455 0.02319,-0.721549 0.01951,-1.32057 -0.168072,-2.016908 0.05544,-0.110935 0.110922,-0.221862 0.168072,-0.336152 -0.110921,0 -0.221858,0 -0.336147,0 0,-0.110934 0,-0.22186 0,-0.336151 0.166389,0 0.332787,0 0.504228,0 -0.05533,-0.09547 -0.110433,-0.191103 -0.167407,-0.289595 -0.185054,-0.419517 -0.199004,-0.674487 -0.17917,-1.128627 0.01379,-0.562718 -0.01595,-1.058037 -0.157651,-1.607141 0.110924,0 0.22186,0 0.336147,0 -0.02623,-0.103368 -0.0524,-0.206734 -0.0795,-0.313126 -0.03258,-0.135972 -0.06538,-0.271778 -0.09899,-0.411617 -0.03328,-0.134628 -0.0664,-0.269258 -0.100504,-0.407752 -0.05711,-0.380186 -0.05711,-0.380186 0.110935,-0.884413 -0.05902,-0.166394 -0.117817,-0.332791 -0.178498,-0.504227 -0.02605,-0.0832 -0.02605,-0.0832 -0.157657,-0.504228 0.110937,-0.166394 0.221861,-0.332789 0.336155,-0.504226 -0.04727,-0.393298 -0.105058,-0.785418 -0.168074,-1.176529 -0.03309,-0.711654 -0.05849,-1.337065 0.168091,-2.01693 -0.05544,-0.110935 -0.110934,-0.221862 -0.168073,-0.336151 -0.01664,-0.491622 -0.02287,-0.979378 -0.02165,-1.471168 -1.66e-4,-0.07647 -1.66e-4,-0.07647 -0.0013,-0.463384 -6.34e-4,-0.511287 -1.71e-4,-1.022571 3.36e-4,-1.534026 0,-0.361195 -1.71e-4,-0.722391 -5.07e-4,-1.083584 -1.64e-4,-0.763905 1.71e-4,-1.527977 0.0013,-2.292048 6.35e-4,-0.953662 3.36e-4,-1.907157 -6.34e-4,-2.860819 -0.0044,-5.058742 0.05964,-10.113114 0.190597,-15.170175 -0.0529,0.0025 -0.0529,0.0025 -0.321192,0.01514 -0.485404,0.02268 -0.970802,0.04521 -1.456037,0.06757 -0.166731,0.0079 -0.333631,0.01562 -0.505409,0.02387 -1.666969,0.07664 -3.287389,0.114455 -4.944614,-0.10656 0,-0.110934 0,-0.221859 0,-0.336151 -0.09195,0.01379 -0.09195,0.01379 -0.556666,0.08403 -0.619869,0.08404 -0.619869,0.08404 -1.124095,0.08404 -0.142187,0.0069 -0.284216,0.01395 -0.430609,0.02101 -0.409771,-0.02101 -0.409771,-0.02101 -0.745923,-0.357158 -0.166399,-0.01036 -0.332794,-0.02083 -0.504229,-0.0316 -1.150477,-0.13009 -2.300788,-1.124089 -3.0253633,-1.985309 0,-0.22186 0,-0.443721 0,-0.672302 0.1663766,-0.110954 0.3327743,-0.221879 0.5042083,-0.33617 -0.110922,-0.166395 -0.2218604,-0.33279 -0.3361529,-0.504227 0.00381,-0.490445 0.00381,-0.490445 0.063013,-1.040054 0.018683,-0.18253 0.037284,-0.365228 0.056468,-0.553306 0.015936,-0.139838 0.032093,-0.279509 0.048589,-0.423551 0.110922,0 0.221861,0 0.336148,0 0,0.166396 0,0.332791 0,0.504227 0.09715,-0.0242 0.194131,-0.04857 0.294131,-0.07363 0.350105,-0.0874 0.700373,-0.174966 1.050477,-0.262534 -0.110895,-0.166427 -0.221832,-0.332822 -0.336127,-0.504258 -0.166389,0 -0.332786,0 -0.504227,0 0,-0.221862 0,-0.443722 0,-0.672304 -0.05545,-0.110907 -0.110931,-0.221829 -0.168081,-0.336123 0.04687,-0.281862 0.102196,-0.562381 0.168073,-0.840378 0.166397,0 0.332793,0 0.504227,0 0.05545,-0.277324 0.110935,-0.554648 0.168081,-0.840377 0.505905,-0.1569837 0.649946,-0.1754717 1.176528,0 0.392456,-0.05395 0.784575,-0.1102627 1.176529,-0.1680767 0.449437,-0.01412 0.894835,-0.0079 1.344608,0 0,0.1663947 0,0.3327897 0,0.5042267 0.110923,0 0.221859,0 0.336154,0 0,-0.110935 0,-0.221859 0,-0.33615 0.917016,-0.2465687 1.578734,-0.3447237 2.521135,-0.1680767 z M 74.73155,10.194114 c 0.6723,0.168076 0.6723,0.168076 0.6723,0.168076 z m 36.30435,0.504227 c 0,0.110935 0,0.22186 0,0.336151 0.11092,0 0.22185,0 0.33615,0 0,-0.110935 0,-0.22186 0,-0.336151 -0.11095,0 -0.22187,0 -0.33615,0 z m 1.51268,0.840377 c 0.0555,0.110936 0.11092,0.221861 0.16808,0.336153 0.11091,-0.05547 0.22186,-0.110934 0.33614,-0.168077 -0.16639,-0.05547 -0.33278,-0.110933 -0.50422,-0.168076 z m -80.676335,7.563408 c -0.130428,0.462882 -0.189252,0.874163 -0.189761,1.354522 -6.34e-4,0.132445 -0.0013,0.265057 -0.0019,0.401533 3.37e-4,0.142025 6.35e-4,0.283879 0.0013,0.430275 -1.72e-4,0.147906 -3.37e-4,0.295982 -5.08e-4,0.448426 0,0.313462 1.71e-4,0.626754 0.0013,0.940217 6.34e-4,0.474645 0,0.94929 -0.0013,1.423935 1.65e-4,0.305563 3.36e-4,0.611125 6.35e-4,0.916517 -3.36e-4,0.140007 -6.35e-4,0.280015 -0.0013,0.424222 0.0032,0.853321 0.06168,1.687146 0.154123,2.535255 0.04134,0.409433 0.05433,0.810799 0.04771,1.222079 -0.0013,0.149754 -0.0025,0.299509 -0.0044,0.453636 -0.0019,0.161689 -0.0038,0.323378 -0.0063,0.489941 -0.0095,1.472007 0.01209,2.940148 0.05984,4.411314 0.114626,3.548751 0.127398,7.096829 0.128918,10.647092 3.3e-4,0.423719 0.0013,0.847438 0.0019,1.271158 6.37e-4,0.67684 0.0013,1.353681 1.71e-4,2.030522 -1.71e-4,0.252113 0,0.504227 3.38e-4,0.756508 0.0013,1.213339 -0.0038,2.413567 -0.162025,3.618839 -0.04104,0.486916 0.02839,0.941729 0.09429,1.423767 0.09983,0.962403 0.06874,1.934386 0.06588,2.900987 6.36e-4,0.217155 0.0013,0.434309 0.0019,0.658185 -1.65e-4,0.104868 -1.65e-4,0.104868 -6.36e-4,0.635831 -1.65e-4,0.09464 -1.65e-4,0.09464 -6.35e-4,0.573642 -0.02134,0.528935 -0.09832,1.025597 -0.189755,1.546296 0.02625,0.43061 0.02625,0.43061 0.08403,0.84038 0.0664,0.470275 0.08554,0.83147 0.0065,1.301914 -0.115127,0.694825 -0.115468,1.367295 -0.111593,2.070019 1.63e-4,0.142865 3.29e-4,0.28573 6.34e-4,0.432965 0.0044,0.761717 0.03545,1.508648 0.114797,2.266835 0.09581,1.049638 0.04911,2.079769 0,3.130409 -0.16975,3.662374 -0.08791,7.305411 0.07362,10.966941 0.04859,-0.06319 0.04859,-0.06319 0.294805,-0.383383 0.328086,-0.397329 0.646422,-0.715501 1.039379,-1.045263 0.533645,-0.456156 1.034004,-0.925258 1.523106,-1.428644 0.336146,-0.336141 0.336146,-0.336141 0.745919,-0.472634 0.542716,-0.251607 0.637509,-0.532123 0.934835,-1.040043 0.42019,-0.273121 0.42019,-0.273121 0.84038,-0.504232 0.04675,-0.04681 0.04675,-0.04681 0.283708,-0.283704 0.07277,-0.07285 0.145554,-0.145549 0.220519,-0.220524 0.110923,0 0.22186,0 0.336147,0 0,-0.277325 0,-0.554649 0,-0.84037 0.04505,-0.02079 0.04505,-0.02079 0.273125,-0.126055 1.350489,-0.710796 1.350489,-0.710796 1.57571,-1.386623 0.110934,0 0.22186,0 0.336155,0 0.05545,0.11086 0.05545,0.11086 0.336147,0.672294 0.221858,-0.16639 0.443718,-0.332793 0.672306,-0.50423 -0.110935,-0.332791 -0.22186,-0.665571 -0.336154,-1.008447 0.152447,-0.06942 0.305059,-0.138667 0.462212,-0.210098 0.524726,-0.282533 0.850291,-0.502543 1.218543,-0.966428 0.126058,-0.462218 0.126058,-0.462218 0.168081,-0.840381 0.166395,0 0.332786,0 0.504226,0 0.110923,-0.166402 0.221861,-0.332792 0.336147,-0.50423 0.142195,-0.08324 0.284216,-0.166403 0.430614,-0.25212 0.409766,-0.25211 0.409766,-0.25211 0.577841,-0.756339 0.110934,-0.05549 0.22186,-0.110861 0.336153,-0.168064 0.158831,-0.178001 0.312288,-0.360869 0.462206,-0.546253 0.54541,-0.64709 1.134684,-1.193515 1.844298,-1.661769 0.574314,-0.380016 0.974164,-0.732807 1.370151,-1.300565 0.472796,-0.673144 1.022906,-1.114006 1.680755,-1.600585 0.449102,-0.338505 0.824748,-0.688774 1.197543,-1.109636 0,-0.110937 0,-0.221861 0,-0.336152 0.110934,0 0.22186,0 0.336154,0 0.173791,-0.162026 0.341026,-0.331445 0.504226,-0.504228 0.215806,-0.190597 0.432959,-0.379514 0.651294,-0.567256 0.661373,-0.576667 1.303595,-1.148123 1.837736,-1.848159 0.386237,-0.463552 0.788953,-0.812982 1.261074,-1.187792 0.543389,-0.434139 1.07854,-0.870127 1.596717,-1.334017 0.371448,-0.325898 0.630621,-0.485907 1.092491,-0.703733 0.451787,-0.241691 0.451787,-0.241691 0.598855,-0.619862 0.302034,-0.738356 0.931473,-1.136192 1.533695,-1.638737 0.561876,-0.533138 1.072822,-1.10157 1.586293,-1.680758 0.432627,-0.486242 0.856179,-0.939039 1.36545,-1.344607 0.135301,-0.110932 0.270432,-0.221859 0.409764,-0.336151 0,-0.110935 0,-0.221859 0,-0.336149 0.09363,-0.04169 0.18724,-0.0832 0.283715,-0.126059 0.636334,-0.344051 1.139212,-0.792646 1.649158,-1.302587 0.420191,-0.420189 0.420191,-0.420189 0.892819,-0.787939 0.12135,-0.100504 0.242704,-0.201017 0.367751,-0.304552 0,-0.110935 0,-0.22186 0,-0.336152 0.110923,0 0.221861,0 0.336148,0 0.357162,-0.315141 0.357162,-0.315141 0.672309,-0.672303 0,-0.110934 0,-0.22186 0,-0.336151 0.09948,-0.01445 0.19883,-0.02908 0.301353,-0.04403 0.473305,-0.158329 0.623564,-0.373632 0.927613,-0.764744 0.384559,-0.464729 0.700538,-0.789284 1.239729,-1.061063 0.647086,-0.366236 0.82911,-0.70575 1.228967,-1.323596 1.184258,-1.201572 1.184258,-1.201572 2.016908,-1.344605 0.01379,-0.100505 0.02769,-0.20102 0.04198,-0.304555 0.160515,-0.468426 0.402543,-0.591119 0.798358,-0.871976 0,-0.110936 0,-0.221859 0,-0.336151 0.110936,0 0.221862,0 0.336155,0 0.104045,-0.13177 0.208081,-0.263375 0.315147,-0.399179 0.346063,-0.427417 0.540695,-0.565576 1.029461,-0.77735 0.110922,-0.110934 0.22186,-0.221861 0.336148,-0.336152 0.117828,-0.0832 0.235644,-0.166395 0.357159,-0.252112 0.104044,-0.0832 0.20808,-0.166395 0.315148,-0.252115 0,-0.110934 0,-0.22186 0,-0.336151 0.09698,-0.03462 0.194124,-0.06924 0.294132,-0.105049 0.378167,-0.231103 0.378167,-0.231103 0.682725,-0.703733 0.3817,-0.556162 0.70541,-0.797183 1.254007,-1.160225 0.453471,-0.337496 0.771133,-0.791134 1.130646,-1.224434 0.336152,-0.224043 0.672305,-0.448256 1.008454,-0.672301 0.148748,-0.174294 0.292281,-0.353128 0.430613,-0.535826 0.409768,-0.472628 0.409768,-0.472628 0.882396,-0.619693 0.121349,-0.0069 0.242703,-0.01379 0.367751,-0.02103 0.01199,-0.125889 0.02389,-0.251777 0.03614,-0.381531 0.169085,-0.587929 0.40288,-0.733314 0.898703,-1.07871 0.253796,-0.178496 0.503891,-0.36254 0.745921,-0.556668 0,-0.110933 0,-0.22186 0,-0.336151 0.110934,0 0.221859,0 0.336152,0 0,-0.110934 0,-0.22186 0,-0.336151 0.0642,-0.02252 0.0642,-0.02252 0.388587,-0.136478 0.442379,-0.19547 0.629447,-0.36321 0.956015,-0.7039 0.367751,-0.199675 0.367751,-0.199675 0.672306,-0.336153 0,-0.221859 0,-0.443719 0,-0.672303 0.166392,0 0.332787,0 0.504229,0 0.672299,-0.729951 0.672299,-0.729951 0.672299,-1.176527 0.5602,-0.280183 1.120564,-0.560198 1.680757,-0.84038 0,-0.166396 0,-0.332789 0,-0.504227 0.08841,-0.01379 0.08841,-0.01379 0.53583,-0.08404 0.601877,-0.163202 0.800207,-0.414474 1.113333,-0.945426 0.06353,-0.12169 0.127062,-0.243542 0.192441,-0.368924 0.02891,-0.04656 0.02891,-0.04656 0.175303,-0.282369 0.110936,0 0.22186,0 0.336154,0 0,-0.166395 0,-0.332789 0,-0.504227 0.110935,0 0.22186,0 0.336154,0 0.07967,-0.07967 0.159504,-0.159503 0.241692,-0.241691 0.262534,-0.262537 0.262534,-0.262537 0.766758,-0.430612 0.04507,-0.09714 0.09009,-0.194129 0.136483,-0.294133 0.371953,-0.704404 1.06157,-1.120897 1.712353,-1.5547 0,-0.110935 0,-0.221859 0,-0.336151 0.332791,-0.05547 0.665581,-0.110934 1.008455,-0.168077 0,-0.221859 0,-0.443718 0,-0.672302 0.110933,0 0.221858,0 0.336149,0 0,-0.110934 0,-0.221859 0,-0.336152 0.110933,0 0.221867,0 0.336157,0 0.273129,-0.231104 0.273129,-0.231104 0.504229,-0.504226 0,-0.110934 0,-0.221862 0,-0.336152 -0.07291,1.69e-4 -0.07291,1.69e-4 -0.442387,0.0012 -1.38695,0.0034 -2.773747,0.0059 -4.160541,0.0076 -0.712645,8.25e-4 -1.425283,0.002 -2.138093,0.0038 -0.689784,0.0018 -1.379567,0.0028 -2.069513,0.0034 -0.261022,3.35e-4 -0.522213,8.23e-4 -0.783236,0.0018 -0.370272,0.0012 -0.740372,0.0014 -1.110644,0.0014 -0.104711,1.69e-4 -0.104711,1.69e-4 -0.634485,10e-4 -0.641207,-0.0088 -1.277208,-0.05647 -1.916735,-0.10437 -1.490157,-0.103198 -2.974266,-0.105048 -4.467451,-0.100334 -0.302708,3.36e-4 -0.605245,6.99e-4 -0.907947,8.25e-4 -0.646419,5.04e-4 -1.293004,0.0015 -1.939592,0.0031 -1.024588,0.0022 -2.049179,0.0032 -3.073768,0.004 -2.175064,0.0018 -4.350138,0.0053 -6.525202,0.0086 -2.34903,0.0037 -4.69805,0.0072 -7.047079,0.009 -1.016184,8.27e-4 -2.032369,0.0025 -3.048726,0.0049 -0.634486,0.0012 -1.269135,0.0018 -1.903791,0.0022 -0.29161,3.36e-4 -0.583226,8.27e-4 -0.874835,0.0018 -1.551673,0.0046 -3.08469,-0.0252 -4.631998,-0.151772 -1.011478,-0.06152 -2.018922,-0.006 -3.030406,0.03951 -0.458509,0.01782 -0.917355,0.03429 -1.376034,0.05044 -0.0573,0.002 -0.0573,0.002 -0.347746,0.01245 -2.97528,0.101011 -5.949379,0.04874 -8.922468,-0.09144 -0.09261,-0.004 -0.09261,-0.004 -0.561545,-0.0247 -0.162864,-0.0079 -0.325557,-0.0158 -0.493299,-0.02403 -0.454139,0.0037 -0.850629,0.07598 -1.293173,0.171773 -0.402543,-0.02621 -0.402543,-0.02621 -0.808784,-0.08403 -0.778864,-0.09227 -1.444443,-0.04472 -2.216578,0.08403 z m -8.235706,38.825488 c -0.05545,0.110934 -0.110935,0.221861 -0.16808,0.336153 0.110934,0 0.221859,0 0.336153,0 -0.05545,-0.110935 -0.110936,-0.221859 -0.168073,-0.336153 z m 14.958733,18.152181 c -0.05545,0.110862 -0.110923,0.221859 -0.168075,0.336155 0.166398,-0.05549 0.332788,-0.110985 0.504228,-0.168089 C 38.82049,76.192371 38.709566,76.137 38.595272,76.079795 Z M 18.762342,94.23196 c 0.05547,0.166396 0.110923,0.332801 0.168073,0.504218 0.05545,-0.166376 0.110934,-0.332772 0.16808,-0.504218 -0.110934,0 -0.22186,0 -0.336153,0 z m 9.412239,3.025369 c -0.110933,0.22185 -0.221859,0.44373 -0.336152,0.6723 0.22186,-0.16639 0.44372,-0.33279 0.672301,-0.50423 -0.110923,-0.0554 -0.22186,-0.11086 -0.336149,-0.16807 z m -1.512678,1.34462 c 0.168072,0.33613 0.168072,0.33613 0.168072,0.33613 z m -6.218808,5.882621 c 0,0.11098 0,0.22185 0,0.33616 0.110935,-0.0555 0.221861,-0.11099 0.336155,-0.16809 -0.110933,-0.0554 -0.221861,-0.11097 -0.336155,-0.16807 z m -4.874191,1.68076 c -0.166395,0.16638 -0.332792,0.33279 -0.504226,0.50423 0.05547,0.11098 0.110922,0.22185 0.168074,0.33616 0.166396,-0.0555 0.332785,-0.111 0.504226,-0.16809 0.05546,-0.16641 0.110923,-0.33279 0.168074,-0.50422 -0.110923,-0.0555 -0.22186,-0.11099 -0.336148,-0.16808 z"
     fill="#ffffff"
     id="path1"
     style="stroke-width:0.168075" /><path
     d="m 115.69169,28.044797 c 0.24658,0 0.49316,0 0.74721,0 0,0.184931 0,0.369863 0,0.560399 0.0424,-0.04634 0.0424,-0.04634 0.25684,-0.2802 0.30354,-0.280199 0.30354,-0.280199 0.67715,-0.280199 0.12329,0.184931 0.24658,0.369863 0.3736,0.560399 0.24657,-0.06165 0.49315,-0.123288 0.74721,-0.186801 0,0.246575 0,0.493151 0,0.747199 0.1541,0.03081 0.1541,0.03081 0.93398,0.1868 0,0.184932 0,0.369864 0,0.560399 0.1233,0.06165 0.24658,0.123287 0.3736,0.186799 -0.0617,0.123288 -0.12328,0.246576 -0.18679,0.373599 0.30822,0 0.61643,0 0.93399,0 -0.12328,0.30822 -0.24657,0.616439 -0.3736,0.933998 0.24658,-0.06165 0.49317,-0.123287 0.74721,-0.186799 -0.0617,0.554795 -0.1233,1.10959 -0.18681,1.681197 0.18494,0.06165 0.36987,0.123288 0.56041,0.186799 -0.24285,1.493836 -0.69041,2.329204 -1.81028,3.343339 -0.38462,0.350063 -0.70069,0.70162 -1.02684,1.104733 -0.71152,0.83406 -1.54223,1.520363 -2.3817,2.220674 -0.66033,0.55162 -1.27902,1.119489 -1.87958,1.737236 -0.50865,0.518743 -1.01898,1.035804 -1.52952,1.552678 -0.13504,0.13842 -0.27029,0.276838 -0.40965,0.419366 -0.12944,0.130572 -0.2589,0.261145 -0.39209,0.395829 -0.11732,0.119177 -0.23461,0.238542 -0.35566,0.361456 -0.30186,0.259465 -0.30186,0.259465 -0.67546,0.259465 -0.0214,0.05268 -0.0214,0.05268 -0.12909,0.318867 -0.3114,0.545456 -0.69789,0.887299 -1.16693,1.304048 -0.16346,0.147011 -0.3269,0.294208 -0.4954,0.445703 -0.45019,0.359776 -0.45019,0.359776 -1.01058,0.546576 -0.0617,0.184932 -0.12329,0.369863 -0.1868,0.560399 -0.29439,0.261333 -0.60057,0.50959 -0.91214,0.750187 -1.13631,0.907286 -2.15529,1.901061 -3.17411,2.939106 -0.16998,0.171668 -0.33996,0.343338 -0.51518,0.520236 -0.31458,0.317933 -0.62896,0.63624 -0.9426,0.95492 -1.33749,1.355792 -1.33749,1.355792 -1.96364,1.928893 -0.10329,0.09471 -0.20641,0.189414 -0.3127,0.287111 -0.104614,0.09564 -0.209214,0.19147 -0.317004,0.289913 -0.21071,0.192777 -0.421042,0.385741 -0.631199,0.578704 -0.09863,0.09041 -0.197069,0.180636 -0.298691,0.273662 -0.239846,0.225841 -0.469988,0.462143 -0.698064,0.699752 -0.321858,0.304296 -0.321858,0.304296 -0.695464,0.304296 0,0.123288 0,0.246576 0,0.373599 -0.280941,0.283189 -0.280941,0.283189 -0.665376,0.607099 -0.136361,0.116002 -0.272723,0.232191 -0.413016,0.351744 -0.137298,0.115068 -0.274589,0.230136 -0.415996,0.348755 -1.219055,1.030011 -1.219055,1.030011 -1.763017,1.587796 -0.512389,0.500062 -1.054298,0.896638 -1.642345,1.302554 -0.330633,0.285244 -0.330633,0.285244 -0.491845,0.625966 -0.319985,0.612515 -0.825838,1.024595 -1.333187,1.480573 -0.102175,0.09471 -0.204173,0.189228 -0.30934,0.286738 -0.763258,0.693961 -0.763258,0.693961 -1.185053,0.693961 -0.04801,0.111331 -0.09584,0.222477 -0.145143,0.337173 -0.249003,0.446824 -0.496327,0.676588 -0.893843,0.993772 -0.624093,0.500811 -0.624093,0.500811 -0.829016,0.910648 -0.123283,0 -0.246574,0 -0.373593,0 -0.06164,0.184933 -0.123292,0.369864 -0.186805,0.560399 -0.123284,0 -0.246574,0 -0.373594,0 -0.06164,0.184933 -0.123291,0.369863 -0.186805,0.560403 -0.339974,0.288229 -0.339974,0.288229 -0.770543,0.595516 -0.733188,0.550868 -1.313575,1.132002 -1.900873,1.832876 -0.329893,0.388357 -0.673227,0.756354 -1.029453,1.120798 -0.105359,0.10778 -0.210527,0.215751 -0.319056,0.326898 -0.27646,0.233501 -0.27646,0.233501 -0.650063,0.233501 0,0.123284 0,0.246576 0,0.373601 -0.307094,0.25442 -0.619238,0.502491 -0.933999,0.747196 -0.314382,0.308218 -0.625028,0.62036 -0.933994,0.934 -2.801436,2.832255 -2.801436,2.832255 -3.931574,3.785678 -0.656784,0.583189 -1.26332,1.219244 -1.876777,1.847448 -0.39433,0.395453 -0.805851,0.761585 -1.230258,1.124533 -1.168807,1.011711 -2.230016,2.136052 -3.309717,3.240788 -0.166626,0.168682 -0.333437,0.337361 -0.505104,0.511268 -0.148884,0.152054 -0.297761,0.304116 -0.451312,0.460836 -0.463632,0.424223 -0.463632,0.424223 -1.057843,0.818187 -0.526587,0.353232 -0.526587,0.353232 -0.900189,0.913631 -0.123284,0 -0.246577,0 -0.373594,0 0,0.184934 0,0.369867 0,0.560399 -0.184934,0.06164 -0.369868,0.123291 -0.560399,0.186804 -0.154117,0.15411 -0.308224,0.308218 -0.467,0.466994 -0.467001,0.466999 -0.467001,0.466999 -1.027399,0.653804 0,0.184926 0,0.369859 0,0.560399 -0.123293,0 -0.246576,0 -0.373602,0 -0.04971,0.110582 -0.09919,0.220983 -0.150374,0.334925 -0.503423,0.929709 -1.39987,1.613766 -2.196199,2.29185 -0.871793,0.749251 -1.671672,1.567995 -2.475286,2.388793 -0.632688,0.642027 -1.284056,1.240719 -1.973352,1.821294 -0.534057,0.46065 -1.017867,0.968372 -1.507283,1.475356 -0.286551,0.296627 -0.574407,0.592157 -0.862262,0.887664 -0.09657,0.10106 -0.192968,0.2023 -0.292348,0.306527 -0.517995,0.527714 -0.857037,0.785504 -1.564069,0.954364 -0.186804,0.326887 -0.186804,0.326887 -0.3736,0.747197 -0.404045,0.58356 -0.807348,0.99452 -1.389415,1.38942 -0.546575,0.37173 -0.93064,0.7726 -1.340291,1.29657 -0.637919,0.74571 -1.376897,1.48488 -2.313883,1.7972 -0.06164,0.18493 -0.123286,0.36987 -0.186799,0.5604 -0.64334,0.5604 -0.64334,0.5604 -1.120797,0.5604 -0.538547,0.48194 -0.943524,0.94856 -1.342719,1.55267 -0.111705,0.16569 -0.22341,0.33139 -0.338478,0.50212 -0.12329,0 -0.246575,0 -0.3736,0 -0.02316,0.0751 -0.02316,0.0751 -0.140101,0.45542 -0.07715,0.15784 -0.15411,0.31589 -0.233501,0.47858 -0.247134,0.0695 -0.496322,0.13188 -0.747196,0.1868 -0.125155,0.24882 -0.249562,0.49783 -0.373601,0.7472 -0.837793,1.05318 -1.728457,1.94739 -2.828329,2.71962 -0.671921,0.52079 -1.273417,1.1873 -1.654862,1.95038 0.156354,-0.0134 0.312517,-0.027 0.473537,-0.0409 1.459283,-0.11638 2.885869,-0.15898 4.349634,-0.13432 0.499689,-0.01 0.867121,-0.0661 1.341216,-0.19839 0.785498,-0.0521 1.479453,-0.004 2.241595,0.18681 0.108719,-0.0289 0.217438,-0.0578 0.329518,-0.0877 0.497069,-0.11805 0.93979,-0.11693 1.450873,-0.11078 0.209961,9.4e-4 0.419923,0.003 0.636423,0.004 0.426093,0.005 0.85218,0.01 1.278274,0.0146 1.570606,0.0104 3.133002,-0.0368 4.702118,-0.0999 2.818056,-0.1104 5.632568,-0.11637 8.452121,-0.10704 0.652674,0.002 1.305539,0.003 1.958406,0.004 1.265008,0.002 2.530016,0.005 3.795025,0.01 0,0.12328 0,0.24657 0,0.37359 0.114133,-0.0269 0.228076,-0.0536 0.345571,-0.0813 1.424723,-0.30018 2.807974,-0.33119 4.257169,-0.3099 0.706471,0.0103 1.412762,0.0136 2.119051,0.0168 0.143278,7.1e-4 0.286367,9.5e-4 0.433746,0.002 1.325161,0.004 2.646764,-0.0402 3.970618,-0.0949 2.331633,-0.0919 4.660273,-0.11451 6.993403,-0.11676 0.169055,-3.6e-4 0.338103,-7e-4 0.512199,-9.3e-4 0.483069,-7.1e-4 0.966131,-7.1e-4 1.449193,0 0.144027,-3.8e-4 0.287855,-7.1e-4 0.436176,-9.4e-4 0.605606,0.003 1.176284,0.0301 1.774037,0.13187 0.498383,0.0809 0.498383,0.0809 1.093898,-0.0944 1.160964,-0.32352 2.298198,-0.26393 3.485686,-0.0977 0.765128,0.10013 1.502799,0.0647 2.26999,0.004 2.000809,-0.1343 4.000683,-0.1158 6.004673,-0.098 0.12684,7.1e-4 0.25367,9.4e-4 0.38444,0.002 0.34819,0.002 0.69658,0.006 1.04476,0.01 0.59852,-0.0184 0.59852,-0.0184 1.06346,-0.12404 0.49333,-0.0851 0.87721,-0.0259 1.36662,0.0568 0.9355,0.11171 1.88612,0.0677 2.82684,0.0605 0.21668,-7.2e-4 0.43357,-9.4e-4 0.65698,-0.002 0.53199,-0.002 1.06421,-0.005 1.5962,-0.01 0.004,-1.59807 0.008,-3.19613 0.01,-4.79439 7.1e-4,-0.74235 0.002,-1.48486 0.004,-2.22721 0.017,-5.98675 0.017,-5.98675 -0.16833,-8.417388 -0.0469,-0.904654 0.0261,-1.785238 0.15431,-2.680569 -0.10722,0.03033 -0.21426,0.06035 -0.32466,0.09157 -0.69676,0.157101 -1.39222,0.129638 -2.10373,0.130394 -0.15076,0.0019 -0.3015,0.004 -0.45673,0.007 -0.14589,3.68e-4 -0.29196,5.57e-4 -0.44216,7.07e-4 -0.13224,7.05e-4 -0.26451,0.0011 -0.40068,0.0019 -0.44085,-0.0525 -0.73805,-0.214818 -1.12882,-0.418989 -0.35531,0.04515 -0.35531,0.04515 -0.73563,0.163443 -1.10567,0.283746 -2.23898,0.320923 -3.37397,0.210147 -0.1233,-0.123284 -0.24658,-0.246578 -0.3736,-0.37359 -0.36986,0.123284 -0.73972,0.246568 -1.1208,0.37359 0,-0.18493 0,-0.369862 0,-0.5604 -0.12329,0 -0.24658,0 -0.3736,0 0,0.123294 0,0.246578 0,0.3736 -0.44309,0.221551 -0.70255,0.205672 -1.19589,0.198384 -0.0827,-7.07e-4 -0.0827,-7.07e-4 -0.50118,-0.005 -0.17579,-0.0019 -0.35174,-0.004 -0.532944,-0.007 -1.244827,-0.01024 -2.456422,0.01512 -3.694337,0.158412 -0.593277,0.03938 -1.152554,-0.04057 -1.739478,-0.123284 -0.368561,-0.03519 -0.368561,-0.03519 -0.905605,0.05826 -0.878147,0.140465 -1.765819,0.07756 -2.638544,-0.09337 -0.06164,-0.123284 -0.123292,-0.246577 -0.186805,-0.373599 -0.431502,0.06165 -0.863009,0.123283 -1.307595,0.186799 -0.123284,-0.18493 -0.246575,-0.369862 -0.373602,-0.5604 -0.677146,-0.221915 -0.677146,-0.221915 -1.307595,-0.373602 0.06164,-0.369858 0.123291,-0.739725 0.186798,-1.120797 0.115631,0.06164 0.231262,0.123292 0.350254,0.186805 0.396949,0.186796 0.396949,0.186796 0.770543,0.186796 -0.06164,-0.123283 -0.123285,-0.246576 -0.186798,-0.373601 -0.678083,0 -1.35616,0 -2.054797,0 -0.123284,-0.246575 -0.246576,-0.493151 -0.373594,-0.747196 0.246575,-0.06164 0.493151,-0.123284 0.747195,-0.186797 -0.123284,-0.08088 -0.246575,-0.161769 -0.373601,-0.245086 -0.123284,-0.104046 -0.246576,-0.208091 -0.373594,-0.315313 0,-0.184933 0,-0.369867 0,-0.560399 -0.123293,-0.184934 -0.246576,-0.369868 -0.373602,-0.560399 0,-0.123292 0,-0.246575 0,-0.373602 0.184934,-0.06164 0.369867,-0.123291 0.560398,-0.186797 0.06164,-0.123291 0.123292,-0.246575 0.186798,-0.3736 0.431509,0 0.863017,0 1.307602,0 0.06164,-0.246576 0.123284,-0.493152 0.186796,-0.747198 0.123292,0 0.246576,0 0.373603,0 0,-0.184933 0,-0.369866 0,-0.560398 -0.246577,-0.123292 -0.493151,-0.246576 -0.747203,-0.373602 0.03516,-0.443652 0.03516,-0.443652 0.186804,-0.934 0.311394,-0.124591 0.622598,-0.249004 0.933993,-0.373595 0.06389,-0.31102 0.125903,-0.622421 0.186805,-0.934 0.725528,-0.559092 1.339726,-0.649879 2.241596,-0.700501 0.111705,-0.0072 0.111705,-0.0072 0.677145,-0.0437 0.63045,-0.0028 0.63045,-0.0028 1.117063,0.09845 0.536485,0.102365 0.907285,0.02542 1.439662,-0.08986 1.877705,-0.341096 3.904674,-0.434121 5.732529,0.17522 0.0617,-0.123292 0.12328,-0.246577 0.18678,-0.373602 0.49315,0 0.98631,0 1.4944,0 0,0.12329 0,0.246575 0,0.373602 0.39714,-0.05754 0.79391,-0.116189 1.19084,-0.17522 0.22099,-0.03248 0.44215,-0.06503 0.66987,-0.09844 0.56769,-0.09994 0.56769,-0.09994 0.94129,-0.28674 0.29757,0.04504 0.59495,0.0906 0.89197,0.138605 0.86563,0.10031 1.74059,0.05923 2.61052,0.04822 0.38425,-0.005 0.76868,-0.0087 1.15292,-0.01158 0.16869,-0.002 0.33736,-0.0044 0.51128,-0.0071 0.4373,0.01829 0.4373,0.01829 0.99769,0.205113 0.25106,-0.05345 0.50026,-0.116937 0.7472,-0.186805 0.31046,-0.04484 0.62204,-0.08351 0.934,-0.116746 0.0791,-0.0089 0.0791,-0.0089 0.47858,-0.05401 0.45242,-0.01588 0.76849,0.05718 1.20262,0.170736 0.32671,0.01236 0.65379,0.0161 0.9807,0.01158 0.0833,-7.07e-4 0.0833,-7.07e-4 0.50491,-0.005 0.12628,-0.002 0.25237,-0.0044 0.38238,-0.0064 0,0.12329 0,0.246575 0,0.373601 0.43151,-0.06164 0.86301,-0.123292 1.3076,-0.186798 0.0347,0.115625 0.0693,0.231256 0.105,0.350247 0.39693,0.586741 0.91007,0.583564 1.5762,0.770551 0.56039,0.578516 0.56039,0.578516 0.56039,1.120799 0.0559,0.02689 0.0559,0.02689 0.33849,0.163449 1.47292,0.757469 1.9401,2.443522 2.46351,3.946139 0.24414,0.920551 0.31439,1.853803 0.3736,2.801994 0.02,0.235555 0.04,0.470918 0.0606,0.713578 0.10051,1.312263 0.13469,2.614437 0.12778,3.929691 -0.004,1.635621 0.0127,3.270301 0.0387,4.905931 0.01,0.63212 0.0189,1.26424 0.0281,1.89638 0.0168,1.16657 0.034,2.33332 0.0527,3.50007 0.013,0.82154 0.0251,1.64328 0.0363,2.465 0.004,0.30803 0.01,0.61607 0.0146,0.92429 0.0267,1.57116 0.0244,3.13412 -0.0633,4.70361 -0.004,0.0654 -0.004,0.0654 -0.0216,0.39584 -0.0611,0.95267 -0.22865,1.74527 -0.56582,2.63573 -0.0852,0.23146 -0.17018,0.46289 -0.25759,0.70125 -0.0652,0.16551 -0.13057,0.33101 -0.19783,0.50137 -0.12329,0 -0.24656,0 -0.37359,0 -0.0461,0.11937 -0.0924,0.23891 -0.1401,0.36201 -0.2335,0.38519 -0.2335,0.38519 -0.63045,0.52529 -0.11563,0.0153 -0.23107,0.0308 -0.35025,0.0466 0,0.12329 0,0.24657 0,0.3736 -0.2774,0.0924 -0.2774,0.0924 -1.68119,0.5604 -0.0617,-0.12328 -0.12329,-0.24658 -0.18681,-0.37361 -0.18548,0.0593 -0.37079,0.11845 -0.56189,0.17952 -0.73432,0.20809 -1.45629,0.27815 -2.21676,0.31084 -0.14496,0.007 -0.28991,0.0142 -0.43915,0.0215 -2.59801,0.1076 -5.20386,0.0637 -7.80337,0.0486 0.0617,-0.12328 0.12328,-0.24659 0.18679,-0.3736 -0.12328,-0.0617 -0.24657,-0.12329 -0.3736,-0.1868 0,0.18493 0,0.36986 0,0.5604 -1.7871,0.21688 -3.56226,0.20847 -5.35891,0.19839 -0.29643,-7.1e-4 -0.59308,-9.4e-4 -0.88972,-0.002 -0.71918,-0.002 -1.438174,-0.005 -2.157347,-0.01 0,-0.12329 0,-0.24658 0,-0.37362 -0.184934,0.12331 -0.369867,0.24659 -0.560402,0.37362 -0.450747,0.0393 -0.450747,0.0393 -0.984441,0.0299 -0.19707,-0.002 -0.394148,-0.004 -0.597192,-0.006 -0.103118,-0.002 -0.103118,-0.002 -0.624844,-0.0121 -1.218871,-0.0198 -2.417938,-0.024 -3.632508,0.0869 -2.039103,0.16177 -4.085494,0.052 -6.127774,-0.005 -0.625776,-0.0171 -1.251559,-0.0339 -1.87715,-0.0495 -0.38686,-0.01 -0.773538,-0.0202 -1.160216,-0.0317 -0.174653,-0.004 -0.349497,-0.01 -0.529383,-0.0133 -0.152801,-0.004 -0.305421,-0.01 -0.462707,-0.0131 -0.442156,0.0142 -0.442156,0.0142 -0.897754,0.10647 -0.533316,0.10536 -1.020861,0.11563 -1.564076,0.11283 -0.213887,-7.1e-4 -0.427773,-9.4e-4 -0.648008,-0.002 -0.2292,-9.3e-4 -0.458591,-0.003 -0.694711,-0.005 -0.23686,-5.8e-4 -0.473904,-9.4e-4 -0.718052,-0.002 -0.885243,-0.003 -1.770486,-0.007 -2.655918,-0.0114 -0.86787,-0.004 -1.735744,-0.007 -2.603612,-0.01 -0.229208,-9.4e-4 -0.458408,-0.004 -0.694711,-0.005 -0.213697,-5.7e-4 -0.427583,-9.5e-4 -0.648007,-0.002 -0.09377,-3.7e-4 -0.09377,-3.7e-4 -0.568244,-0.003 -0.517431,0.0213 -0.517431,0.0213 -0.953797,0.11469 -0.690976,0.12965 -1.37391,0.11619 -2.074037,0.11171 -0.156727,-3.7e-4 -0.313265,-5.5e-4 -0.474469,-7.1e-4 -0.339417,-7e-4 -0.678644,-0.002 -1.018059,-0.004 -0.538915,-0.002 -1.078021,-0.004 -1.616935,-0.004 -1.340099,-0.002 -2.680015,-0.007 -4.019932,-0.0114 -1.131071,-0.004 -2.26214,-0.007 -3.393028,-0.01 -0.527335,-9.4e-4 -1.054671,-0.004 -1.582001,-0.006 -1.547265,-0.004 -3.072855,0.0193 -4.615073,0.15822 -1.071483,0.0845 -2.145209,0.0897 -3.21968,0.10406 -0.250683,0.004 -0.501369,0.008 -0.752052,0.0118 -0.523977,0.008 -1.047944,0.0159 -1.572105,0.0232 -0.652307,0.01 -1.304424,0.019 -1.956724,0.0295 -2.212458,0.035 -4.424726,0.068 -6.637551,0.0618 -0.131326,-3.7e-4 -0.262644,-7.1e-4 -0.397889,-7.1e-4 -0.624094,-0.002 -1.24819,-0.005 -1.872476,-0.01 -1.132193,-0.005 -2.235241,0.0267 -3.360148,0.15653 -0.637925,0.0651 -1.264635,0.0635 -1.906295,0.061 -0.130013,-3.8e-4 -0.260025,-5.5e-4 -0.393956,-7.1e-4 -0.407222,-7e-4 -0.81426,-0.004 -1.221482,-0.006 -0.279455,-7.1e-4 -0.558909,-9.5e-4 -0.838356,-0.002 -0.677901,-0.002 -1.355795,-0.005 -2.033689,-0.01 0,0.12328 0,0.24657 0,0.37359 -0.369867,-0.12328 -0.739726,-0.24658 -1.120797,-0.37359 0.06164,-0.18494 0.123284,-0.36987 0.186798,-0.56042 -0.123285,0 -0.246577,0 -0.373596,0 0,-0.12327 0,-0.24656 0,-0.37358 -0.165694,0.0424 -0.331389,0.0848 -0.502116,0.12851 -0.730203,0.0687 -0.992656,-0.0409 -1.552682,-0.50213 0,-0.18492 0,-0.36984 0,-0.56039 -0.123291,0 -0.246575,0 -0.373601,0 -0.870296,-0.8066 -0.870296,-0.8066 -1.120798,-1.30759 0.06164,-0.12329 0.123291,-0.24658 0.186805,-0.37359 -0.184934,-0.0617 -0.369867,-0.1233 -0.560399,-0.18681 -0.06164,-0.61643 -0.123292,-1.23287 -0.186805,-1.86799 0.184933,-0.12329 0.369868,-0.24659 0.560399,-0.3736 0.08238,-0.3977 0.08238,-0.3977 0.104985,-0.85219 0.02408,-0.45615 0.02408,-0.45615 0.08183,-0.829 0.123284,-0.0617 0.246575,-0.1233 0.373594,-0.18681 0.210152,-0.38519 0.210152,-0.38519 0.373602,-0.7472 0.184934,0.0617 0.369859,0.1233 0.560399,0.18681 0,-0.1233 0,-0.24659 0,-0.37361 -0.123292,0 -0.246576,0 -0.373602,0 0,-0.5604 0,-0.5604 0.338484,-0.92241 0.134871,-0.12702 0.26974,-0.25424 0.408719,-0.38519 0.05006,-0.0693 0.05006,-0.0693 0.303545,-0.42029 0.04243,-0.054 0.04243,-0.054 0.256854,-0.32691 0.123285,0 0.246575,0 0.373594,0 0.06164,-0.18493 0.123292,-0.36985 0.186806,-0.56039 0.277957,-0.25257 0.277957,-0.25257 0.61868,-0.49035 0.11114,-0.0795 0.222096,-0.15898 0.336422,-0.24079 0.366124,-0.2107 0.68705,-0.30766 1.099688,-0.38966 0.06164,-0.24658 0.12329,-0.49315 0.186797,-0.74719 0.123292,0 0.246576,0 0.373602,0 0.01926,-0.11937 0.03848,-0.23892 0.05824,-0.36204 0.04243,-0.12702 0.0848,-0.25421 0.128515,-0.38516 0.184933,-0.0617 0.369867,-0.1233 0.560399,-0.18681 0.06164,-0.12328 0.123292,-0.24657 0.186806,-0.3736 0.123283,0 0.246573,0 0.373594,0 0.06164,-0.24658 0.123291,-0.49315 0.186804,-0.7472 0.123284,0 0.246574,0 0.373595,0 0,-0.12328 0,-0.24657 0,-0.3736 0.184933,0 0.369865,0 0.560398,0 0.252928,-0.37098 0.501559,-0.74496 0.747203,-1.12079 0.490348,-0.42031 0.490348,-0.42031 0.933993,-0.74719 0.123291,-0.12329 0.246576,-0.24659 0.373603,-0.37362 0.06164,-0.0249 0.06164,-0.0249 0.373599,-0.15168 0.373596,-0.22191 0.373596,-0.22191 0.513698,-0.65379 0.351559,-0.75578 0.993404,-1.07652 1.727899,-1.43611 0.123284,0 0.246576,0 0.373594,0 0.01567,-0.11152 0.03142,-0.22304 0.04745,-0.33793 0.180259,-0.52957 0.416373,-0.67042 0.874971,-0.98126 0.525649,-0.35978 0.769795,-0.56524 1.132375,-1.10921 0.529208,-0.55704 1.062892,-1.04104 1.681197,-1.4944 0.439544,-0.39079 0.55442,-0.54265 0.747197,-1.120797 0.38518,-0.12852 0.38518,-0.12852 0.747204,-0.1868 0,-0.18493 0,-0.369864 0,-0.560414 0.348008,-0.293257 0.348008,-0.293257 0.805476,-0.583727 0.149626,-0.0968 0.299252,-0.193527 0.453177,-0.293277 0.422543,-0.24378 0.422543,-0.24378 0.982941,-0.430567 0.05401,-0.10778 0.10778,-0.21575 0.16345,-0.3269 0.28412,-0.568254 0.674716,-0.931762 1.144145,-1.354302 0.123291,0 0.246576,0 0.373601,0 0,-0.123285 0,-0.246568 0,-0.3736 0.29402,-0.289721 0.29402,-0.289721 0.688916,-0.618679 0.464571,-0.393215 0.911583,-0.784742 1.330759,-1.225966 0.408718,-0.396949 0.408718,-0.396949 0.969117,-0.583747 0,-0.123291 0,-0.246576 0,-0.373602 0.184933,0 0.369867,0 0.560398,0 0,-0.123284 0,-0.246575 0,-0.373601 0.123291,-0.06164 0.246576,-0.123284 0.373603,-0.186797 0.06164,-0.184935 0.123283,-0.36986 0.186796,-0.560399 0.173348,-0.111705 0.346704,-0.223412 0.525282,-0.338477 0.595516,-0.408719 0.595516,-0.408719 0.926149,-0.915884 0.493525,-0.727026 1.058034,-1.280887 1.70081,-1.874531 0.111896,-0.107597 0.223976,-0.215194 0.339232,-0.326152 0.682003,-0.634557 1.209523,-0.939979 2.112516,-1.214944 0.06164,-0.184934 0.123284,-0.369867 0.186797,-0.560398 0.123291,0 0.246575,0 0.373602,0 0.05098,-0.109653 0.102181,-0.219119 0.154666,-0.331948 0.596455,-1.131252 1.332072,-1.719116 2.46053,-2.28325 0.258902,-0.366872 0.509962,-0.739542 0.747195,-1.120797 0.123285,0 0.246577,0 0.373603,0 0.06164,-0.184933 0.123284,-0.369867 0.186797,-0.560399 0.123284,0 0.246576,0 0.373601,0 0.170546,-0.26544 0.340723,-0.531071 0.508656,-0.798191 0.353423,-0.478021 0.79053,-0.828085 1.24987,-1.201128 0.296265,-0.242276 0.296265,-0.242276 0.669867,-0.615877 0.184933,0 0.36986,0 0.560399,0 0.06164,-0.184926 0.123284,-0.369861 0.186797,-0.560399 0.268618,-0.315314 0.268618,-0.315314 0.5604,-0.560399 0.12329,0 0.246575,0 0.3736,0 0,-0.123284 0,-0.246576 0,-0.373594 0.184934,-0.06164 0.36986,-0.123292 0.560399,-0.186805 0.189418,-0.309714 0.375657,-0.621483 0.560399,-0.933993 0.51071,-0.563019 0.959029,-1.04272 1.681196,-1.307602 0.184935,0 0.369861,0 0.560399,0 -0.06164,-0.246576 -0.123291,-0.493151 -0.186797,-0.747196 0.119359,-0.0192 0.238916,-0.03848 0.362016,-0.05824 0.127019,-0.04243 0.254235,-0.08481 0.38518,-0.128516 0.06164,-0.184934 0.123284,-0.369866 0.186797,-0.560399 0.184934,-0.06164 0.369866,-0.12329 0.560399,-0.186803 0.28674,-0.304293 0.28674,-0.304293 0.571984,-0.665376 0.286924,-0.362765 0.286924,-0.362765 0.548814,-0.64222 0.123292,0 0.246575,0 0.373601,0 0.06164,-0.184934 0.123284,-0.369866 0.186798,-0.560399 0.271419,-0.267119 0.271419,-0.267119 0.607102,-0.537051 0.433372,-0.356034 0.839289,-0.714507 1.225775,-1.120797 0.408718,-0.39695 0.408718,-0.39695 0.782319,-0.39695 0,-0.123283 0,-0.246575 0,-0.373594 0.240038,-0.229207 0.240038,-0.229207 0.571979,-0.490355 0.516688,-0.426086 0.957348,-0.866187 1.389414,-1.377646 0.513138,-0.604295 1.052619,-1.120048 1.66663,-1.620672 0.413196,-0.346699 0.780817,-0.727397 1.14695,-1.123039 0.268616,-0.245081 0.268616,-0.245081 0.642211,-0.245081 0.04723,-0.110584 0.09434,-0.220984 0.143096,-0.334931 0.257595,-0.460834 0.522662,-0.699378 0.931006,-1.030946 0.511832,-0.430574 0.956416,-0.858532 1.377646,-1.377836 0.609156,-0.737671 1.319364,-1.184869 2.159965,-1.634495 0.431877,-0.291782 0.431877,-0.291782 0.676963,-0.712081 0.521172,-0.849191 1.323099,-1.579391 2.218989,-2.024907 0.446637,-0.22472 0.501559,-0.47111 0.711521,-0.917186 0.613448,-0.715817 0.613448,-0.715817 1.144144,-0.840598 0.115631,-0.03083 0.231263,-0.06165 0.350254,-0.09341 0.13057,-0.245827 0.255353,-0.495019 0.373595,-0.747198 0.184933,-0.06165 0.369867,-0.123289 0.560399,-0.1868 0,-0.123287 0,-0.246575 0,-0.373598 0.123291,0 0.246574,0 0.373602,0 0.06164,-0.184932 0.12329,-0.369864 0.186797,-0.560399 0.123291,0 0.246574,0 0.373601,0 0.04723,-0.110586 0.09434,-0.220985 0.143087,-0.334933 0.257598,-0.460834 0.522669,-0.699377 0.931008,-1.030947 0.511833,-0.430573 0.956416,-0.85853 1.377654,-1.377834 0.486612,-0.589166 1.000124,-0.968555 1.65784,-1.365877 0.883754,-0.540972 1.422295,-1.064572 2.054798,-1.867998 0.100128,-0.09639 0.200247,-0.192589 0.303551,-0.29178 0.256848,-0.268619 0.256848,-0.268619 0.501928,-0.712267 0.497634,-0.774097 1.110524,-1.315817 1.996516,-1.611146 0.123284,-0.184933 0.246575,-0.369864 0.373601,-0.560399 0.123281,0 0.246576,0 0.37359,0 0,-0.123286 0,-0.246576 0,-0.3736 0.107787,-0.03848 0.215762,-0.07696 0.326902,-0.116749 0.56843,-0.347447 0.807544,-0.825654 1.1675,-1.377648 0.123288,0 0.24658,0 0.37361,0 0,-0.123288 0,-0.246575 0,-0.373598 0.268235,-0.230885 0.537605,-0.46065 0.8135,-0.682193 0.672864,-0.551433 1.239974,-1.181321 1.790104,-1.851184 0.4997,-0.593274 1.0373,-0.970985 1.69278,-1.389416 0.46195,-0.436924 0.89625,-0.892901 1.32665,-1.360835 0.14384,-0.152054 0.28787,-0.303921 0.43636,-0.46046 0.0673,-0.07266 0.0673,-0.07266 0.40779,-0.440662 0.52565,-0.417869 0.90411,-0.482877 1.56519,-0.540036 0.0216,-0.10909 0.0434,-0.218183 0.0657,-0.330635 0.12872,-0.442903 0.29702,-0.731507 0.5647,-1.10548 0.0392,-0.05604 0.0392,-0.05604 0.2378,-0.340723 0.25255,-0.277958 0.25255,-0.277958 0.81296,-0.464758 0.16905,-0.269178 0.33791,-0.538542 0.50567,-0.808468 0.37488,-0.484745 0.86188,-0.787921 1.35858,-1.139104 0.48979,-0.381632 0.85292,-0.825093 1.24502,-1.303114 0.90728,-1.069429 2.23375,-1.776465 3.61551,-1.979703 0.3736,-0.186799 0.3736,-0.186799 0.56039,-0.560399 z m 2.0548,2.428394 c -0.0617,0.123288 -0.12329,0.246575 -0.18681,0.373599 0.12331,0 0.2466,0 0.37361,0 -0.0617,-0.123287 -0.12328,-0.246574 -0.1868,-0.373599 z m 1.68119,0.1868 c 0.0617,0.123287 0.1233,0.246576 0.18681,0.373599 0.0617,-0.123288 0.12329,-0.246576 0.18679,-0.373599 -0.12328,0 -0.24656,0 -0.3736,0 z m 0.3736,2.054796 c -0.0617,0.09247 -0.0617,0.09247 -0.3736,0.560398 0.24658,-0.06165 0.49317,-0.123288 0.7472,-0.186799 0,-0.123288 0,-0.246575 0,-0.373599 -0.12329,0 -0.24656,0 -0.3736,0 z m -15.50435,53.051088 c 0.18678,0.373602 0.18678,0.373602 0.18678,0.373602 z m 8.21916,0.373602 c 0,0.123284 0,0.246576 0,0.373594 0.18494,0 0.36987,0 0.5604,0 0,-0.123284 0,-0.246575 0,-0.373594 -0.18492,0 -0.36986,0 -0.5604,0 z m -7.47198,37.359913 c 0.7472,0.18681 0.7472,0.18681 0.7472,0.18681 z"
     fill="#ffffff"
     id="path2"
     style="stroke-width:0.186798" /><path
     d="m 147.05416,15.345834 c -0.21828,0.130968 -0.21828,0.130968 -1.32291,0.79375 -0.0873,-0.261938 -0.17463,-0.523875 -0.26459,-0.79375 0.79375,-0.264584 0.79375,-0.264584 1.5875,0 z"
     fill="#ffffff"
     id="path3"
     style="stroke-width:0.264583" /><path
     d="m 306.33332,162.18959 c 0.0873,0 0.17463,0 0.26459,0 0,0.78581 0,1.57162 0,2.38125 -0.0873,0 -0.17463,0 -0.26459,0 0,-0.78582 0,-1.57163 0,-2.38125 z"
     fill="#ffffff"
     id="path4"
     style="stroke-width:0.264583" /><path
     d="m 150.22916,164.30625 c 0.17463,0.34925 0.34925,0.6985 0.52917,1.05834 -0.26194,0 -0.52388,0 -0.79375,0 0.0873,-0.34925 0.17462,-0.6985 0.26458,-1.05834 z"
     fill="#ffffff"
     id="path5"
     style="stroke-width:0.264583" /><path
     d="m 306.06874,144.4625 c 0.0873,0 0.17462,0 0.26458,0 0,0.6985 0,1.397 0,2.11667 -0.0873,0 -0.17462,0 -0.26458,0 0,-0.6985 0,-1.397 0,-2.11667 z"
     fill="#ffffff"
     id="path6"
     style="stroke-width:0.264583" /><path
     d="m 145.73125,14.2875 c 0.17462,0 0.34925,0 0.52916,0 -0.0873,0.261938 -0.17462,0.523875 -0.26458,0.79375 -0.0873,-0.261937 -0.17462,-0.523875 -0.26458,-0.79375 z"
     fill="#ffffff"
     id="path7"
     style="stroke-width:0.264583" /><path
     d="m 271.67291,130.70417 c 0.0873,0.0437 0.0873,0.0437 0.52916,0.26458 -0.0873,0.0437 -0.0873,0.0437 -0.52916,0.26459 0,-0.17463 0,-0.34925 0,-0.52917 z"
     fill="#ffffff"
     id="path9"
     style="stroke-width:0.264583" /><path
     d="M 275.37707,139.43542 C 275.90624,139.7 275.90624,139.7 275.90624,139.7 Z"
     fill="#ffffff"
     id="path16"
     style="stroke-width:0.264583" /></svg>
